<?xml version="1.0" encoding="UTF-8"?>
<svg version="1.1" xmlns="http://www.w3.org/2000/svg" width="768" height="384">
<path d="M0 0 C6.41665462 3.22940501 12.5266113 6.88858117 18.52246094 10.84423828 C21.07187397 12.47897641 23.66068828 13.93253087 26.33105469 15.35986328 C33.40122852 19.14602171 40.22399244 23.32985986 47.08105469 27.48486328 C49.49610473 28.94589115 51.91273049 30.4042612 54.33105469 31.85986328 C54.93989502 32.22644043 55.54873535 32.59301758 56.17602539 32.97070312 C61.25515623 36.01621678 66.38390508 38.97170562 71.51855469 41.92236328 C78.22660814 45.77947719 84.82236574 49.77617883 91.35839844 53.91723633 C95.68120513 56.64464353 100.06356998 59.22976419 104.51855469 61.73486328 C109.19697243 64.37178964 113.69654005 67.13793872 118.12011719 70.18017578 C120.00091645 71.43154422 121.91033232 72.53038782 123.89355469 73.60986328 C126.82442174 75.33390272 128.91246482 76.88255544 131.08105469 79.48486328 C131.08105469 80.14486328 131.08105469 80.80486328 131.08105469 81.48486328 C131.74105469 81.48486328 132.40105469 81.48486328 133.08105469 81.48486328 C136.52030964 89.07988464 137.54651288 96.63283577 135.01855469 104.73486328 C129.38768717 117.26481171 112.65994153 124.33208824 101.12011719 130.32861328 C98.94724165 131.4411386 98.94724165 131.4411386 97.08105469 133.48486328 C97.90605469 133.94634766 98.73105469 134.40783203 99.58105469 134.88330078 C103.43333511 137.05137301 107.26119468 139.26023647 111.08105469 141.48486328 C112.13075439 142.09442871 112.13075439 142.09442871 113.20166016 142.71630859 C130.77086095 153.00839727 130.77086095 153.00839727 135.51855469 162.29736328 C136.94379143 170.3737048 136.46405797 177.01406437 133.08105469 184.48486328 C132.42105469 184.48486328 131.76105469 184.48486328 131.08105469 184.48486328 C130.81292969 185.12423828 130.54480469 185.76361328 130.26855469 186.42236328 C129.08105469 188.48486328 129.08105469 188.48486328 126.08105469 189.48486328 C126.08105469 190.14486328 126.08105469 190.80486328 126.08105469 191.48486328 C123.08105469 193.48486328 123.08105469 193.48486328 120.08105469 193.48486328 C120.08105469 194.14486328 120.08105469 194.80486328 120.08105469 195.48486328 C119.18580078 195.96052734 119.18580078 195.96052734 118.27246094 196.44580078 C106.28713795 202.8925867 94.48223615 209.71379091 83.18261719 217.30517578 C81.08105469 218.48486328 81.08105469 218.48486328 78.08105469 218.48486328 C78.08105469 219.14486328 78.08105469 219.80486328 78.08105469 220.48486328 C76.9325 221.03658203 75.78394531 221.58830078 74.60058594 222.15673828 C69.36768437 224.77145975 64.5319651 227.92811561 59.64160156 231.12548828 C58.96548828 231.55861328 58.289375 231.99173828 57.59277344 232.43798828 C56.68724731 233.02821777 56.68724731 233.02821777 55.76342773 233.63037109 C54.08105469 234.48486328 54.08105469 234.48486328 51.08105469 234.48486328 C51.08105469 235.14486328 51.08105469 235.80486328 51.08105469 236.48486328 C49.41042969 237.28923828 49.41042969 237.28923828 47.70605469 238.10986328 C43.71969395 240.10651005 39.92266128 242.33093284 36.11621094 244.64892578 C31.54961366 247.41121757 26.94097875 250.10130902 22.33691406 252.80053711 C18.41856035 255.10061074 14.52015785 257.42730732 10.64355469 259.79736328 C-5.94930391 269.7814423 -5.94930391 269.7814423 -15.91894531 268.48486328 C-20.55431308 266.94735213 -25.35336782 264.89541567 -28.91894531 261.48486328 C-28.91894531 260.82486328 -28.91894531 260.16486328 -28.91894531 259.48486328 C-29.57894531 259.48486328 -30.23894531 259.48486328 -30.91894531 259.48486328 C-34.54502782 251.60207522 -35.07695628 244.6178779 -35.08691406 236.00439453 C-35.09024246 234.99575851 -35.09357086 233.9871225 -35.09700012 232.94792175 C-35.10205122 230.81725519 -35.10440901 228.68658075 -35.10424805 226.5559082 C-35.1064262 223.32571065 -35.12457853 220.0958595 -35.14355469 216.86572266 C-35.1464908 214.78694777 -35.14847414 212.70817128 -35.14941406 210.62939453 C-35.15659958 209.67692337 -35.1637851 208.72445221 -35.17118835 207.74311829 C-35.14243033 199.13637298 -34.55450532 190.2930444 -30.10644531 182.73486328 C-29.57921875 181.83638672 -29.05199219 180.93791016 -28.50878906 180.01220703 C-26.42649392 176.70202286 -24.3641902 173.5414194 -21.91894531 170.48486328 C-21.25894531 170.48486328 -20.59894531 170.48486328 -19.91894531 170.48486328 C-19.91894531 169.82486328 -19.91894531 169.16486328 -19.91894531 168.48486328 C-13.72143407 163.20127074 -6.35400539 159.34731637 0.72167969 155.37548828 C6.77773666 151.96719576 12.69980343 148.35020393 18.59277344 144.66845703 C19.40198242 144.16612549 20.21119141 143.66379395 21.04492188 143.14624023 C22.67542078 142.13353499 24.30247616 141.1152613 25.92578125 140.09106445 C26.67698242 139.62547119 27.42818359 139.15987793 28.20214844 138.68017578 C28.87689209 138.25752441 29.55163574 137.83487305 30.24682617 137.39941406 C32.08105469 136.48486328 32.08105469 136.48486328 35.08105469 136.48486328 C35.08105469 135.82486328 35.08105469 135.16486328 35.08105469 134.48486328 C36.07105469 134.15486328 37.06105469 133.82486328 38.08105469 133.48486328 C32.05653909 129.37677566 26.06605504 125.35353105 19.63574219 121.90283203 C15.51634934 119.61638004 11.50492693 117.14893149 7.48413086 114.6940918 C3.76167386 112.43667455 0.00698463 110.37847619 -3.91894531 108.48486328 C-3.91894531 107.82486328 -3.91894531 107.16486328 -3.91894531 106.48486328 C-4.47066406 106.38044922 -5.02238281 106.27603516 -5.59082031 106.16845703 C-8.41483041 105.33925944 -10.64449447 104.05686678 -13.16894531 102.54736328 C-14.06097656 102.02271484 -14.95300781 101.49806641 -15.87207031 100.95751953 C-16.54753906 100.47154297 -17.22300781 99.98556641 -17.91894531 99.48486328 C-17.91894531 98.82486328 -17.91894531 98.16486328 -17.91894531 97.48486328 C-18.57894531 97.48486328 -19.23894531 97.48486328 -19.91894531 97.48486328 C-19.91894531 96.82486328 -19.91894531 96.16486328 -19.91894531 95.48486328 C-20.57894531 95.48486328 -21.23894531 95.48486328 -21.91894531 95.48486328 C-23.50513549 93.36893976 -24.94546734 91.27658351 -26.35644531 89.04736328 C-26.76314453 88.40790771 -27.16984375 87.76845215 -27.58886719 87.10961914 C-33.91279346 76.91036001 -35.07258265 67.11628917 -35.08691406 55.30908203 C-35.09024246 54.34388138 -35.09357086 53.37868073 -35.09700012 52.38423157 C-35.10204388 50.34950229 -35.10440924 48.31476481 -35.10424805 46.2800293 C-35.10643103 43.19256735 -35.12460453 40.10546511 -35.14355469 37.01806641 C-35.14648997 35.03173949 -35.14847386 33.04541089 -35.14941406 31.05908203 C-35.15659958 30.1483342 -35.1637851 29.23758636 -35.17118835 28.29924011 C-35.14467072 20.7352915 -34.58414874 13.23237858 -30.91894531 6.48486328 C-30.25894531 6.48486328 -29.59894531 6.48486328 -28.91894531 6.48486328 C-28.58894531 5.49486328 -28.25894531 4.50486328 -27.91894531 3.48486328 C-27.25894531 3.48486328 -26.59894531 3.48486328 -25.91894531 3.48486328 C-25.91894531 2.82486328 -25.91894531 2.16486328 -25.91894531 1.48486328 C-16.90055609 -3.50308533 -9.40986406 -4.43120685 0 0 Z M-6.91894531 29.48486328 C-6.96868042 33.913966 -7.00482235 38.34291725 -7.02880859 42.7722168 C-7.03881655 44.27647741 -7.05242711 45.78071881 -7.06982422 47.28491211 C-7.0943034 49.45707971 -7.10548054 51.62898832 -7.11425781 53.80126953 C-7.12473145 55.10523682 -7.13520508 56.4092041 -7.14599609 57.75268555 C-6.77532861 63.84558217 -5.05765718 69.25367684 -1.91894531 74.48486328 C1.70798199 77.64630259 5.62308435 80.20060583 9.70605469 82.73486328 C10.27839844 83.09837891 10.85074219 83.46189453 11.44042969 83.83642578 C14.21899344 85.55525824 15.75047011 86.48486328 19.08105469 86.48486328 C19.08105469 87.14486328 19.08105469 87.80486328 19.08105469 88.48486328 C19.72429687 88.82517578 20.36753906 89.16548828 21.03027344 89.51611328 C26.31861967 92.35265848 31.48643448 95.31216567 36.58105469 98.48486328 C41.38008031 101.47293584 46.24209788 104.23419509 51.22558594 106.89892578 C56.6274322 109.89913041 61.8454323 113.20531603 67.08105469 116.48486328 C74.66828538 112.38881468 82.19116584 108.19653551 89.64355469 103.85986328 C90.62646484 103.30041016 91.609375 102.74095703 92.62207031 102.16455078 C93.55857422 101.61798828 94.49507813 101.07142578 95.45996094 100.50830078 C96.30115479 100.02280762 97.14234863 99.53731445 98.0090332 99.03710938 C100.24884455 97.35916421 101.06896944 96.06215417 102.08105469 93.48486328 C101.02917969 92.98986328 99.97730469 92.49486328 98.89355469 91.98486328 C94.59885288 89.83751238 90.5511748 87.36135942 86.47900391 84.82177734 C82.03274573 82.05460456 77.53893177 79.37901599 73.01855469 76.73486328 C60.42113817 69.35313868 47.86569972 61.9044629 35.51855469 54.10986328 C30.3816396 50.86755666 25.19380302 47.83859837 19.81933594 45.00048828 C15.36906835 42.53728739 11.11064717 39.77068345 6.83105469 37.02392578 C4.16996875 35.24067484 4.16996875 35.24067484 1.08105469 35.48486328 C1.08105469 34.82486328 1.08105469 34.16486328 1.08105469 33.48486328 C0.09105469 33.48486328 -0.89894531 33.48486328 -1.91894531 33.48486328 C-1.91894531 32.82486328 -1.91894531 32.16486328 -1.91894531 31.48486328 C-4.39394531 30.49486328 -4.39394531 30.49486328 -6.91894531 29.48486328 Z M62.51855469 151.98486328 C61.69226563 152.44892578 60.86597656 152.91298828 60.01464844 153.39111328 C59.3765625 153.75205078 58.73847656 154.11298828 58.08105469 154.48486328 C58.08105469 155.14486328 58.08105469 155.80486328 58.08105469 156.48486328 C57.35144531 156.59056641 56.62183594 156.69626953 55.87011719 156.80517578 C52.83066818 157.54588184 51.03418898 158.60471648 48.45605469 160.35986328 C42.47238752 164.30290483 36.30292921 167.86523651 30.07080078 171.40039062 C25.28222505 174.13771828 20.68376488 177.05648024 16.11669922 180.14819336 C13.60629333 181.79660692 11.00804756 183.1890666 8.33105469 184.54736328 C1.86355554 188.02014874 -2.2052853 192.11858898 -5.91894531 198.48486328 C-7.0523356 202.65469376 -7.03375229 206.66831081 -7.01660156 210.97314453 C-7.01518661 211.67634323 -7.01377167 212.37954193 -7.01231384 213.10404968 C-7.0067464 215.33519872 -6.99420006 217.56624492 -6.98144531 219.79736328 C-6.9764261 221.31624203 -6.97186393 222.83512237 -6.96777344 224.35400391 C-6.95678767 228.0643234 -6.93954565 231.77458329 -6.91894531 235.48486328 C-3.47999791 234.18134209 -0.33578944 232.68045861 2.84667969 230.84033203 C3.73742187 230.32792969 4.62816406 229.81552734 5.54589844 229.28759766 C6.465 228.75457031 7.38410156 228.22154297 8.33105469 227.67236328 C10.14845996 226.62366081 11.96616573 225.57547893 13.78417969 224.52783203 C14.66396484 224.0204248 15.54375 223.51301758 16.45019531 222.99023438 C20.3062081 220.78383359 24.18971355 218.62820634 28.08105469 216.48486328 C28.08105469 215.82486328 28.08105469 215.16486328 28.08105469 214.48486328 C28.63664062 214.37907959 29.19222656 214.2732959 29.76464844 214.16430664 C32.53450276 213.35185885 34.66990652 212.1021935 37.14355469 210.61376953 C38.10519531 210.03949219 39.06683594 209.46521484 40.05761719 208.87353516 C41.55421875 207.96958008 41.55421875 207.96958008 43.08105469 207.04736328 C45.05953436 205.86001986 47.03867543 204.67377769 49.01855469 203.48876953 C49.89382812 202.960979 50.76910156 202.43318848 51.67089844 201.8894043 C53.77462364 200.66343883 55.88897522 199.5424399 58.08105469 198.48486328 C58.08105469 197.82486328 58.08105469 197.16486328 58.08105469 196.48486328 C58.78746094 196.39076172 59.49386719 196.29666016 60.22167969 196.19970703 C63.61210799 195.35209996 65.89254329 193.93912515 68.83105469 192.04736328 C69.97710406 191.32038792 71.12430076 190.59521905 72.27246094 189.87158203 C72.8836377 189.48534668 73.49481445 189.09911133 74.12451172 188.70117188 C77.63272281 186.52025003 81.20233362 184.44406966 84.76855469 182.35986328 C86.20877745 181.51631572 87.64888453 180.67257063 89.08886719 179.82861328 C89.76852539 179.43029297 90.44818359 179.03197266 91.1484375 178.62158203 C95.14342038 176.27182959 99.11455714 173.88230406 103.08105469 171.48486328 C98.17197954 167.04517249 98.17197954 167.04517249 92.08105469 165.48486328 C92.08105469 164.82486328 92.08105469 164.16486328 92.08105469 163.48486328 C91.60539062 163.22833984 91.12972656 162.97181641 90.63964844 162.70751953 C84.67472597 159.44493763 78.85129165 155.97144283 73.04760742 152.43237305 C67.77968011 149.21208254 67.77968011 149.21208254 62.51855469 151.98486328 Z " fill="#FE570A" transform="translate(100.9189453125,63.51513671875)"/>
<path d="M0 0 C0 0.66 0 1.32 0 2 C0.58265625 2.10183594 1.1653125 2.20367187 1.765625 2.30859375 C4.37219275 3.11517153 5.73535414 4.24157009 7.75 6.0625 C8.36359375 6.61035156 8.9771875 7.15820312 9.609375 7.72265625 C10.29773438 8.35494141 10.29773438 8.35494141 11 9 C11.33 8.01 11.66 7.02 12 6 C21.62816677 -2.09018827 34.37740997 -5.64445594 46.875 -5.25390625 C58.19558922 -3.90126232 67.95890884 -0.34903652 75.75692749 8.13084412 C84.97464998 19.92140488 84.82129003 33.12487068 84.5859375 47.37109375 C84.57471938 49.38988471 84.5661916 51.40869222 84.56021118 53.42750549 C84.53751859 58.69018229 84.47876849 63.95183404 84.4119873 69.21411133 C84.35013798 74.60418845 84.32310587 79.99443443 84.29296875 85.38476562 C84.22900226 95.92369536 84.12364175 106.4616013 84 117 C72.78 117 61.56 117 50 117 C49.93941406 111.51117188 49.87882813 106.02234375 49.81640625 100.3671875 C49.77590094 96.88540903 49.73512209 93.40363806 49.69335938 89.921875 C49.6271298 84.39813835 49.5619012 78.87440281 49.50268555 73.35058594 C49.4548697 68.89609566 49.40252136 64.44167939 49.34705925 59.98727798 C49.32671351 58.28969293 49.30798794 56.59208764 49.29092598 54.8944664 C49.26670889 52.51274068 49.23667916 50.13115269 49.20532227 47.74951172 C49.1995668 47.05107651 49.19381134 46.3526413 49.18788147 45.63304138 C49.12864527 41.66247883 48.75491307 37.89825222 48 34 C47.34 34 46.68 34 46 34 C44.29220027 32.37550757 42.62449243 30.70779973 41 29 C39.29207001 27.29207001 37.14456519 27.74729654 34.8125 27.6875 C29.69650193 27.74714246 26.8594065 28.4229891 23 32 C18.83772253 37.5122053 17.85019212 41.56653099 17.79467773 48.31713867 C17.78477814 49.05884811 17.77487854 49.80055756 17.76467896 50.56474304 C17.73309743 53.01578583 17.70831979 55.466848 17.68359375 57.91796875 C17.66302133 59.61762495 17.64202478 61.31727607 17.62062073 63.016922 C17.5654298 67.49014163 17.51600738 71.96340721 17.46777344 76.43670654 C17.40870391 81.80405452 17.34249231 87.17131854 17.27747345 92.53859711 C17.17950139 100.69234679 17.09061975 108.84615035 17 117 C5.45 117 -6.1 117 -18 117 C-18.01417969 111.39 -18.02835937 105.78 -18.04296875 100 C-18.06303676 96.43613558 -18.08456437 92.87239884 -18.11132812 89.30859375 C-18.1536276 83.65766435 -18.19065511 78.00705876 -18.19555664 72.35595703 C-18.19984968 67.79745254 -18.22839528 63.2396741 -18.27343178 58.68139648 C-18.28637475 56.94641354 -18.29072583 55.21134356 -18.28615379 53.47631836 C-18.0409649 40.80694534 -18.0409649 40.80694534 -24 30 C-27.46670236 27.6888651 -28.85654877 27.75701117 -32.9375 27.8125 C-33.97777344 27.81894531 -35.01804687 27.82539063 -36.08984375 27.83203125 C-38.58159555 27.97585048 -40.66002507 28.14959244 -43 29 C-43.69937532 30.31647119 -44.36729133 31.65022151 -45 33 C-45.99 33.33 -46.98 33.66 -48 34 C-49.55352716 37.64020418 -49.17433708 41.80655635 -49.20532227 45.70605469 C-49.21522186 46.47717087 -49.22512146 47.24828705 -49.23532104 48.04277039 C-49.26685078 50.58577427 -49.29165968 53.12879682 -49.31640625 55.671875 C-49.33698314 57.43736246 -49.35797981 59.20284507 -49.37937927 60.96832275 C-49.43452399 65.61086091 -49.48396675 70.25344298 -49.53222656 74.89605713 C-49.59133854 80.4686716 -49.65752465 86.04120599 -49.72252655 91.61375427 C-49.82044045 100.07578719 -49.90936189 108.53787192 -50 117 C-61.55 117 -73.1 117 -85 117 C-85 77.73 -85 38.46 -85 -2 C-73.45 -2 -61.9 -2 -50 -2 C-49.505 0.97 -49.505 0.97 -49 4 C-48.30777344 3.38511719 -47.61554688 2.77023438 -46.90234375 2.13671875 C-43.7900208 -0.15458765 -41.25994646 -1.12051015 -37.5625 -2.1875 C-35.92474609 -2.67283203 -35.92474609 -2.67283203 -34.25390625 -3.16796875 C-22.15188868 -6.26248225 -11.53433622 -4.46825638 0 0 Z " fill="#454446" transform="translate(504,164)"/>
<path d="M0 0 C11.55 0 23.1 0 35 0 C35.33 19.47 35.66 38.94 36 59 C39.96 56.525 39.96 56.525 44 54 C46.79296875 52.890625 46.79296875 52.890625 49.1875 52.25 C49.98542969 52.02828125 50.78335938 51.8065625 51.60546875 51.578125 C65.86918021 48.1343578 79.2342505 50.92181026 92.125 57.625 C92.74375 58.07875 93.3625 58.5325 94 59 C94 59.66 94 60.32 94 61 C94.556875 61.226875 95.11375 61.45375 95.6875 61.6875 C98.66159588 63.37550036 100.72008865 65.46676517 103 68 C103 68.66 103 69.32 103 70 C103.66 70 104.32 70 105 70 C111.53414209 78.4976035 113.90556543 87.71925396 116 98 C116.19335938 98.78761719 116.38671875 99.57523437 116.5859375 100.38671875 C119.77576008 120.51871222 115.54838688 140.33371413 103.6875 156.875 C102.26171875 158.7421875 102.26171875 158.7421875 101 160 C100.34 160 99.68 160 99 160 C98.7834375 160.58652344 98.566875 161.17304688 98.34375 161.77734375 C94.34718054 168.38794847 84.31904042 171.60598602 77.15625 173.4921875 C76.4446875 173.65976562 75.733125 173.82734375 75 174 C74.08541016 174.27263672 74.08541016 174.27263672 73.15234375 174.55078125 C61.1902507 177.04740684 48.51825554 174.61157052 38.1875 168.25 C36.6096875 167.13625 36.6096875 167.13625 35 166 C35 167.98 35 169.96 35 172 C23.45 172 11.9 172 0 172 C0 115.24 0 58.48 0 0 Z M37 89 C34.93962697 92.09055955 34.75200758 92.70926162 34.77294922 96.19604492 C34.77310028 97.03668991 34.77325134 97.8773349 34.77340698 98.74345398 C34.78372955 99.64666885 34.79405212 100.54988373 34.8046875 101.48046875 C34.8075174 102.40845779 34.81034729 103.33644684 34.81326294 104.29255676 C34.82446164 107.25766879 34.84956565 110.22247921 34.875 113.1875 C34.8850302 115.19726126 34.89415598 117.20702726 34.90234375 119.21679688 C34.92439996 124.14464753 34.95892771 129.07227262 35 134 C35.66 134 36.32 134 37 134 C37.4021875 134.9590625 37.4021875 134.9590625 37.8125 135.9375 C38.88667752 138.33131686 38.88667752 138.33131686 42 139 C42 139.66 42 140.32 42 141 C49.45737243 144.4418642 56.9667638 145.6956892 64.921875 143.015625 C70.73146485 140.30525535 70.73146485 140.30525535 74 135 C74.66 135 75.32 135 76 135 C82.87749389 123.60751012 84.04163047 112.82257089 80.921875 99.9609375 C80.140755 97.45208599 79.27287279 95.28893791 78 93 C77.34 93 76.68 93 76 93 C75.773125 92.2575 75.54625 91.515 75.3125 90.75 C73.03806459 85.98451628 69.55416656 84.04422626 64.75 82.25 C53.99518223 79.0039356 45.05683125 81.32682738 37 89 Z " fill="#464547" transform="translate(291,109)"/>
<path d="M0 0 C0 0.66 0 1.32 0 2 C0.66 2 1.32 2 2 2 C2 2.66 2 3.32 2 4 C2.66 4 3.32 4 4 4 C7 8.38461538 7 8.38461538 7 11 C7.66 11 8.32 11 9 11 C14.72535211 24.85915493 14.72535211 24.85915493 15 32 C14 33 14 33 10.85717773 33.11352539 C9.46597303 33.11336633 8.07476239 33.10767506 6.68359375 33.09765625 C5.58701195 33.09553383 5.58701195 33.09553383 4.46827698 33.09336853 C2.12464368 33.08775408 -0.21889539 33.07519922 -2.5625 33.0625 C-4.14778508 33.05748686 -5.73307166 33.05292363 -7.31835938 33.04882812 C-11.2122761 33.03777997 -15.10612205 33.02050572 -19 33 C-19.26047119 32.45005371 -19.52094238 31.90010742 -19.78930664 31.33349609 C-20.3131897 30.25189209 -20.3131897 30.25189209 -20.84765625 29.1484375 C-21.19062744 28.43349121 -21.53359863 27.71854492 -21.88696289 26.98193359 C-23.9039223 23.39042746 -26.77470684 21.66232063 -30.3125 19.75 C-36.51288387 18.01966032 -41.49231498 18.49001395 -47.046875 21.6171875 C-52.80773977 25.69587976 -56.85389597 30.88172125 -58.5625 37.76953125 C-60.3108223 50.67901825 -60.74849778 64.61609035 -52.625 75.5 C-47.15396669 80.71050792 -41.42197478 82.16084775 -34 82 C-28.17788389 81.03307612 -24.81201831 78.30237653 -21.12890625 73.81640625 C-19.92219605 71.87481371 -19.50388126 70.21346816 -19 68 C-14.31860746 67.97534712 -9.63725241 67.95716261 -4.95581055 67.94506836 C-3.36205386 67.94002843 -1.76830181 67.9331965 -0.17456055 67.92456055 C2.11150253 67.91248001 4.39750467 67.90676845 6.68359375 67.90234375 C7.40026718 67.89718246 8.11694061 67.89202118 8.85533142 67.88670349 C10.57063672 67.88650737 12.28581266 67.93807993 14 68 C14.33 68.33 14.66 68.66 15 69 C14.65214466 78.0442388 11.15464771 87.57124301 6 95 C5.34 95 4.68 95 4 95 C4 95.66 4 96.32 4 97 C3.34 97 2.68 97 2 97 C2 97.66 2 98.32 2 99 C-4.2857516 104.52094532 -11.03775526 108.50358663 -19 111 C-19.65742187 111.22429687 -20.31484375 111.44859375 -20.9921875 111.6796875 C-36.16640824 115.98987471 -53.74565618 113.21227 -67.375 105.8125 C-73.03977344 102.2520031 -77.61638321 98.03438052 -82 93 C-82.49113281 92.43667969 -82.98226562 91.87335938 -83.48828125 91.29296875 C-92.6312032 79.65909593 -94.36088073 65.62134823 -94.375 51.375 C-94.41173828 49.45880859 -94.41173828 49.45880859 -94.44921875 47.50390625 C-94.48572673 35.49278037 -92.2243167 24.36401196 -85.75 14.125 C-85.38648438 13.52042969 -85.02296875 12.91585937 -84.6484375 12.29296875 C-83.78000847 10.85320484 -82.89230533 9.42508958 -82 8 C-81.34 8 -80.68 8 -80 8 C-79.62681641 7.12601563 -79.62681641 7.12601563 -79.24609375 6.234375 C-77.82428441 3.68492378 -76.25850689 2.16383841 -74.0625 0.25 C-73.02802734 -0.67039063 -73.02802734 -0.67039063 -71.97265625 -1.609375 C-70 -3 -70 -3 -67 -3 C-67 -3.66 -67 -4.32 -67 -5 C-44.54220264 -14.4902305 -20.35926562 -15.16115525 0 0 Z " fill="#4B4A4B" transform="translate(694,171)"/>
<path d="M0 0 C-0.94875 0.2475 -1.8975 0.495 -2.875 0.75 C-10.64460241 3.00365749 -16.96054385 5.56448946 -23 11 C-23.66 11 -24.32 11 -25 11 C-25 8.36 -25 5.72 -25 3 C-35.23 3 -45.46 3 -56 3 C-56 41.28 -56 79.56 -56 119 C-45.77 119 -35.54 119 -25 119 C-25.01571045 115.56231201 -25.01571045 115.56231201 -25.03173828 112.05517578 C-25.06483098 104.49550789 -25.08695083 96.93583686 -25.10362434 89.3761158 C-25.11407566 84.79123234 -25.12825935 80.20642289 -25.15087891 75.62158203 C-25.17255936 71.19957626 -25.18455846 66.77764181 -25.18975449 62.35558701 C-25.19345889 60.66582999 -25.20069237 58.97607702 -25.21146011 57.28635025 C-25.22591143 54.92535111 -25.22798064 52.5646493 -25.22705078 50.20361328 C-25.23424133 49.50014771 -25.24143188 48.79668213 -25.24884033 48.07189941 C-25.22810432 43.22810432 -25.22810432 43.22810432 -23 41 C-23 67.07 -23 93.14 -23 120 C-34.55 120 -46.1 120 -58 120 C-58 80.73 -58 41.46 -58 1 C-46.45 1 -34.9 1 -23 1 C-22.505 3.97 -22.505 3.97 -22 7 C-21.31035156 6.38769531 -20.62070312 5.77539062 -19.91015625 5.14453125 C-16.77420324 2.83360749 -14.15527975 1.80326472 -10.4375 0.6875 C-9.32246094 0.34074219 -8.20742188 -0.00601563 -7.05859375 -0.36328125 C-4.15385436 -0.96797157 -2.72643347 -1.03324496 0 0 Z " fill="#99999A" transform="translate(477,161)"/>
<path d="M0 0 C0.33 0 0.66 0 1 0 C1 56.43 1 112.86 1 171 C11.56 171 22.12 171 33 171 C33 168.03 33 165.06 33 162 C33.66 162 34.32 162 35 162 C35.62261719 162.64582031 35.62261719 162.64582031 36.2578125 163.3046875 C38.55139831 165.53656248 41.01251172 166.70446342 43.875 168.125 C44.90367187 168.64320313 45.93234375 169.16140625 46.9921875 169.6953125 C49.71108245 170.87467732 52.08265635 171.55863066 55 172 C55 172.66 55 173.32 55 174 C47.38355798 172.75140295 41.61172464 169.92995969 35 166 C35 167.98 35 169.96 35 172 C23.45 172 11.9 172 0 172 C0 115.24 0 58.48 0 0 Z " fill="#AAAAAB" transform="translate(291,109)"/>
<path d="M0 0 C0.33 0 0.66 0 1 0 C1.00586624 0.69855606 1.01173248 1.39711212 1.01777649 2.11683655 C1.07584704 8.72242042 1.14800501 15.32768581 1.23571491 21.93294621 C1.28031071 25.32823849 1.31958974 28.72341378 1.34643555 32.11889648 C1.37758682 36.02873986 1.43237176 39.93808551 1.48828125 43.84765625 C1.49467117 45.05833267 1.5010611 46.26900909 1.50764465 47.51637268 C1.629577 54.54282102 1.77973063 60.45770369 6.71875 65.890625 C7.60046875 66.56351563 7.60046875 66.56351563 8.5 67.25 C10.81959607 69.06091272 12.95458924 70.87975714 15 73 C10.61537866 72.49890042 8.1999003 71.01704885 5 68 C5 67.34 5 66.68 5 66 C4.34 66 3.68 66 3 66 C-0.65729291 58.04936323 -1.15078702 51.03054211 -1.1328125 42.34375 C-1.13376923 41.32325562 -1.13472595 40.30276123 -1.13571167 39.25134277 C-1.13639036 37.09969013 -1.13455781 34.9480354 -1.13037109 32.79638672 C-1.12501849 29.51134625 -1.13032667 26.22644249 -1.13671875 22.94140625 C-1.13605791 20.84635387 -1.13477664 18.75130157 -1.1328125 16.65625 C-1.13483673 15.67797241 -1.13686096 14.69969482 -1.13894653 13.69177246 C-1.12293869 9.01380058 -0.96925603 4.60083794 0 0 Z " fill="#FE8954" transform="translate(67,257)"/>
<path d="M0 0 C0.66 0 1.32 0 2 0 C2.33 19.47 2.66 38.94 3 59 C3.99 59 4.98 59 6 59 C4.71034824 60.37562854 3.37310707 61.70766393 2 63 C1.34 63 0.68 63 0 63 C0 42.21 0 21.42 0 0 Z " fill="#ABABAC" transform="translate(324,109)"/>
<path d="M0 0 C0.66 0.33 1.32 0.66 2 1 C1.04882866 2.1725131 0.08882991 3.33787015 -0.875 4.5 C-1.67550781 5.47453125 -1.67550781 5.47453125 -2.4921875 6.46875 C-2.98976563 6.9740625 -3.48734375 7.479375 -4 8 C-4.66 8 -5.32 8 -6 8 C-8.15386873 14.16308753 -8.34162873 19.90790126 -8.4140625 26.40234375 C-8.43342865 27.48004532 -8.4527948 28.55774689 -8.4727478 29.66810608 C-8.53225755 33.0911583 -8.57881456 36.51424466 -8.625 39.9375 C-8.66320608 42.26629025 -8.70225933 44.59506676 -8.7421875 46.92382812 C-8.83793547 52.61576299 -8.92306583 58.30778141 -9 64 C-9.99 64.495 -9.99 64.495 -11 65 C-11.04974337 58.77442567 -11.08588128 52.54896916 -11.10986328 46.32324219 C-11.11986979 44.20896385 -11.13347918 42.09469917 -11.15087891 39.98046875 C-11.17536388 36.92704886 -11.18653691 33.87381326 -11.1953125 30.8203125 C-11.20563507 29.88760529 -11.21595764 28.95489807 -11.22659302 27.993927 C-11.22787437 20.35833652 -10.69947081 12.81542773 -7 6 C-6.34 6 -5.68 6 -5 6 C-4.67 5.01 -4.34 4.02 -4 3 C-3.34 3 -2.68 3 -2 3 C-2 2.34 -2 1.68 -2 1 C-1.34 0.67 -0.68 0.34 0 0 Z " fill="#FEA075" transform="translate(77,64)"/>
<path d="M0 0 C0.66 0 1.32 0 2 0 C2.41507812 0.43054688 2.83015625 0.86109375 3.2578125 1.3046875 C5.55139831 3.53656248 8.01251172 4.70446342 10.875 6.125 C12.41800781 6.90230469 12.41800781 6.90230469 13.9921875 7.6953125 C16.71108245 8.87467732 19.08265635 9.55863066 22 10 C22 10.66 22 11.32 22 12 C14.38355798 10.75140295 8.61172464 7.92995969 2 4 C2 5.98 2 7.96 2 10 C-9.22 10 -20.44 10 -32 10 C-32 9.67 -32 9.34 -32 9 C-21.44 9 -10.88 9 0 9 C0 6.03 0 3.06 0 0 Z " fill="#909091" transform="translate(324,271)"/>
<path d="M0 0 C8.21097383 1.51912631 15.57993696 7.7467879 20.6953125 14.0859375 C23.52425406 18.23618111 24.29126672 22.04846574 24 27 C23.34 27 22.68 27 22 27 C21.85304687 26.12988281 21.85304687 26.12988281 21.703125 25.2421875 C20.20615022 17.42178476 17.40060509 12.84171846 11 8 C8.10531475 6.11318087 5.17111281 4.3023906 2.23046875 2.48828125 C1.49441406 1.99714844 0.75835937 1.50601563 0 1 C0 0.67 0 0.34 0 0 Z " fill="#FEA982" transform="translate(213,207)"/>
<path d="M0 0 C0.66 0.33 1.32 0.66 2 1 C-2.60136502 6.53601728 -7.46398272 11.39863498 -13 16 C-13 11.9666466 -11.39120082 10.16482462 -9 7 C-8.34 7 -7.68 7 -7 7 C-7 6.34 -7 5.68 -7 5 C-5.46875 3.7109375 -5.46875 3.7109375 -3.5 2.375 C-2.8503125 1.92898437 -2.200625 1.48296875 -1.53125 1.0234375 C-0.77328125 0.51683594 -0.77328125 0.51683594 0 0 Z " fill="#FE9260" transform="translate(88,227)"/>
<path d="M0 0 C10.64661195 3.92768269 20.54138635 10.82294619 30 17 C27 18 27 18 24.93457031 17.09130859 C24.15694336 16.61516113 23.37931641 16.13901367 22.578125 15.6484375 C21.71703125 15.12636719 20.8559375 14.60429688 19.96875 14.06640625 C19.0715625 13.50824219 18.174375 12.95007813 17.25 12.375 C16.36828125 11.84003906 15.4865625 11.30507812 14.578125 10.75390625 C9.57097135 7.69149531 4.68159787 4.54317653 0 1 C0 0.67 0 0.34 0 0 Z " fill="#FEB28E" transform="translate(163,101)"/>
<path d="M0 0 C-1.41669178 5.19453651 -4.92108191 8.66182883 -9 12 C-9.66 12 -10.32 12 -11 12 C-11.33 13.32 -11.66 14.64 -12 16 C-12.66 16 -13.32 16 -14 16 C-12.125 11.25 -12.125 11.25 -11 9 C-10.34 9 -9.68 9 -9 9 C-8.773125 8.443125 -8.54625 7.88625 -8.3125 7.3125 C-6.49644015 4.11277551 -3.9498923 0 0 0 Z " fill="#909091" transform="translate(623,170)"/>
<path d="M0 0 C0.66 0.33 1.32 0.66 2 1 C1.04882866 2.1725131 0.08882991 3.33787015 -0.875 4.5 C-1.67550781 5.47453125 -1.67550781 5.47453125 -2.4921875 6.46875 C-2.98976563 6.9740625 -3.48734375 7.479375 -4 8 C-4.66 8 -5.32 8 -6 8 C-6.99 11.3 -7.98 14.6 -9 18 C-9.33 18 -9.66 18 -10 18 C-9.14285714 9.42857143 -9.14285714 9.42857143 -7 6 C-6.34 6 -5.68 6 -5 6 C-4.67 5.01 -4.34 4.02 -4 3 C-3.34 3 -2.68 3 -2 3 C-2 2.34 -2 1.68 -2 1 C-1.34 0.67 -0.68 0.34 0 0 Z " fill="#FEA277" transform="translate(77,64)"/>
<path d="M0 0 C2 2 2 2 3.1875 5.25 C4.74433741 9.08221517 7.06270085 11.12789803 10.28125 13.640625 C11.987901 14.99043079 13.49061614 16.43539477 15 18 C10.61537866 17.49890042 8.1999003 16.01704885 5 13 C5 12.34 5 11.68 5 11 C4.34 11 3.68 11 3 11 C0 4.5 0 4.5 0 0 Z " fill="#FEAE89" transform="translate(67,312)"/>
<path d="M0 0 C0.99 0.33 1.98 0.66 3 1 C3 1.66 3 2.32 3 3 C4.2065625 3.309375 4.2065625 3.309375 5.4375 3.625 C10.110473 5.42860362 13.92616004 8.12115309 18 11 C17.01 11.495 17.01 11.495 16 12 C10.34158353 9.49426002 4.46946591 6.31534639 0 2 C0 1.34 0 0.68 0 0 Z " fill="#FEAD87" transform="translate(99,138)"/>
<path d="M0 0 C0 0.66 0 1.32 0 2 C-11.52164009 8.51936219 -11.52164009 8.51936219 -17 10 C-14.38772848 7.04185281 -11.33429693 5.28123892 -7.9375 3.3125 C-6.87402344 2.68988281 -5.81054688 2.06726563 -4.71484375 1.42578125 C-2 0 -2 0 0 0 Z " fill="#FEB390" transform="translate(117,211)"/>
<path d="M0 0 C3.39192363 0.59283621 5.2107757 1.76743189 7.75 4.0625 C8.67039062 4.88427734 8.67039062 4.88427734 9.609375 5.72265625 C10.29773438 6.35494141 10.29773438 6.35494141 11 7 C11.33 6.01 11.66 5.02 12 4 C12.66 4 13.32 4 14 4 C13.34 5.32 12.68 6.64 12 8 C7.44317123 8 6.94762913 7.50550311 3.75 4.5625 C3.04359375 3.92441406 2.3371875 3.28632813 1.609375 2.62890625 C0 1 0 1 0 0 Z " fill="#B7B7B7" transform="translate(504,166)"/>
<path d="M0 0 C4.46182436 1.31074365 7.99618757 3.07066011 11.875 5.625 C12.84179688 6.25664063 13.80859375 6.88828125 14.8046875 7.5390625 C15.52914062 8.02117187 16.25359375 8.50328125 17 9 C16.01 9.495 16.01 9.495 15 10 C12.56340474 8.80385323 10.26997589 7.56187014 7.9375 6.1875 C7.28716797 5.81818359 6.63683594 5.44886719 5.96679688 5.06835938 C1.1334707 2.26694139 1.1334707 2.26694139 0 0 Z " fill="#FEB391" transform="translate(132,115)"/>
<path d="M0 0 C0.99 0.33 1.98 0.66 3 1 C0.880788 2.36405618 -1.24448118 3.71631775 -3.375 5.0625 C-3.97828125 5.45244141 -4.5815625 5.84238281 -5.203125 6.24414062 C-6.76492557 7.22460432 -8.37992214 8.11916075 -10 9 C-10.66 8.67 -11.32 8.34 -12 8 C-8 5.33333333 -4 2.66666667 0 0 Z " fill="#FEB796" transform="translate(119,316)"/>
<path d="M0 0 C0.66 0.33 1.32 0.66 2 1 C0.25447936 2.15264553 -1.49660196 3.29687327 -3.25 4.4375 C-4.22453125 5.07558594 -5.1990625 5.71367187 -6.203125 6.37109375 C-8.58381615 7.7576136 -10.31780307 8.546581 -13 9 C-9.49391962 4.88416651 -4.95371163 2.09432982 0 0 Z " fill="#FEB28F" transform="translate(145,301)"/>
<path d="M0 0 C0.66 0.33 1.32 0.66 2 1 C0.25447936 2.15264553 -1.49660196 3.29687327 -3.25 4.4375 C-4.22453125 5.07558594 -5.1990625 5.71367187 -6.203125 6.37109375 C-8.58381615 7.7576136 -10.31780307 8.546581 -13 9 C-9.49391962 4.88416651 -4.95371163 2.09432982 0 0 Z " fill="#FEB28F" transform="translate(152,221)"/>
<path d="M0 0 C4.86967403 4.70175423 5.6572936 10.62214459 7 17 C6.34 17 5.68 17 5 17 C4.80664062 16.31292969 4.61328125 15.62585938 4.4140625 14.91796875 C4.15367187 14.01691406 3.89328125 13.11585938 3.625 12.1875 C3.36976563 11.29417969 3.11453125 10.40085938 2.8515625 9.48046875 C2.04733339 6.79532104 2.04733339 6.79532104 0 4 C0 2.68 0 1.36 0 0 Z " fill="#A4A4A5" transform="translate(399,186)"/>
<path d="M0 0 C1.32 0 2.64 0 4 0 C4 0.66 4 1.32 4 2 C4.9075 2.2475 5.815 2.495 6.75 2.75 C10.10351489 4.03981342 11.67708236 5.31971042 14 8 C10.0397381 7.43726296 7.47032673 6.26476935 4.1875 4 C3.39730469 3.46375 2.60710937 2.9275 1.79296875 2.375 C1.20128906 1.92125 0.60960937 1.4675 0 1 C0 0.67 0 0.34 0 0 Z " fill="#FEB593" transform="translate(189,149)"/>
<path d="M0 0 C0.99 0.33 1.98 0.66 3 1 C-1.296875 5.00390625 -1.296875 5.00390625 -3 6 C-5.203125 5.65234375 -5.203125 5.65234375 -7 5 C-5.90554162 4.13342884 -4.79902219 3.28207276 -3.6875 2.4375 C-3.07261719 1.96183594 -2.45773438 1.48617187 -1.82421875 0.99609375 C-1.22222656 0.66738281 -0.62023437 0.33867187 0 0 Z " fill="#FEB08C" transform="translate(198,237)"/>
<path d="M0 0 C0 0.66 0 1.32 0 2 C-1.65 2.33 -3.3 2.66 -5 3 C-5.33 3.99 -5.66 4.98 -6 6 C-7.32 5.67 -8.64 5.34 -10 5 C-8.71186658 4.16121545 -7.41936744 3.32913217 -6.125 2.5 C-5.40570313 2.0359375 -4.68640625 1.571875 -3.9453125 1.09375 C-2 0 -2 0 0 0 Z " fill="#FEAB85" transform="translate(147,269)"/>
<path d="M0 0 C0.66 0.33 1.32 0.66 2 1 C-2.296875 5.00390625 -2.296875 5.00390625 -4 6 C-6.203125 5.65234375 -6.203125 5.65234375 -8 5 C-6.71475739 4.13619741 -5.42157581 3.28419631 -4.125 2.4375 C-3.04605469 1.72400391 -3.04605469 1.72400391 -1.9453125 0.99609375 C-1.30335938 0.66738281 -0.66140625 0.33867187 0 0 Z " fill="#FEBA9A" transform="translate(182,171)"/>
<path d="M0 0 C2.475 0.495 2.475 0.495 5 1 C4.67 2.32 4.34 3.64 4 5 C2.68 4.67 1.36 4.34 0 4 C0 2.66666667 0 1.33333333 0 0 Z " fill="#FEA176" transform="translate(201,232)"/>
</svg>
