<?xml version="1.0" encoding="UTF-8"?>
<svg version="1.1" xmlns="http://www.w3.org/2000/svg" width="1875" height="1020">
<path d="M0 0 C8.55464365 6.56839305 14.49532831 16.27081249 20.3046875 25.2109375 C21.21266838 26.596297 21.21266838 26.596297 22.13899231 28.00964355 C24.0585442 30.93896044 25.97314541 33.87146228 27.88671875 36.8046875 C35.16562945 47.95527967 42.45250001 59.07035965 50.19494629 69.90576172 C56.0287664 78.10695021 61.51349743 86.53744219 67.0234375 94.95803833 C70.22422563 99.84807888 73.43602303 104.7308732 76.6484375 109.61328125 C77.58579239 111.03809059 77.58579239 111.03809059 78.54208374 112.49168396 C84.30996534 121.24960693 90.18750268 129.92754289 96.109375 138.58203125 C102.32628449 147.67003812 108.47944876 156.80121613 114.63671875 165.9296875 C115.26094727 166.85500275 115.88517578 167.78031799 116.52832031 168.7336731 C125.82830165 182.52315102 135.07629861 196.34638186 144.28897095 210.19430542 C153.52812069 224.0799872 162.84125365 237.91463864 172.17724609 251.73535156 C180.88052317 264.62108155 189.53722947 277.53636743 198.14849854 290.48373413 C206.44754583 302.95878954 214.81255993 315.38838962 223.19921875 327.8046875 C232.55962482 341.66260071 241.87886145 355.5463211 251.13989258 369.4708252 C260.83651386 384.04690434 270.61707026 398.5658051 280.42724609 413.06567383 C285.65923718 420.80263817 290.88260409 428.54219694 295.98828125 436.36328125 C296.37240173 436.94951263 296.75652222 437.53574402 297.15228271 438.13973999 C298.85509398 440.73864199 300.54835318 443.34257049 302.22265625 445.95996094 C303.06570313 447.25015137 303.06570313 447.25015137 303.92578125 448.56640625 C304.39580566 449.29819092 304.86583008 450.02997559 305.35009766 450.78393555 C306.0179126 451.53670776 306.0179126 451.53670776 306.69921875 452.3046875 C310.55486056 452.3046875 312.5762696 451.00563775 316 449.2265625 C316.62367966 448.90423645 317.24735931 448.5819104 317.88993835 448.24981689 C319.9338454 447.19102021 321.97283238 446.12311615 324.01171875 445.0546875 C325.43409785 444.31482161 326.85662509 443.57524044 328.27929688 442.8359375 C337.00178808 438.29232913 345.65919758 433.64004171 354.26879883 428.88574219 C362.83631674 424.17680505 371.53088538 419.72467469 380.22900391 415.26367188 C388.44526182 411.0473559 396.6146276 406.77022798 404.69921875 402.3046875 C414.1154547 397.10361028 423.65839824 392.17214705 433.22900391 387.26367188 C441.44526182 383.0473559 449.6146276 378.77022798 457.69921875 374.3046875 C467.1154547 369.10361028 476.65839824 364.17214705 486.22900391 359.26367188 C494.44526182 355.0473559 502.6146276 350.77022798 510.69921875 346.3046875 C520.1154547 341.10361028 529.65839824 336.17214705 539.22900391 331.26367188 C547.44526182 327.0473559 555.6146276 322.77022798 563.69921875 318.3046875 C573.1154547 313.10361028 582.65839824 308.17214705 592.22900391 303.26367188 C600.44526182 299.0473559 608.6146276 294.77022798 616.69921875 290.3046875 C626.1154547 285.10361028 635.65839824 280.17214705 645.22900391 275.26367188 C653.44526182 271.0473559 661.6146276 266.77022798 669.69921875 262.3046875 C679.1154547 257.10361028 688.65839824 252.17214705 698.22900391 247.26367188 C706.44526182 243.0473559 714.6146276 238.77022798 722.69921875 234.3046875 C732.1154547 229.10361028 741.65839824 224.17214705 751.22900391 219.26367188 C759.44526182 215.0473559 767.6146276 210.77022798 775.69921875 206.3046875 C785.1154547 201.10361028 794.65839824 196.17214705 804.22900391 191.26367188 C812.44527193 187.04735071 820.61446652 182.76995126 828.69921875 178.3046875 C837.66225627 173.35761208 846.7244923 168.61886531 855.82421875 163.9296875 C856.47825684 163.59243652 857.13229492 163.25518555 857.80615234 162.90771484 C860.92659585 161.29987977 864.04941102 159.69690782 867.17675781 158.10253906 C869.49505624 156.91928777 871.80963543 155.7287163 874.12011719 154.53027344 C875.17489258 153.98918945 876.22966797 153.44810547 877.31640625 152.890625 C878.69868408 152.17592041 878.69868408 152.17592041 880.10888672 151.44677734 C887.12882269 148.35165383 894.2987198 148.60040973 901.42578125 151.203125 C907.25604046 154.02809596 912.49444529 158.74902444 915.06640625 164.7734375 C917.26903912 173.58396899 916.49278796 182.26861257 913.30859375 190.68359375 C913.04791107 191.39652588 912.78722839 192.10945801 912.51864624 192.84399414 C908.75969007 203.01445742 904.74654697 213.09219602 900.75958252 223.17477417 C899.29192113 226.88636543 897.82769278 230.59929295 896.36474609 234.31274414 C895.86795303 235.57368571 895.37115737 236.83462626 894.87435913 238.0955658 C894.62874615 238.71898298 894.38313316 239.34240017 894.13007736 239.98470879 C893.38825096 241.86720553 892.64603878 243.74954973 891.90371704 245.6318512 C887.68709819 256.32618784 883.49824898 267.03116819 879.32421875 277.7421875 C878.68181721 279.38997935 878.03940189 281.03776582 877.39697266 282.68554688 C876.13189567 285.9307233 874.86713419 289.17602249 873.60253906 292.42138672 C870.63962339 300.02439424 867.67219067 307.62563942 864.70526123 315.2270813 C863.03641087 319.50288387 861.36782782 323.77879076 859.69921875 328.0546875 C859.03255338 329.76302134 858.36588671 331.47135467 857.69921875 333.1796875 C857.36921875 334.0253125 857.03921875 334.8709375 856.69921875 335.7421875 C789.69921886 507.42968722 789.69921886 507.42968722 788.69918823 509.99226379 C788.03262157 511.70034214 787.36605663 513.40842116 786.69949341 515.11650085 C785.03131083 519.39124098 783.36309819 523.66596937 781.69482422 527.94067383 C778.71288491 535.58153568 775.73113874 543.22247254 772.75054932 550.86386108 C765.03070448 570.65529928 757.29977618 590.44235347 749.55627441 610.22454834 C742.24697182 628.89810036 734.95414689 647.57804966 727.66699219 666.26025391 C724.67931971 673.9195766 721.69021118 681.57833891 718.70123291 689.2371521 C717.03383812 693.50964176 715.3665329 697.78216637 713.69921875 702.0546875 C713.03255251 703.763021 712.36588585 705.47135433 711.69921875 707.1796875 C711.36921875 708.0253125 711.03921875 708.8709375 710.69921875 709.7421875 C659.69921876 840.42968747 659.69921876 840.42968747 658.69937134 842.99177551 C658.0321771 844.70147474 657.36500183 846.41118138 656.69784546 848.12089539 C655.03940548 852.37089114 653.38064455 856.62076106 651.72119141 860.87036133 C648.62281005 868.80582838 645.52758454 876.74248319 642.44329834 884.68344116 C641.0016647 888.39457766 639.55826858 892.10502756 638.11474609 895.81542969 C637.43353106 897.56785615 636.75315965 899.32061085 636.07373047 901.07373047 C623.90365993 932.47385722 623.90365993 932.47385722 614.69921875 944.3046875 C614.24240723 944.89314453 613.7855957 945.48160156 613.31494141 946.08789062 C595.91576706 968.15398492 571.40184267 980.99111426 543.69921875 984.3046875 C540.23247902 984.62381782 536.76132042 984.87017745 533.2890625 985.12109375 C521.85642278 985.99431785 510.4516851 987.08442364 499.04296875 988.22265625 C497.22532123 988.40354209 495.40766876 988.58437832 493.5900116 988.76516724 C492.20729332 988.90271392 492.20729332 988.90271392 490.79664135 989.04303932 C489.86053681 989.1361508 488.92443228 989.22926228 487.95996094 989.32519531 C487.00988568 989.41974188 486.05981043 989.51428844 485.08094501 989.61170006 C394.84691519 998.58057576 304.46528133 1005.13528546 213.88636017 1009.36648941 C211.30593128 1009.48719574 208.72556504 1009.6091747 206.14520264 1009.73129272 C195.66168425 1010.22411657 185.17672827 1010.66310826 174.68948364 1011.06869507 C170.62298923 1011.22659428 166.55714828 1011.39556882 162.49142456 1011.57217407 C106.63889614 1013.96962919 50.73661438 1013.64680806 -5.15518393 1013.61933746 C-15.526909 1013.61451218 -25.89855389 1013.62313091 -36.27026367 1013.64086914 C-102.99788041 1013.75257069 -169.62723929 1013.243995 -236.30078125 1010.3046875 C-238.0547396 1010.22782813 -239.80869798 1010.15096963 -241.5626564 1010.07411194 C-246.8897992 1009.84000387 -252.21679382 1009.60268428 -257.54370117 1009.36328125 C-258.3506921 1009.32703046 -259.15768303 1009.29077967 -259.98912823 1009.25343037 C-275.33258532 1008.56093646 -290.67211531 1007.78522583 -306.00585938 1006.90234375 C-306.82993538 1006.85508652 -307.65401138 1006.80782928 -308.50305939 1006.75914001 C-391.92462326 1001.94615473 -475.16355342 995.16148279 -558.27580261 986.5402832 C-564.39097333 985.90632209 -570.50577191 985.27680924 -576.62768555 984.71044922 C-592.70263581 983.21967407 -592.70263581 983.21967407 -600.11328125 981.0546875 C-600.88551025 980.83925293 -601.65773926 980.62381836 -602.45336914 980.40185547 C-618.78773298 975.6954864 -633.4524244 968.58410309 -646.30078125 957.3046875 C-647.44160156 956.30695313 -647.44160156 956.30695313 -648.60546875 955.2890625 C-665.10979744 939.86979348 -671.56583861 917.26781539 -679.55078125 896.8046875 C-680.43989142 894.53116679 -681.3292181 892.25773074 -682.21875 889.984375 C-684.03702714 885.33641327 -685.85405584 880.68796672 -687.66992188 876.0390625 C-690.08104998 869.86629301 -692.49490217 863.69459361 -694.91015625 857.5234375 C-695.27529327 856.59046341 -695.6404303 855.65748932 -696.01663208 854.69624329 C-696.74702141 852.83001388 -697.4774189 850.96378766 -698.20782471 849.0975647 C-699.30984565 846.28152485 -700.41155927 843.46536495 -701.51318359 840.64916992 C-709.58531329 820.01443598 -717.67708555 799.38741011 -725.76855469 778.76025391 C-729.53067912 769.16949875 -733.29169774 759.57830995 -737.05279541 749.9871521 C-739.13541165 744.67631264 -741.21810012 739.36550151 -743.30078125 734.0546875 C-744.13411493 731.92968764 -744.96744826 729.80468764 -745.80078125 727.6796875 C-746.41953125 726.101875 -746.41953125 726.101875 -747.05078125 724.4921875 C-830.80078131 510.92968734 -830.80078131 510.92968734 -832.05075073 507.74226379 C-832.88418441 505.61700894 -833.71761947 503.49175463 -834.55105591 501.36650085 C-836.63286534 496.05790459 -838.71465083 490.74929893 -840.79638672 485.44067383 C-844.56454746 475.8315737 -848.33288821 466.22254435 -852.10211182 456.61386108 C-860.87968856 434.23760532 -869.65170829 411.85920642 -878.40783691 389.47454834 C-886.84817645 367.89792566 -895.30777707 346.32886876 -903.76855469 324.76025391 C-906.28227881 318.35203615 -908.79551281 311.94362626 -911.30859375 305.53515625 C-911.92714737 303.9578347 -911.92714737 303.9578347 -912.55819702 302.34864807 C-914.63315049 297.05742799 -916.7080001 291.76616721 -918.78271484 286.47485352 C-922.60542593 276.7257901 -926.42897104 266.9770568 -930.2558136 257.22961426 C-946.47443786 215.91863326 -946.47443786 215.91863326 -953.48828125 197.8046875 C-953.73739258 197.16180786 -953.98650391 196.51892822 -954.24316406 195.85656738 C-961.56094589 176.96178734 -961.56094589 176.96178734 -958.46484375 166.47265625 C-955.36926718 159.71017187 -950.66526221 154.46871228 -943.9609375 151.14453125 C-940.79336716 150.14449069 -938.06021326 149.93143419 -934.73828125 149.8671875 C-933.62324219 149.82722656 -932.50820313 149.78726563 -931.359375 149.74609375 C-921.25823087 150.49243864 -911.1983797 157.25522658 -902.42578125 161.8671875 C-901.23415482 162.48929687 -900.04242099 163.11120057 -898.85058594 163.73291016 C-890.82318895 167.93089456 -882.86521464 172.24996117 -874.93212891 176.62329102 C-866.2952951 181.36039747 -857.53634699 185.85017191 -848.77209473 190.34515381 C-839.68205395 195.00985946 -830.6706884 199.78625624 -821.7265625 204.7265625 C-813.82638142 209.06757781 -805.82093481 213.19139248 -797.80078125 217.3046875 C-788.03290368 222.31433748 -778.33663919 227.41841696 -768.7265625 232.7265625 C-760.82638036 237.06757839 -752.82092421 241.19136998 -744.80078125 245.3046875 C-734.98654127 250.33824082 -725.24297735 255.46583942 -715.5859375 260.796875 C-708.05919557 264.93379538 -700.43922232 268.87971382 -692.80078125 272.8046875 C-684.28409025 277.18094539 -675.80939871 281.61412718 -667.42578125 286.2421875 C-657.96719568 291.46218886 -648.3832707 296.41583079 -638.77154541 301.34542847 C-629.68168886 306.0100432 -620.67050849 310.78635561 -611.7265625 315.7265625 C-603.82638142 320.06757781 -595.82093481 324.19139248 -587.80078125 328.3046875 C-578.03290368 333.31433748 -568.33663919 338.41841696 -558.7265625 343.7265625 C-550.82638142 348.06757781 -542.82093481 352.19139248 -534.80078125 356.3046875 C-525.03290368 361.31433748 -515.33663919 366.41841696 -505.7265625 371.7265625 C-497.82638036 376.06757839 -489.82092421 380.19136998 -481.80078125 384.3046875 C-471.98654127 389.33824082 -462.24297735 394.46583942 -452.5859375 399.796875 C-445.05919557 403.93379538 -437.43922232 407.87971382 -429.80078125 411.8046875 C-421.2840816 416.18094984 -412.80956414 420.61441529 -404.42578125 425.2421875 C-395.42030129 430.20843228 -386.3167234 434.96913368 -377.17578125 439.6796875 C-376.52192444 440.01684784 -375.86806763 440.35400818 -375.19439697 440.7013855 C-366.92588203 444.96180422 -358.63086643 449.16576713 -350.30078125 453.3046875 C-349.97077621 452.8023056 -349.64077118 452.29992371 -349.30076599 451.78231812 C-342.42310585 441.31375989 -335.53812214 430.8500313 -328.640625 420.39453125 C-328.02086288 419.45398895 -327.40110077 418.51344666 -326.76255798 417.54440308 C-321.41494524 409.44288955 -315.9802403 401.40251562 -310.4765625 393.40625 C-304.25802685 384.34786786 -298.13102619 375.22703827 -291.98828125 366.1171875 C-291.34761719 365.16721893 -290.70695313 364.21725037 -290.046875 363.23849487 C-282.08320802 351.4278589 -274.14627183 339.60057239 -266.26196289 327.73681641 C-259.19885057 317.12226897 -252.06049131 306.55869128 -244.92578125 295.9921875 C-236.68355334 283.78537022 -228.45421987 271.57101596 -220.30078125 259.3046875 C-211.56083719 246.15604809 -202.7315227 233.06843868 -193.89599609 219.98388672 C-185.94143995 208.20262162 -178.0141506 196.40452357 -170.14508057 184.56600952 C-161.74386734 171.93071346 -153.25218353 159.3568376 -144.76123047 146.78173828 C-137.57792325 136.14232894 -130.40595645 125.49646263 -123.30078125 114.8046875 C-114.93758088 102.21985248 -106.4805279 89.6989061 -98.02435303 77.17642212 C-90.53521034 66.0847648 -83.0642499 54.98192651 -75.65365601 43.83761597 C-74.4428301 42.01781099 -73.230212 40.19921548 -72.0168457 38.38110352 C-71.63006149 37.80150375 -71.24327728 37.22190399 -70.84477234 36.6247406 C-70.08710454 35.4894207 -69.32938482 34.35413546 -68.5716095 33.21888733 C-66.05370636 29.44337206 -63.55648232 25.6546235 -61.0625 21.86328125 C-59.74663702 19.88505519 -58.43026238 17.90716934 -57.11328125 15.9296875 C-56.54947754 15.06174561 -55.98567383 14.19380371 -55.40478516 13.29956055 C-48.64718571 3.22326454 -40.7252611 -3.53493173 -28.76171875 -6.27734375 C-18.5885037 -8.00517551 -8.52568663 -5.84519692 0 0 Z " fill="#FF4B4B" transform="translate(959.30078125,6.6953125)"/>
<path d="M0 0 C8.55464365 6.56839305 14.49532831 16.27081249 20.3046875 25.2109375 C21.21266838 26.596297 21.21266838 26.596297 22.13899231 28.00964355 C24.0585442 30.93896044 25.97314541 33.87146228 27.88671875 36.8046875 C35.16562945 47.95527967 42.45250001 59.07035965 50.19494629 69.90576172 C56.0287664 78.10695021 61.51349743 86.53744219 67.0234375 94.95803833 C70.22422563 99.84807888 73.43602303 104.7308732 76.6484375 109.61328125 C77.27334076 110.56315414 77.89824402 111.51302704 78.54208374 112.49168396 C84.30996534 121.24960693 90.18750268 129.92754289 96.109375 138.58203125 C102.32628449 147.67003812 108.47944876 156.80121613 114.63671875 165.9296875 C115.26094727 166.85500275 115.88517578 167.78031799 116.52832031 168.7336731 C125.82830165 182.52315102 135.07629861 196.34638186 144.28897095 210.19430542 C153.52812069 224.0799872 162.84125365 237.91463864 172.17724609 251.73535156 C180.88052317 264.62108155 189.53722947 277.53636743 198.14849854 290.48373413 C206.44754583 302.95878954 214.81255993 315.38838962 223.19921875 327.8046875 C232.55962482 341.66260071 241.87886145 355.5463211 251.13989258 369.4708252 C260.83651386 384.04690434 270.61707026 398.5658051 280.42724609 413.06567383 C285.65923718 420.80263817 290.88260409 428.54219694 295.98828125 436.36328125 C296.37240173 436.94951263 296.75652222 437.53574402 297.15228271 438.13973999 C298.85509398 440.73864199 300.54835318 443.34257049 302.22265625 445.95996094 C303.06570313 447.25015137 303.06570313 447.25015137 303.92578125 448.56640625 C304.39580566 449.29819092 304.86583008 450.02997559 305.35009766 450.78393555 C306.0179126 451.53670776 306.0179126 451.53670776 306.69921875 452.3046875 C310.55486056 452.3046875 312.5762696 451.00563775 316 449.2265625 C316.62367966 448.90423645 317.24735931 448.5819104 317.88993835 448.24981689 C319.9338454 447.19102021 321.97283238 446.12311615 324.01171875 445.0546875 C325.43409785 444.31482161 326.85662509 443.57524044 328.27929688 442.8359375 C337.00178808 438.29232913 345.65919758 433.64004171 354.26879883 428.88574219 C362.83631674 424.17680505 371.53088538 419.72467469 380.22900391 415.26367188 C388.44526182 411.0473559 396.6146276 406.77022798 404.69921875 402.3046875 C414.1154547 397.10361028 423.65839824 392.17214705 433.22900391 387.26367188 C441.44526182 383.0473559 449.6146276 378.77022798 457.69921875 374.3046875 C467.1154547 369.10361028 476.65839824 364.17214705 486.22900391 359.26367188 C494.44526182 355.0473559 502.6146276 350.77022798 510.69921875 346.3046875 C520.1154547 341.10361028 529.65839824 336.17214705 539.22900391 331.26367188 C547.44526182 327.0473559 555.6146276 322.77022798 563.69921875 318.3046875 C573.1154547 313.10361028 582.65839824 308.17214705 592.22900391 303.26367188 C600.44526182 299.0473559 608.6146276 294.77022798 616.69921875 290.3046875 C626.1154547 285.10361028 635.65839824 280.17214705 645.22900391 275.26367188 C653.44526182 271.0473559 661.6146276 266.77022798 669.69921875 262.3046875 C679.1154547 257.10361028 688.65839824 252.17214705 698.22900391 247.26367188 C706.44526182 243.0473559 714.6146276 238.77022798 722.69921875 234.3046875 C732.1154547 229.10361028 741.65839824 224.17214705 751.22900391 219.26367188 C759.44526182 215.0473559 767.6146276 210.77022798 775.69921875 206.3046875 C785.1154547 201.10361028 794.65839824 196.17214705 804.22900391 191.26367188 C812.44527193 187.04735071 820.61446652 182.76995126 828.69921875 178.3046875 C837.66225627 173.35761208 846.7244923 168.61886531 855.82421875 163.9296875 C856.47825684 163.59243652 857.13229492 163.25518555 857.80615234 162.90771484 C860.92659585 161.29987977 864.04941102 159.69690782 867.17675781 158.10253906 C869.49505624 156.91928777 871.80963543 155.7287163 874.12011719 154.53027344 C875.17489258 153.98918945 876.22966797 153.44810547 877.31640625 152.890625 C878.69868408 152.17592041 878.69868408 152.17592041 880.10888672 151.44677734 C887.12882269 148.35165383 894.2987198 148.60040973 901.42578125 151.203125 C907.25604046 154.02809596 912.49444529 158.74902444 915.06640625 164.7734375 C917.26903912 173.58396899 916.49278796 182.26861257 913.30859375 190.68359375 C913.04791107 191.39652588 912.78722839 192.10945801 912.51864624 192.84399414 C908.75969007 203.01445742 904.74654697 213.09219602 900.75958252 223.17477417 C899.29192113 226.88636543 897.82769278 230.59929295 896.36474609 234.31274414 C895.86795303 235.57368571 895.37115737 236.83462626 894.87435913 238.0955658 C894.62874615 238.71898298 894.38313316 239.34240017 894.13007736 239.98470879 C893.38825096 241.86720553 892.64603878 243.74954973 891.90371704 245.6318512 C887.68709819 256.32618784 883.49824898 267.03116819 879.32421875 277.7421875 C878.68181721 279.38997935 878.03940189 281.03776582 877.39697266 282.68554688 C876.13189567 285.9307233 874.86713419 289.17602249 873.60253906 292.42138672 C870.63962339 300.02439424 867.67219067 307.62563942 864.70526123 315.2270813 C863.03641087 319.50288387 861.36782782 323.77879076 859.69921875 328.0546875 C859.03255338 329.76302134 858.36588671 331.47135467 857.69921875 333.1796875 C857.36921875 334.0253125 857.03921875 334.8709375 856.69921875 335.7421875 C789.69921876 507.42968746 789.69921876 507.42968746 788.69918823 509.99226379 C788.03262157 511.70034214 787.36605663 513.40842116 786.69949341 515.11650085 C785.03131083 519.39124098 783.36309819 523.66596937 781.69482422 527.94067383 C778.71288491 535.58153568 775.73113874 543.22247254 772.75054932 550.86386108 C765.03070448 570.65529928 757.29977618 590.44235347 749.55627441 610.22454834 C742.24697182 628.89810036 734.95414689 647.57804966 727.66699219 666.26025391 C724.67931971 673.9195766 721.69021118 681.57833891 718.70123291 689.2371521 C717.03383812 693.50964176 715.3665329 697.78216637 713.69921875 702.0546875 C713.03255251 703.763021 712.36588585 705.47135433 711.69921875 707.1796875 C711.36921875 708.0253125 711.03921875 708.8709375 710.69921875 709.7421875 C659.69921876 840.42968747 659.69921876 840.42968747 658.69937134 842.99177551 C658.0321771 844.70147474 657.36500183 846.41118138 656.69784546 848.12089539 C655.03940548 852.37089114 653.38064455 856.62076106 651.72119141 860.87036133 C648.62281005 868.80582838 645.52758454 876.74248319 642.44329834 884.68344116 C641.0016647 888.39457766 639.55826858 892.10502756 638.11474609 895.81542969 C637.43353106 897.56785615 636.75315965 899.32061085 636.07373047 901.07373047 C627.5362903 923.10126948 618.47079774 940.50495283 602.69921875 958.3046875 C598.37921239 957.68265091 595.06356935 956.13561229 591.203125 954.12890625 C590.58227524 953.80799515 589.96142548 953.48708405 589.32176208 953.15644836 C587.29836105 952.1080709 585.27998319 951.05041521 583.26171875 949.9921875 C581.84846271 949.25686268 580.43504976 948.52183935 579.02148438 947.78710938 C570.33162571 943.25939091 561.70701963 938.62218978 553.12915039 933.88549805 C545.22803987 929.54276397 537.22082463 925.41872737 529.19921875 921.3046875 C519.43134118 916.29503752 509.73507669 911.19095804 500.125 905.8828125 C492.22481786 901.54179661 484.21936171 897.41800502 476.19921875 893.3046875 C466.38497877 888.27113418 456.64141485 883.14353558 446.984375 877.8125 C439.45763307 873.67557962 431.83765982 869.72966118 424.19921875 865.8046875 C415.68252775 861.42842961 407.20783621 856.99524782 398.82421875 852.3671875 C389.36563318 847.14718614 379.7817082 842.19354421 370.16998291 837.26394653 C361.08012636 832.5993318 352.06894599 827.82301939 343.125 822.8828125 C335.22481892 818.54179719 327.21937231 814.41798252 319.19921875 810.3046875 C309.43134118 805.29503752 299.73507669 800.19095804 290.125 794.8828125 C282.22481892 790.54179719 274.21937231 786.41798252 266.19921875 782.3046875 C256.43134118 777.29503752 246.73507669 772.19095804 237.125 766.8828125 C229.22481892 762.54179719 221.21937231 758.41798252 213.19921875 754.3046875 C203.43134118 749.29503752 193.73507669 744.19095804 184.125 738.8828125 C176.22481786 734.54179661 168.21936171 730.41800502 160.19921875 726.3046875 C150.38497877 721.27113418 140.64141485 716.14353558 130.984375 710.8125 C123.45763307 706.67557962 115.83765982 702.72966118 108.19921875 698.8046875 C99.68252775 694.42842961 91.20783621 689.99524782 82.82421875 685.3671875 C73.36563318 680.14718614 63.7817082 675.19354421 54.16998291 670.26394653 C45.08012636 665.5993318 36.06894599 660.82301939 27.125 655.8828125 C19.22481892 651.54179719 11.21937231 647.41798252 3.19921875 643.3046875 C-6.56865882 638.29503752 -16.26492331 633.19095804 -25.875 627.8828125 C-33.77518214 623.54179661 -41.78063829 619.41800502 -49.80078125 615.3046875 C-59.61502123 610.27113418 -69.35858515 605.14353558 -79.015625 599.8125 C-86.54236693 595.67557962 -94.16234018 591.72966118 -101.80078125 587.8046875 C-110.31747225 583.42842961 -118.79216379 578.99524782 -127.17578125 574.3671875 C-136.63436682 569.14718614 -146.2182918 564.19354421 -155.83001709 559.26394653 C-164.91987364 554.5993318 -173.93105401 549.82301939 -182.875 544.8828125 C-190.77518108 540.54179719 -198.78062769 536.41798252 -206.80078125 532.3046875 C-216.56865882 527.29503752 -226.26492331 522.19095804 -235.875 516.8828125 C-243.77518214 512.54179661 -251.78063829 508.41800502 -259.80078125 504.3046875 C-269.61502123 499.27113418 -279.35858515 494.14353558 -289.015625 488.8125 C-296.54241791 484.6755516 -304.16294078 480.73090168 -311.80078125 476.8046875 C-320.88358759 472.13070494 -329.94191598 467.41718198 -338.92578125 462.5546875 C-340.29379883 461.82088867 -340.29379883 461.82088867 -341.68945312 461.07226562 C-342.93952148 460.39067383 -342.93952148 460.39067383 -344.21484375 459.6953125 C-345.29693115 459.1079834 -345.29693115 459.1079834 -346.40087891 458.50878906 C-348.32727828 457.28789447 -349.71959575 455.93565514 -351.30078125 454.3046875 C-350.97299683 453.8192749 -350.6452124 453.3338623 -350.30749512 452.83374023 C-332.23577788 426.11507664 -332.23577788 426.11507664 -314.30078125 399.3046875 C-306.899788 388.16181662 -299.4106621 377.07880132 -291.92578125 365.9921875 C-284.02058846 354.2829322 -276.12021606 342.57143316 -268.30078125 330.8046875 C-260.5644162 319.16308837 -252.74769117 307.57643409 -244.92578125 295.9921875 C-236.68355334 283.78537022 -228.45421987 271.57101596 -220.30078125 259.3046875 C-211.56083719 246.15604809 -202.7315227 233.06843868 -193.89599609 219.98388672 C-185.94143995 208.20262162 -178.0141506 196.40452357 -170.14508057 184.56600952 C-161.74386734 171.93071346 -153.25218353 159.3568376 -144.76123047 146.78173828 C-137.57792325 136.14232894 -130.40595645 125.49646263 -123.30078125 114.8046875 C-114.93758088 102.21985248 -106.4805279 89.6989061 -98.02435303 77.17642212 C-90.53521034 66.0847648 -83.0642499 54.98192651 -75.65365601 43.83761597 C-74.4428301 42.01781099 -73.230212 40.19921548 -72.0168457 38.38110352 C-71.63006149 37.80150375 -71.24327728 37.22190399 -70.84477234 36.6247406 C-70.08710454 35.4894207 -69.32938482 34.35413546 -68.5716095 33.21888733 C-66.05370636 29.44337206 -63.55648232 25.6546235 -61.0625 21.86328125 C-59.74663702 19.88505519 -58.43026238 17.90716934 -57.11328125 15.9296875 C-56.54947754 15.06174561 -55.98567383 14.19380371 -55.40478516 13.29956055 C-48.64718571 3.22326454 -40.7252611 -3.53493173 -28.76171875 -6.27734375 C-18.5885037 -8.00517551 -8.52568663 -5.84519692 0 0 Z " fill="#BD4043" transform="translate(959.30078125,6.6953125)"/>
<path d="M0 0 C5.97870911 4.86742489 9.24440857 9.28087002 10.234375 16.9921875 C10.55614713 24.09915448 9.93349048 30.20287076 7.3984375 36.90234375 C7.00741348 37.97174194 7.00741348 37.97174194 6.60848999 39.06274414 C2.84953382 49.23320742 -1.16360928 59.31094602 -5.15057373 69.39352417 C-6.61823512 73.10511543 -8.08246347 76.81804295 -9.54541016 80.53149414 C-10.04220322 81.79243571 -10.53899888 83.05337626 -11.03579712 84.3143158 C-11.2814101 84.93773298 -11.52702309 85.56115017 -11.78007889 86.20345879 C-12.52190529 88.08595553 -13.26411747 89.96829973 -14.00643921 91.8506012 C-18.22305806 102.54493784 -22.41190727 113.24991819 -26.5859375 123.9609375 C-27.22833904 125.60872935 -27.87075436 127.25651582 -28.51318359 128.90429688 C-29.77826058 132.1494733 -31.04302206 135.39477249 -32.30761719 138.64013672 C-35.27053286 146.24314424 -38.23796558 153.84438942 -41.20489502 161.4458313 C-42.87374538 165.72163387 -44.54232843 169.99754076 -46.2109375 174.2734375 C-46.87760287 175.98177134 -47.54426954 177.69010467 -48.2109375 179.3984375 C-48.5409375 180.2440625 -48.8709375 181.0896875 -49.2109375 181.9609375 C-116.21093739 353.64843723 -116.21093739 353.64843723 -117.21096802 356.21101379 C-117.87753468 357.91909214 -118.54409962 359.62717116 -119.21066284 361.33525085 C-120.87884542 365.60999098 -122.54705806 369.88471937 -124.21533203 374.15942383 C-127.19727134 381.80028568 -130.17901751 389.44122254 -133.15960693 397.08261108 C-140.87945177 416.87404928 -148.61038007 436.66110347 -156.35388184 456.44329834 C-163.66318443 475.11685036 -170.95600936 493.79679966 -178.24316406 512.47900391 C-181.23083654 520.1383266 -184.21994507 527.79708891 -187.20892334 535.4559021 C-188.87631813 539.72839176 -190.54362335 544.00091637 -192.2109375 548.2734375 C-192.87760374 549.981771 -193.5442704 551.69010433 -194.2109375 553.3984375 C-194.5409375 554.2440625 -194.8709375 555.0896875 -195.2109375 555.9609375 C-246.21093752 686.64843755 -246.21093752 686.64843755 -247.21075439 689.21046448 C-247.87803486 690.92037321 -248.54531187 692.63028329 -249.21258545 694.3401947 C-250.86983288 698.58693545 -252.52713847 702.83365348 -254.18457031 707.08032227 C-257.29690401 715.05492066 -260.40864151 723.02975027 -263.51843262 731.00534058 C-264.98049467 734.75494758 -266.44287222 738.50443151 -267.90527344 742.25390625 C-268.59944129 744.03395554 -269.29345613 745.81406451 -269.98730469 747.59423828 C-276.88467675 765.29028736 -276.88467675 765.29028736 -280.2109375 773.5234375 C-284.1383455 769.97690414 -286.82605184 765.84716976 -289.70703125 761.45703125 C-290.24402145 760.64734894 -290.78101166 759.83766663 -291.33427429 759.00344849 C-292.49869445 757.24686564 -293.66105694 755.48891743 -294.82159424 753.72976685 C-297.95875483 748.97497343 -301.11123683 744.23034766 -304.26171875 739.484375 C-304.91472961 738.49979813 -305.56774048 737.51522125 -306.24053955 736.50080872 C-313.21608811 725.99116814 -320.27246158 715.53659365 -327.3359375 705.0859375 C-335.67792183 692.73753987 -343.99624569 680.37532484 -352.24414062 667.96386719 C-360.03107156 656.26190034 -367.90603097 644.61932163 -375.77099609 632.96972656 C-383.20088511 621.96374299 -390.61488914 610.94872058 -397.96191406 599.88720703 C-404.78679278 589.62827983 -411.69140965 579.4231198 -418.5859375 569.2109375 C-426.49113026 557.50168224 -434.39150687 545.79018591 -442.2109375 534.0234375 C-449.98883344 522.31926267 -457.84738635 510.67018838 -465.7109375 499.0234375 C-474.26047758 486.36066446 -482.78969418 473.68611459 -491.24609375 460.9609375 C-498.35218519 450.28217026 -505.53333736 439.65422239 -512.7109375 429.0234375 C-521.26047758 416.36066446 -529.78969418 403.68611459 -538.24609375 390.9609375 C-545.35218538 380.28216997 -552.53336836 369.65424369 -559.7109375 359.0234375 C-570.02383531 343.74858791 -580.31780666 328.46201613 -590.49560547 313.09667969 C-591.65600685 311.35591246 -592.827247 309.62232972 -594.00830078 307.89550781 C-594.56114746 307.08436523 -595.11399414 306.27322266 -595.68359375 305.4375 C-596.172229 304.72803223 -596.66086426 304.01856445 -597.16430664 303.28759766 C-598.2109375 301.5234375 -598.2109375 301.5234375 -598.2109375 299.5234375 C-596.88425049 298.84522949 -596.88425049 298.84522949 -595.53076172 298.15332031 C-573.41111744 286.83920565 -573.41111744 286.83920565 -551.54052734 275.05371094 C-543.6735846 270.72637902 -535.6993374 266.6203451 -527.7109375 262.5234375 C-518.81691524 257.96199253 -509.96143373 253.35679202 -501.2109375 248.5234375 C-491.79470155 243.32236028 -482.25175801 238.39089705 -472.68115234 233.48242188 C-464.46489443 229.2661059 -456.29552865 224.98897798 -448.2109375 220.5234375 C-438.79470155 215.32236028 -429.25175801 210.39089705 -419.68115234 205.48242188 C-411.46489443 201.2661059 -403.29552865 196.98897798 -395.2109375 192.5234375 C-385.79470155 187.32236028 -376.25175801 182.39089705 -366.68115234 177.48242188 C-358.46489443 173.2661059 -350.29552865 168.98897798 -342.2109375 164.5234375 C-332.79470155 159.32236028 -323.25175801 154.39089705 -313.68115234 149.48242188 C-305.46489443 145.2661059 -297.29552865 140.98897798 -289.2109375 136.5234375 C-279.79470155 131.32236028 -270.25175801 126.39089705 -260.68115234 121.48242188 C-252.46489443 117.2661059 -244.29552865 112.98897798 -236.2109375 108.5234375 C-226.79470155 103.32236028 -217.25175801 98.39089705 -207.68115234 93.48242188 C-199.46489443 89.2661059 -191.29552865 84.98897798 -183.2109375 80.5234375 C-173.79470155 75.32236028 -164.25175801 70.39089705 -154.68115234 65.48242188 C-146.46489443 61.2661059 -138.29552865 56.98897798 -130.2109375 52.5234375 C-120.79470155 47.32236028 -111.25175801 42.39089705 -101.68115234 37.48242188 C-93.46488432 33.26610071 -85.29568973 28.98870126 -77.2109375 24.5234375 C-68.24789998 19.57636208 -59.18566395 14.83761531 -50.0859375 10.1484375 C-49.10488037 9.64256104 -49.10488037 9.64256104 -48.10400391 9.12646484 C-44.9835604 7.51862977 -41.86074523 5.91565782 -38.73339844 4.32128906 C-36.41510001 3.13803777 -34.10052082 1.9474663 -31.79003906 0.74902344 C-30.73526367 0.20793945 -29.68048828 -0.33314453 -28.59375 -0.890625 C-27.21147217 -1.60532959 -27.21147217 -1.60532959 -25.80126953 -2.33447266 C-17.21694542 -6.11934242 -7.76183988 -5.18370225 0 0 Z " fill="#7D353B" transform="translate(1865.2109375,160.4765625)"/>
</svg>
