<?xml version="1.0" encoding="UTF-8"?>
<svg version="1.1" xmlns="http://www.w3.org/2000/svg" width="224" height="224">
<path d="M0 0 C73.92 0 147.84 0 224 0 C224 73.92 224 147.84 224 224 C150.08 224 76.16 224 0 224 C0 150.08 0 76.16 0 0 Z " fill="#1B1B1B" transform="translate(0,0)"/>
<path d="M0 0 C2.112587 1.66184106 4.03064722 3.41151289 5.8125 5.42578125 C8.92120081 4.03649461 11.09637424 2.38442918 13.5625 0.05078125 C23.86575935 -9.14377858 35.45475908 -10.28320326 48.73779297 -9.70898438 C58.62609192 -9.06667548 65.51297045 -4.01315035 72.8125 2.42578125 C74.07498012 3.8978528 75.30881772 5.3954429 76.5 6.92578125 C78.7397236 9.69759684 78.7397236 9.69759684 81.953125 11.00390625 C83.48086193 11.1182267 85.01160256 11.19783788 86.54296875 11.2421875 C91.86102107 11.67239139 96.24723048 14.45237055 99.6875 18.42578125 C104.5574815 25.30104925 104.58172977 31.04208429 103.40039062 39.31005859 C102.84571032 42.26017688 102.22257658 45.18498047 101.5625 48.11328125 C101.21699097 49.6907312 101.21699097 49.6907312 100.86450195 51.30004883 C100.40159663 53.3953974 99.93277602 55.48944953 99.45751953 57.58203125 C98.91242754 59.9852226 98.38811285 62.39146077 97.87109375 64.80078125 C92.97185088 86.24320743 84.30226664 112.4286145 64.875 124.86328125 C53.54681074 130.97773203 41.51849431 132.25165848 28.95703125 129.6171875 C20.55364387 126.96879169 14.84219529 122.76692775 8.8125 116.42578125 C8.1525 115.76578125 7.4925 115.10578125 6.8125 114.42578125 C6.15507812 115.18761719 6.15507812 115.18761719 5.484375 115.96484375 C-2.46147896 124.58900231 -12.72147133 129.86612791 -24.4375 130.640625 C-38.10673655 131.00886952 -48.97835436 127.33741373 -59.1875 118.05078125 C-68.95422063 107.65139855 -74.88947871 94.85546478 -79.1875 81.42578125 C-79.40212891 80.78125 -79.61675781 80.13671875 -79.83789062 79.47265625 C-94.36471959 35.58495544 -94.36471959 35.58495544 -88.078125 20.8203125 C-86.61568354 18.66203195 -85.17732871 17.10165921 -83.1875 15.42578125 C-82.66929688 14.98878906 -82.15109375 14.55179688 -81.6171875 14.1015625 C-77.99272572 11.606462 -75.16731524 11.33114956 -70.8125 11.30078125 C-67.12764301 11.1044569 -65.62213184 10.80146792 -62.796875 8.359375 C-61.29557751 6.59823755 -59.82299675 4.81224856 -58.37890625 3.00390625 C-43.09871725 -14.97278669 -17.65913961 -12.56265998 0 0 Z " fill="#275BE4" transform="translate(105.1875,51.57421875)"/>
<path d="M0 0 C1.18464844 -0.00773437 2.36929688 -0.01546875 3.58984375 -0.0234375 C9.14133296 0.61351627 12.60795763 2.49589369 16.28515625 6.6484375 C19.97702057 11.92252938 20.49446982 17.70238942 21.25091553 23.9715271 C21.67648812 27.43726891 22.19480093 30.88839482 22.72265625 34.33984375 C22.82779541 35.02744278 22.93293457 35.71504181 23.04125977 36.42347717 C25.2303415 50.16285079 29.43349544 65.18292477 38.0625 76.375 C40.88329296 78.51934759 40.88329296 78.51934759 43.9375 79 C47.45378681 78.29674264 47.76358638 78.00805238 49.6875 75.1875 C52.77821262 69.60235372 54.37654762 63.49726027 56.0625 57.375 C56.47831857 55.93725445 56.89477899 54.49969397 57.3125 53.0625 C57.68375 51.7321875 57.68375 51.7321875 58.0625 50.375 C60.26053566 54.04468186 60.81420561 57.90963397 61.5 62.0625 C62.55294744 68.06973495 63.92533098 73.64350127 66.0625 79.375 C67.0625 82.375 67.0625 82.375 67.0625 85.375 C67.7225 85.375 68.3825 85.375 69.0625 85.375 C69.4646875 86.7671875 69.4646875 86.7671875 69.875 88.1875 C71.03165206 91.29219763 71.72908536 92.22825853 74.0625 94.375 C77.12287577 98.52836711 77.12287577 98.52836711 76.890625 101.78515625 C75.13351517 107.28026861 69.59536353 110.91849669 64.74609375 113.70703125 C53.37966811 118.98500629 40.44764624 120.64599417 28.4296875 116.41015625 C12.18789522 109.30772233 1.93888782 95.59726457 -4.51538086 79.41040039 C-5.7501542 76.09428097 -6.85906697 72.74469349 -7.9375 69.375 C-8.15212891 68.73046875 -8.36675781 68.0859375 -8.58789062 67.421875 C-23.22317565 23.20651238 -23.22317565 23.20651238 -16.7578125 8.734375 C-12.40879104 2.4699814 -7.65029266 -0.04983904 0 0 Z " fill="#0CB2DB" transform="translate(33.9375,63.625)"/>
<path d="M0 0 C11.94272011 8.37638713 23.40549429 21.3699868 26.05078125 36.18359375 C26.55674034 42.44828724 26.86187025 47.8972445 23.05078125 53.18359375 C16.81321951 59.30564509 13.06039447 60.54248505 4.2578125 60.46484375 C-0.97682034 60.00577729 -3.51394392 57.84673696 -6.84375 53.98828125 C-9.24064018 50.79539228 -11.15474016 47.48837705 -13.07421875 43.99609375 C-15.59343493 39.29515963 -15.59343493 39.29515963 -18.94921875 35.18359375 C-21.6376126 34.91367469 -24.24063811 35.09622018 -26.94921875 35.18359375 C-27.21734375 35.86421875 -27.48546875 36.54484375 -27.76171875 37.24609375 C-29.10975181 40.58070184 -30.52458173 43.88102612 -31.94921875 47.18359375 C-32.60921875 47.18359375 -33.26921875 47.18359375 -33.94921875 47.18359375 C-33.61921875 48.17359375 -33.28921875 49.16359375 -32.94921875 50.18359375 C-33.60921875 50.18359375 -34.26921875 50.18359375 -34.94921875 50.18359375 C-34.61921875 51.17359375 -34.28921875 52.16359375 -33.94921875 53.18359375 C-34.5078125 56.1015625 -34.5078125 56.1015625 -35.38671875 59.37109375 C-35.67417969 60.45777344 -35.96164063 61.54445313 -36.2578125 62.6640625 C-36.48597656 63.49550781 -36.71414062 64.32695313 -36.94921875 65.18359375 C-37.27921875 65.18359375 -37.60921875 65.18359375 -37.94921875 65.18359375 C-38.12461182 64.41917969 -38.30000488 63.65476562 -38.48071289 62.8671875 C-42.59844001 45.13174865 -46.6003758 28.40248044 -56.94921875 13.18359375 C-57.27921875 12.52359375 -57.60921875 11.86359375 -57.94921875 11.18359375 C-55.31583734 8.81013051 -52.64696909 6.48362956 -49.94921875 4.18359375 C-49.39878906 3.70921875 -48.84835938 3.23484375 -48.28125 2.74609375 C-35.50259504 -7.35062128 -13.81679493 -8.50968165 0 0 Z " fill="#3ABD6C" transform="translate(168.94921875,46.81640625)"/>
<path d="M0 0 C3.79862393 4.04251632 6.50032158 8.32717652 9.125 13.1875 C11.40475885 17.66373946 11.40475885 17.66373946 14.62182617 21.44482422 C16 23 16 23 16.20385742 24.89038086 C15.36984722 31.1244469 13.58789912 36.71086838 11.3125 42.5625 C10.98572266 43.45646484 10.65894531 44.35042969 10.32226562 45.27148438 C7.90396822 51.59234968 4.82628019 57.17371981 0 62 C-3.25 62.5625 -3.25 62.5625 -7 62 C-13.62558688 55.37441312 -17.14470191 43.10478615 -18 34 C-17.90778622 30.29095672 -17.51177901 26.67243623 -17 23 C-16.87044922 21.93845703 -16.87044922 21.93845703 -16.73828125 20.85546875 C-16.38384812 18.09553863 -15.88287872 15.64863617 -15 13 C-14.34 13 -13.68 13 -13 13 C-12.82984375 12.39671875 -12.6596875 11.7934375 -12.484375 11.171875 C-10.41634016 4.3517601 -8.3671589 -1.70758345 0 0 Z " fill="#1B1C1C" transform="translate(150,81)"/>
<path d="M0 0 C3.56930248 1.12714815 5.33316449 3.75708413 7.375 6.75 C8.69855963 9.36513606 9.6886129 12.0376582 10.625 14.8125 C10.87878418 15.56055908 11.13256836 16.30861816 11.39404297 17.0793457 C16.00217734 31.34994293 14.25863896 43.03719025 7.75 56.5 C6.4284268 59.04213444 5.41085716 60.71414284 3.375 62.75 C0.5625 63.1875 0.5625 63.1875 -2.625 62.75 C-11.21443328 55.79664925 -15.79112779 44.603848 -17.8125 33.9375 C-18.25973376 27.12836593 -14.9622284 20.71142855 -12.35571289 14.57080078 C-11.68808637 12.90719951 -11.15278365 11.19205787 -10.6328125 9.4765625 C-8.83430701 4.61083835 -4.96154554 1.41758444 0 0 Z " fill="#1B1C1D" transform="translate(77.625,80.25)"/>
<path d="M0 0 C1.88391785 3.26545761 2.49287967 6.28111761 3 10 C2.01 10.33 1.02 10.66 0 11 C-1.21631654 14.45689963 -2 17.32831864 -2 21 C-3.32421875 22.45703125 -3.32421875 22.45703125 -5 24 C-5.93885208 25.22813424 -6.87632704 26.45732231 -7.8125 27.6875 C-10.06136437 30.32698598 -10.60059294 30.92011859 -14.125 31.625 C-17.17015914 30.96300888 -18.72824737 30.09700243 -21 28 C-20.67 27.34 -20.34 26.68 -20 26 C-18.515 26.99 -18.515 26.99 -17 28 C-14.08681086 28.83399875 -14.08681086 28.83399875 -11 28 C-5.51918816 22.62943437 -3.96292815 14.12805245 -2 7 C-1.58418143 5.56225445 -1.16772101 4.12469397 -0.75 2.6875 C-0.5025 1.800625 -0.255 0.91375 0 0 Z " fill="#10889A" transform="translate(92,114)"/>
<path d="M0 0 C0.66 0 1.32 0 2 0 C1.95875 1.155 1.9175 2.31 1.875 3.5 C1.89651441 17.18316168 4.55954935 31.09972526 9 44 C7.515 44.495 7.515 44.495 6 45 C-1.16330419 13.67959553 -1.16330419 13.67959553 0 0 Z " fill="#17DDF0" transform="translate(16,75)"/>
<path d="M0 0 C0.66 0 1.32 0 2 0 C7.21861133 16.60765618 7.21861133 16.60765618 3 25 C1.14586696 27.30119558 -0.7522954 29.05198935 -3 31 C-3.66 30.67 -4.32 30.34 -5 30 C-4.21625 29.278125 -3.4325 28.55625 -2.625 27.8125 C2.03343829 22.82131612 2.31024323 18.44993814 2.203125 11.87109375 C1.91198012 7.75587283 1.04586172 3.98734779 0 0 Z " fill="#1947BB" transform="translate(192,74)"/>
<path d="M0 0 C0.33 0 0.66 0 1 0 C1.12117188 0.82242188 1.24234375 1.64484375 1.3671875 2.4921875 C2.30278849 8.72472948 3.32111654 14.90924773 4.6328125 21.07421875 C5 23 5 23 5 25 C5.99 25 6.98 25 8 25 C7.34 27.97 6.68 30.94 6 34 C3.1560281 29.73404215 2.7589929 25.37119691 1.875 20.375 C1.60236328 18.93447266 1.60236328 18.93447266 1.32421875 17.46484375 C0.25595765 11.5452315 -0.18598048 6.01336884 0 0 Z " fill="#173FA0" transform="translate(54,79)"/>
<path d="M0 0 C0 0.33 0 0.66 0 1 C-0.73863281 1.13535156 -1.47726563 1.27070312 -2.23828125 1.41015625 C-13.07377218 3.70942815 -22.72175108 8.58262663 -29 18 C-29.66 17.01 -30.32 16.02 -31 15 C-21.42121389 6.36665252 -13.48374847 -0.72234367 0 0 Z " fill="#22B598" transform="translate(142,43)"/>
<path d="M0 0 C3.21446659 2.93083718 5.63943212 5.83683897 8 9.5 C11.57218082 15.00901543 15.81161166 18.997529 21 23 C14.40067979 22.23586819 11.13516463 17.85371113 7 13 C0 3.26142596 0 3.26142596 0 0 Z " fill="#05BFE9" transform="translate(35,152)"/>
<path d="M0 0 C2 1.625 2 1.625 4 4 C4.31452272 7.14522722 4.42041821 9.15916359 3 12 C3.66 12 4.32 12 5 12 C4.67 12.99 4.34 13.98 4 15 C3.34 14.67 2.68 14.34 2 14 C1.3671875 11.85546875 1.3671875 11.85546875 0.875 9.1875 C0.70742187 8.31480469 0.53984375 7.44210938 0.3671875 6.54296875 C0 4 0 4 0 0 Z " fill="#1E4CC9" transform="translate(90,100)"/>
<path d="M0 0 C1.52416604 2.93946307 2.77096406 5.92741014 4 9 C4.37125 9.680625 4.7425 10.36125 5.125 11.0625 C6 13 6 13 6 17 C5.34 17 4.68 17 4 17 C3.33333333 15 2.66666667 13 2 11 C1.58621094 9.84564453 1.58621094 9.84564453 1.1640625 8.66796875 C0.88304688 7.87003906 0.60203125 7.07210937 0.3125 6.25 C0.04050781 5.49203125 -0.23148437 4.7340625 -0.51171875 3.953125 C-1 2 -1 2 0 0 Z " fill="#166D95" transform="translate(97,132)"/>
<path d="M0 0 C1.88391785 3.26545761 2.49287967 6.28111761 3 10 C1.68 10.33 0.36 10.66 -1 11 C-2.60080151 6.99799622 -1.29279692 3.95443764 0 0 Z " fill="#177682" transform="translate(92,114)"/>
<path d="M0 0 C0.66 0 1.32 0 2 0 C3.95031692 4.07723734 4.21581971 7.31692422 4.125 11.8125 C4.10695312 12.97394531 4.08890625 14.13539062 4.0703125 15.33203125 C4.04710937 16.21246094 4.02390625 17.09289062 4 18 C3.67 18 3.34 18 3 18 C2 12 1 6 0 0 Z " fill="#2158BC" transform="translate(192,74)"/>
<path d="M0 0 C-1.47721422 3.45201639 -3.43794001 5.64961936 -6.125 8.25 C-6.84945312 8.95640625 -7.57390625 9.6628125 -8.3203125 10.390625 C-8.87460938 10.92171875 -9.42890625 11.4528125 -10 12 C-10 8.07290865 -8.72099538 7.1810287 -6.125 4.3125 C-5.04605469 3.10013672 -5.04605469 3.10013672 -3.9453125 1.86328125 C-2 0 -2 0 0 0 Z " fill="#131210" transform="translate(185,163)"/>
<path d="M0 0 C3.3 0 6.6 0 10 0 C10.33 0.99 10.66 1.98 11 3 C5.71910976 3.30466674 4.422832 3.317124 0 0 Z " fill="#32A265" transform="translate(166,104)"/>
<path d="M0 0 C1.45606519 4.52092968 0.27032841 7.51648796 -1 12 C-1.33 12 -1.66 12 -2 12 C-2.66 8.7 -3.32 5.4 -4 2 C-2.68 2.33 -1.36 2.66 0 3 C0 2.01 0 1.02 0 0 Z " fill="#0A7259" transform="translate(133,100)"/>
<path d="M0 0 C0.8353125 0.37125 0.8353125 0.37125 1.6875 0.75 C0.800625 1.3275 -0.08625 1.905 -1 2.5 C-3.90292244 4.43068476 -6.62018649 6.53280064 -9.3125 8.75 C-7.925165 4.2096309 -5.3700603 -0.58054706 0 0 Z " fill="#17E5EB" transform="translate(27.3125,65.25)"/>
<path d="M0 0 C3.3 0 6.6 0 10 0 C7 3 7 3 3.8125 3.1875 C2.4203125 3.0946875 2.4203125 3.0946875 1 3 C0.67 2.01 0.34 1.02 0 0 Z " fill="#45C365" transform="translate(176,104)"/>
<path d="M0 0 C1.32 0.66 2.64 1.32 4 2 C3.01 2.495 3.01 2.495 2 3 C0.86897474 5.34038186 0.86897474 5.34038186 -0.125 8.0625 C-0.47820312 8.98160156 -0.83140625 9.90070313 -1.1953125 10.84765625 C-1.46085938 11.55792969 -1.72640625 12.26820312 -2 13 C-3.45047396 10.09905209 -2.45356803 8.44027404 -1.5625 5.375 C-1.27503906 4.37210937 -0.98757812 3.36921875 -0.69140625 2.3359375 C-0.46324219 1.56507812 -0.23507813 0.79421875 0 0 Z " fill="#1137A0" transform="translate(166,105)"/>
<path d="M0 0 C2.6855594 2.6855594 3.06049974 5.37621328 4 9 C3.01 9.33 2.02 9.66 1 10 C0.67 6.7 0.34 3.4 0 0 Z " fill="#15C4EA" transform="translate(21,110)"/>
<path d="M0 0 C0.66 0.33 1.32 0.66 2 1 C0.88121617 2.17262904 -0.24523051 3.33795138 -1.375 4.5 C-2.00148438 5.1496875 -2.62796875 5.799375 -3.2734375 6.46875 C-5 8 -5 8 -7 8 C-5.61918777 3.8575633 -3.40174442 2.67796901 0 0 Z " fill="#131414" transform="translate(108,169)"/>
</svg>
