<?xml version="1.0" encoding="UTF-8"?>
<svg version="1.1" xmlns="http://www.w3.org/2000/svg" width="900" height="900">
<path d="M0 0 C297 0 594 0 900 0 C900 297 900 594 900 900 C603 900 306 900 0 900 C0 603 0 306 0 0 Z " fill="#032D43" transform="translate(0,0)"/>
<path d="M0 0 C1.15918945 -0.00580078 1.15918945 -0.00580078 2.34179688 -0.01171875 C14.86993589 0.00946154 14.86993589 0.00946154 20.0625 3.125 C20.0625 3.785 20.0625 4.445 20.0625 5.125 C20.7225 5.310625 21.3825 5.49625 22.0625 5.6875 C30.13591015 9.55600903 36.78531727 16.86343492 40.3203125 25.03125 C44.05336401 35.78661518 44.89879195 46.78640263 40.46484375 57.453125 C36.85969204 64.32199344 32.47124695 70.64400413 26.0625 75.125 C21.92719356 75.62123677 20.57503146 75.46668764 17.0625 73.125 C17.0625 72.465 17.0625 71.805 17.0625 71.125 C16.010625 70.939375 16.010625 70.939375 14.9375 70.75 C12.0625 70.125 12.0625 70.125 9.4375 69.0625 C1.41174327 66.83312313 -6.39028166 67.71954782 -13.9375 71.125 C-14.80375 71.681875 -15.67 72.23875 -16.5625 72.8125 C-19.99121006 74.70731345 -22.07307881 74.72465156 -25.9375 74.125 C-28.59583202 72.43050766 -30.89028053 70.52690492 -32.9375 68.125 C-32.9375 67.465 -32.9375 66.805 -32.9375 66.125 C-33.5975 66.125 -34.2575 66.125 -34.9375 66.125 C-35.9375 64.125 -36.9375 62.125 -37.9375 60.125 C-38.329375 59.444375 -38.72125 58.76375 -39.125 58.0625 C-40.13367837 55.65719003 -40.08093508 53.70683152 -39.9375 51.125 C-40.5975 51.125 -41.2575 51.125 -41.9375 51.125 C-42.54462481 34.69890093 -41.23184041 23.98392436 -29.9375 11.125 C-29.2775 11.125 -28.6175 11.125 -27.9375 11.125 C-27.6075 10.135 -27.2775 9.145 -26.9375 8.125 C-23.00714437 5.01727695 -19.92498002 3.5999981 -14.9375 3.125 C-14.9375 2.465 -14.9375 1.805 -14.9375 1.125 C-9.90830048 0.11111338 -5.10391555 -0.02541369 0 0 Z " fill="#61D64F" transform="translate(662.9375,428.875)"/>
<path d="M0 0 C2.70641438 -0.09898988 5.36395806 -0.03951348 8.06933594 0.08251953 C9.47989258 0.11635742 9.47989258 0.11635742 10.91894531 0.15087891 C13.24151067 0.20982727 15.56087369 0.29204168 17.88183594 0.39501953 C17.35915128 3.1577813 16.77314007 5.72110713 15.88183594 8.39501953 C15.22183594 8.72501953 14.56183594 9.05501953 13.88183594 9.39501953 C13.13804067 11.45207831 12.48525124 13.54249434 11.88183594 15.64501953 C10.71969371 19.65804189 9.50381169 23.54282712 7.88183594 27.39501953 C7.22183594 27.39501953 6.56183594 27.39501953 5.88183594 27.39501953 C5.77226563 28.01248047 5.66269531 28.62994141 5.54980469 29.26611328 C4.57301025 34.48362503 3.30360347 39.40384837 1.54589844 44.41064453 C0.77661999 46.70942953 0.26766379 49.00288688 -0.11816406 51.39501953 C-1.10816406 51.39501953 -2.09816406 51.39501953 -3.11816406 51.39501953 C-3.44816406 54.03501953 -3.77816406 56.67501953 -4.11816406 59.39501953 C-4.77816406 59.39501953 -5.43816406 59.39501953 -6.11816406 59.39501953 C-6.31152344 60.07048828 -6.50488281 60.74595703 -6.70410156 61.44189453 C-6.96449219 62.33392578 -7.22488281 63.22595703 -7.49316406 64.14501953 C-7.74839844 65.02673828 -8.00363281 65.90845703 -8.26660156 66.81689453 C-9.11816406 69.39501953 -9.11816406 69.39501953 -11.11816406 73.39501953 C-16.06816406 73.39501953 -21.01816406 73.39501953 -26.11816406 73.39501953 C-29.29005701 65.93174201 -32.27511044 58.44266508 -35.06201172 50.82861328 C-36.0242988 48.21752546 -36.97768573 45.66728681 -38.25488281 43.19189453 C-39.75541715 40.06861039 -39.77591362 36.81752393 -40.11816406 33.39501953 C-41.10816406 33.39501953 -42.09816406 33.39501953 -43.11816406 33.39501953 C-43.13234375 33.95447266 -43.14652344 34.51392578 -43.16113281 35.09033203 C-43.74607848 44.92374297 -47.04072604 54.00620889 -52.11816406 62.39501953 C-52.70961458 63.93936254 -53.25494203 65.50250426 -53.74316406 67.08251953 C-54.43605772 69.29903418 -55.07918229 71.31705598 -56.11816406 73.39501953 C-58.57715062 73.47578916 -61.03350149 73.53539096 -63.49316406 73.58251953 C-64.19183594 73.60765625 -64.89050781 73.63279297 -65.61035156 73.65869141 C-67.64160156 73.68798828 -67.64160156 73.68798828 -71.11816406 73.39501953 C-72.83541117 70.81914887 -73.63307718 69.14034878 -74.52832031 66.26611328 C-76.03470136 61.58999634 -77.75591254 57.02749139 -79.55566406 52.45751953 C-80.01307983 51.28564087 -80.01307983 51.28564087 -80.47973633 50.09008789 C-82.42499864 45.11668165 -84.41488446 40.16388788 -86.48925781 35.24267578 C-87.11816406 33.39501953 -87.11816406 33.39501953 -87.11816406 30.39501953 C-87.77816406 30.39501953 -88.43816406 30.39501953 -89.11816406 30.39501953 C-89.28832031 29.86134766 -89.45847656 29.32767578 -89.63378906 28.77783203 C-91.30985811 23.62481124 -93.20804285 18.63541381 -95.34863281 13.65673828 C-96.11816406 11.39501953 -96.11816406 11.39501953 -96.11816406 7.39501953 C-96.77816406 7.39501953 -97.43816406 7.39501953 -98.11816406 7.39501953 C-98.44816406 5.41501953 -98.77816406 3.43501953 -99.11816406 1.39501953 C-92.51816406 1.39501953 -85.91816406 1.39501953 -79.11816406 1.39501953 C-78.68503906 3.06564453 -78.25191406 4.73626953 -77.80566406 6.45751953 C-76.57279937 10.97418271 -75.05853168 15.12621078 -73.11816406 19.39501953 C-71.75356655 22.71608818 -70.43538255 26.05492979 -69.11816406 29.39501953 C-68.66183594 30.52230469 -68.66183594 30.52230469 -68.19628906 31.67236328 C-66.81338639 35.17528184 -66.11816406 37.57543439 -66.11816406 41.39501953 C-65.12816406 41.39501953 -64.13816406 41.39501953 -63.11816406 41.39501953 C-63.02535156 39.47689453 -63.02535156 39.47689453 -62.93066406 37.52001953 C-62.40808567 32.73469454 -60.73349925 29.29523856 -58.46191406 25.10205078 C-56.12873506 20.40178029 -54.6576967 15.4006508 -53.11816406 10.39501953 C-52.45816406 10.39501953 -51.79816406 10.39501953 -51.11816406 10.39501953 C-51.13878906 9.28126953 -51.15941406 8.16751953 -51.18066406 7.02001953 C-51.11816406 3.39501953 -51.11816406 3.39501953 -50.11816406 1.39501953 C-44.17816406 1.39501953 -38.23816406 1.39501953 -32.11816406 1.39501953 C-31.03535156 4.48876953 -31.03535156 4.48876953 -29.93066406 7.64501953 C-27.28480787 15.12217229 -24.23321092 22.40654248 -21.13769531 29.70751953 C-19.50442134 33.75619869 -18.79068404 37.02861923 -19.11816406 41.39501953 C-18.12816406 41.39501953 -17.13816406 41.39501953 -16.11816406 41.39501953 C-15.45816406 37.43501953 -14.79816406 33.47501953 -14.11816406 29.39501953 C-13.45816406 29.39501953 -12.79816406 29.39501953 -12.11816406 29.39501953 C-12.15941406 28.67314453 -12.20066406 27.95126953 -12.24316406 27.20751953 C-12.10895101 24.18772584 -11.36645787 22.12566224 -10.11816406 19.39501953 C-9.45816406 19.39501953 -8.79816406 19.39501953 -8.11816406 19.39501953 C-7.93253906 18.43595703 -7.93253906 18.43595703 -7.74316406 17.45751953 C-7.53691406 16.44689453 -7.33066406 15.43626953 -7.11816406 14.39501953 C-6.98410156 13.68216797 -6.85003906 12.96931641 -6.71191406 12.23486328 C-6.55722656 11.46271484 -6.40253906 10.69056641 -6.24316406 9.89501953 C-6.10136719 9.16283203 -5.95957031 8.43064453 -5.81347656 7.67626953 C-3.68314759 0.68687561 -3.68314759 0.68687561 0 0 Z " fill="#F4F7F7" transform="translate(800.1181640625,428.60498046875)"/>
<path d="M0 0 C2.5625 2.1875 2.5625 2.1875 5 5 C5.97646484 6.02673828 5.97646484 6.02673828 6.97265625 7.07421875 C16.65878712 17.42835865 16 23.37152032 16 39 C-0.5 39 -17 39 -34 39 C-29.66649027 49.20905869 -29.66649027 49.20905869 -21 55 C-18.75866742 55.28693388 -16.5055681 55.48966591 -14.25 55.625 C-13.07953125 55.69976562 -11.9090625 55.77453125 -10.703125 55.8515625 C-9.81109375 55.90054688 -8.9190625 55.94953125 -8 56 C-8 55.34 -8 54.68 -8 54 C-6.68 54 -5.36 54 -4 54 C-4 53.34 -4 52.68 -4 52 C-0.32547562 49.1605948 1.26886581 48 6 48 C7.88671875 49.609375 7.88671875 49.609375 9.6875 51.75 C10.59048828 52.79414063 10.59048828 52.79414063 11.51171875 53.859375 C12.97986885 55.97104497 13.57562182 57.48768115 14 60 C12.71283353 61.00578589 11.42011342 62.00446798 10.125 63 C9.40570313 63.556875 8.68640625 64.11375 7.9453125 64.6875 C6 66 6 66 4 66 C3.505 67.485 3.505 67.485 3 69 C-9.61358179 73.62307749 -22.46846091 73.11990919 -34.73828125 67.81640625 C-42.44659896 63.68736809 -47.63760089 57.05035942 -51 49 C-51 47.68 -51 46.36 -51 45 C-51.66 45 -52.32 45 -53 45 C-53 38.07 -53 31.14 -53 24 C-52.34 24 -51.68 24 -51 24 C-50.85304687 23.21496094 -50.70609375 22.42992187 -50.5546875 21.62109375 C-48.60089163 12.46969356 -45.68196349 7.67139399 -38.3125 2.0625 C-35 0 -35 0 -32 0 C-32 -0.66 -32 -1.32 -32 -2 C-21.71461323 -5.35849364 -9.31234582 -6.22187501 0 0 Z " fill="#F2F5F6" transform="translate(202,432)"/>
<path d="M0 0 C1.63202131 1.38688231 3.2088582 2.83823973 4.7734375 4.30078125 C5.4334375 4.63078125 6.0934375 4.96078125 6.7734375 5.30078125 C8.83429392 9.42249409 10.19505519 12.66298671 9.7734375 17.30078125 C10.4334375 17.30078125 11.0934375 17.30078125 11.7734375 17.30078125 C11.7734375 22.91078125 11.7734375 28.52078125 11.7734375 34.30078125 C-4.7265625 34.30078125 -21.2265625 34.30078125 -38.2265625 34.30078125 C-35.31378028 43.66572853 -35.31378028 43.66572853 -28.43359375 49.41015625 C-23.00903876 51.59918021 -16.23275456 51.04381535 -10.8515625 49.05078125 C-8.9043937 47.75266871 -6.96859331 46.43746906 -5.0390625 45.11328125 C-2.2265625 43.30078125 -2.2265625 43.30078125 0.7734375 43.30078125 C2.52734375 44.91015625 2.52734375 44.91015625 4.3359375 47.05078125 C4.93535156 47.746875 5.53476562 48.44296875 6.15234375 49.16015625 C7.65588923 51.14556088 8.74921751 53.03832515 9.7734375 55.30078125 C8.65269888 56.1398369 7.52669203 56.97185956 6.3984375 57.80078125 C5.45871094 58.496875 5.45871094 58.496875 4.5 59.20703125 C2.7734375 60.30078125 2.7734375 60.30078125 0.7734375 60.30078125 C0.2784375 61.78578125 0.2784375 61.78578125 -0.2265625 63.30078125 C-9.17989595 67.67836682 -22.20221197 67.68915355 -31.7890625 65.48828125 C-33.490625 64.90046875 -33.490625 64.90046875 -35.2265625 64.30078125 C-36.3815625 63.90890625 -37.5365625 63.51703125 -38.7265625 63.11328125 C-46.50817576 59.08351724 -51.93893731 53.4688733 -55.2265625 45.30078125 C-57.07944938 39.19408366 -57.59197072 33.60242558 -57.6015625 27.23828125 C-57.62605469 26.37912109 -57.65054687 25.51996094 -57.67578125 24.63476562 C-57.70352878 18.58117974 -56.54607699 15.34175399 -53.2265625 10.30078125 C-52.88882812 9.41519531 -52.55109375 8.52960938 -52.203125 7.6171875 C-49.53984099 1.29987783 -43.30281983 -3.12624582 -37.28125 -6.0078125 C-24.0327518 -10.46595733 -10.98314796 -8.38187607 0 0 Z " fill="#F4F7F7" transform="translate(523.2265625,436.69921875)"/>
<path d="M0 0 C6.27 0 12.54 0 19 0 C19 1.65 19 3.3 19 5 C19.58007812 4.72285156 20.16015625 4.44570313 20.7578125 4.16015625 C21.53898438 3.79792969 22.32015625 3.43570312 23.125 3.0625 C23.89070312 2.70285156 24.65640625 2.34320313 25.4453125 1.97265625 C35.29923372 -1.77906605 46.41166766 -0.90033858 56 3 C56 3.66 56 4.32 56 5 C56.58910156 5.10699219 57.17820312 5.21398437 57.78515625 5.32421875 C62.66725376 6.81381817 65.68585849 11.02856349 68.43066406 15.14624023 C73.93234144 26.11687204 72.5392154 38.30167065 72.3125 50.25 C72.28738232 52.55596537 72.26457529 54.86195713 72.24414062 57.16796875 C72.18942992 62.7793048 72.10334724 68.38935759 72 74 C65.4 74 58.8 74 52 74 C51.9906543 72.60765137 51.98130859 71.21530273 51.97167969 69.78076172 C51.93173603 64.60319303 51.86596418 59.42621579 51.79248047 54.24902344 C51.76429638 52.01049409 51.74306914 49.7718657 51.72900391 47.53320312 C51.70753952 44.31068306 51.6608694 41.08935062 51.609375 37.8671875 C51.60814636 36.87008759 51.60691772 35.87298767 51.60565186 34.84567261 C51.48147483 28.92278375 50.8976525 25.53755201 47 21 C42.47163779 17.02053018 36.76013965 17.2925465 31 17 C31 17.66 31 18.32 31 19 C29.27473958 19.68359375 27.54947917 20.3671875 25.82421875 21.05078125 C23.70336703 22.15435077 22.50950819 23.13787169 21 25 C20.52900985 27.27438288 20.52900985 27.27438288 20.56762695 29.83862305 C20.54783279 30.8194133 20.52803864 31.80020355 20.50764465 32.81071472 C20.50125473 33.86704605 20.49486481 34.92337738 20.48828125 36.01171875 C20.47033005 37.09508011 20.45237885 38.17844147 20.43388367 39.29463196 C20.37965015 42.75888157 20.34584256 46.22299238 20.3125 49.6875 C20.27933851 52.03452458 20.24484996 54.38153081 20.20898438 56.72851562 C20.1239159 62.48557713 20.0571666 68.24259654 20 74 C13.4 74 6.8 74 0 74 C0 49.58 0 25.16 0 0 Z " fill="#F1F4F5" transform="translate(542,429)"/>
<path d="M0 0 C1.20830038 0.5834016 2.41662899 1.16674471 3.625 1.75 C4.40875 2.1625 5.1925 2.575 6 3 C6 3.66 6 4.32 6 5 C6.928125 5.433125 6.928125 5.433125 7.875 5.875 C10 7 10 7 12 9 C12 12 12 12 10.35546875 13.71875 C9.64003906 14.3065625 8.92460937 14.894375 8.1875 15.5 C5.17399754 17.99065652 5.17399754 17.99065652 2.390625 20.7265625 C1.93171875 21.14679688 1.4728125 21.56703125 1 22 C-2.80329265 21.80495935 -5.22209595 20.57213338 -8 18 C-8 17.34 -8 16.68 -8 16 C-20.29680239 15.00046558 -20.29680239 15.00046558 -31 20 C-35.18939634 24.52013816 -36.14961249 27.79784265 -36.1875 33.875 C-36.20876953 35.41800781 -36.20876953 35.41800781 -36.23046875 36.9921875 C-35.85360875 41.91052984 -34.73584567 44.31214427 -31.125 47.6875 C-28.7522235 49.44335461 -26.69730499 50.8588325 -24 52 C-24 52.66 -24 53.32 -24 54 C-20.04 54 -16.08 54 -12 54 C-12 53.34 -12 52.68 -12 52 C-10.68 52 -9.36 52 -8 52 C-8 51.34 -8 50.68 -8 50 C-1.33333333 45 -1.33333333 45 2 45 C5.90524115 47.19669815 8.90443452 49.79387861 12 53 C12.66 53.33 13.32 53.66 14 54 C13.20765801 59.72530989 8.27935903 62.61826262 4 66 C-5.11286752 72.50647326 -15.15109932 72.78231733 -26 72 C-35.00327392 69.75150435 -41.70819177 65.87065459 -48 59 C-49.265625 56.2421875 -49.265625 56.2421875 -50 54 C-50.66 54 -51.32 54 -52 54 C-57.53119544 42.7894521 -58.05322447 29.75724991 -54.0625 17.9375 C-51.34139526 11.80335245 -47.40855871 6.98627225 -42 3 C-40.67487126 2.63541432 -39.34260148 2.29378588 -38 2 C-37.67 1.34 -37.34 0.68 -37 0 C-26.21235256 -6.84216528 -10.89704499 -5.85794904 0 0 Z " fill="#F3F6F6" transform="translate(448,432)"/>
<path d="M0 0 C0.82242188 0.01353516 1.64484375 0.02707031 2.4921875 0.04101562 C4.49508221 0.07594984 6.49763356 0.12973943 8.5 0.1875 C8.5 0.8475 8.5 1.5075 8.5 2.1875 C9.16 2.105 9.82 2.0225 10.5 1.9375 C14.60296171 2.27941348 18.20153899 3.69053419 21.5 6.1875 C22.39453125 8.03515625 22.39453125 8.03515625 22.5 10.1875 C21.03115011 13.58814469 19.00045098 16.46073889 16.5 19.1875 C13.125 20.25 13.125 20.25 10.5 20.1875 C10.5 19.5275 10.5 18.8675 10.5 18.1875 C8.27110504 18.13321027 6.04182529 18.09457662 3.8125 18.0625 C2.57113281 18.03929687 1.32976562 18.01609375 0.05078125 17.9921875 C-3.31237857 18.17717979 -5.4985587 18.72982105 -8.5 20.1875 C-8.38658466 22.59627257 -8.38658466 22.59627257 -7.5 25.1875 C-3.48308385 28.45124437 1.62631462 29.66554211 6.5 31.1875 C9.5 32.1875 9.5 32.1875 12.5 33.1875 C12.5 33.8475 12.5 34.5075 12.5 35.1875 C13.86125 35.2803125 13.86125 35.2803125 15.25 35.375 C19.26291479 36.3782287 20.32113115 37.75159143 22.5 41.1875 C22.5 41.8475 22.5 42.5075 22.5 43.1875 C23.16 43.1875 23.82 43.1875 24.5 43.1875 C25.57090792 46.69151072 25.66638464 49.97204216 25.6875 53.625 C25.70167969 54.73746094 25.71585938 55.84992188 25.73046875 56.99609375 C25.43847259 61.03949826 24.82912674 63.91793318 21.84375 66.76953125 C21.2353125 67.17558594 20.626875 67.58164062 20 68 C19.08734375 68.62841797 19.08734375 68.62841797 18.15625 69.26953125 C16.5 70.1875 16.5 70.1875 14.5 70.1875 C14.5 70.8475 14.5 71.5075 14.5 72.1875 C13.18 72.1875 11.86 72.1875 10.5 72.1875 C10.5 72.8475 10.5 73.5075 10.5 74.1875 C-5.48075792 76.73129202 -17.42442952 74.76434964 -31.5 67.1875 C-30.83651854 63.42179444 -29.14297659 60.65604495 -27.125 57.4375 C-26.51914063 56.45265625 -25.91328125 55.4678125 -25.2890625 54.453125 C-24.69867188 53.70546875 -24.10828125 52.9578125 -23.5 52.1875 C-22.51 52.1875 -21.52 52.1875 -20.5 52.1875 C-20.5 52.8475 -20.5 53.5075 -20.5 54.1875 C-19.695625 54.496875 -18.89125 54.80625 -18.0625 55.125 C-15.5 56.1875 -15.5 56.1875 -14.5 57.1875 C-7.15222411 58.53709149 -0.5565539 59.01012156 6.5 56.1875 C6.23920313 53.29699479 6.23920313 53.29699479 4.5 50.1875 C-1.59705471 45.82517215 -9.2309401 43.81049751 -16.30078125 41.59375 C-21.56486681 39.27986624 -25.11370065 35.39328043 -27.5 30.1875 C-27.89560574 27.46699385 -28.11832801 25.09304129 -28.125 22.375 C-28.12733643 21.66448486 -28.12967285 20.95396973 -28.13208008 20.22192383 C-27.97317643 15.62005315 -27.23517857 12.82860616 -24.1875 9.375 C-22.98950872 8.27746921 -21.76155616 7.21133251 -20.5 6.1875 C-20.04149658 5.69652832 -19.58299316 5.20555664 -19.1105957 4.69970703 C-13.85245408 -0.23722327 -6.75399145 -0.21449973 0 0 Z " fill="#F4F7F7" transform="translate(119.5,427.8125)"/>
<path d="M0 0 C6.6 0 13.2 0 20 0 C20.556875 1.44375 21.11375 2.8875 21.6875 4.375 C23.15571193 8.07426707 24.78013091 11.59949349 26.625 15.125 C28.81127429 19.37646261 30.0472392 23.32281063 31 28 C31.66 28 32.32 28 33 28 C33.64910154 29.58199631 34.29414694 31.16565724 34.9375 32.75 C35.29714844 33.63171875 35.65679687 34.5134375 36.02734375 35.421875 C36.85356576 37.61186104 37.49369943 39.71898271 38 42 C38.99 42 39.98 42 41 42 C41.11730469 41.14535156 41.23460937 40.29070312 41.35546875 39.41015625 C42.021374 35.88691213 43.03575046 32.78550887 44.3125 29.4375 C44.72113281 28.34308594 45.12976563 27.24867188 45.55078125 26.12109375 C47.02333423 22.9497465 48.79356369 20.69034286 51 18 C52.06930842 15.82110526 52.06930842 15.82110526 52.75 13.6875 C53.36875 11.8621875 53.36875 11.8621875 54 10 C54.66 10 55.32 10 56 10 C55.95875 9.0925 55.9175 8.185 55.875 7.25 C56 4 56 4 58 0 C64.6 0 71.2 0 78 0 C75.45535714 11.91964286 75.45535714 11.91964286 72.6875 15.3125 C70.05828346 18.55207038 68.65294817 22.07261421 67.1875 25.9375 C64.77088122 32.29929286 61.95439509 38.33768581 58.8034668 44.36889648 C56.8322182 48.17812757 55.22423558 51.98000862 53.76586914 56.01196289 C52.50445506 59.28633168 50.91501833 62.38194763 49.3125 65.5 C48.99216797 66.13164062 48.67183594 66.76328125 48.34179688 67.4140625 C47.56492912 68.94460793 46.78301261 70.4725891 46 72 C41.38 72 36.76 72 32 72 C28.82514017 65.72083278 25.6967437 59.49670074 23 53 C20.56995175 47.35120363 17.95572062 41.83089496 15.1484375 36.359375 C12 29.89115646 12 29.89115646 12 26 C11.34 26 10.68 26 10 26 C9.35228492 24.08396843 8.70690052 22.16714887 8.0625 20.25 C7.70285156 19.18265625 7.34320313 18.1153125 6.97265625 17.015625 C6 14 6 14 5.55859375 11.671875 C5.37425781 11.12015625 5.18992187 10.5684375 5 10 C4.01 9.67 3.02 9.34 2 9 C0.29466783 5.67908998 0 3.81507216 0 0 Z " fill="#F4F7F8" transform="translate(278,430)"/>
<path d="M0 0 C5.94 0 11.88 0 18 0 C18 1.65 18 3.3 18 5 C18.4640625 4.6390625 18.928125 4.278125 19.40625 3.90625 C26.86244267 -1.1016406 34.35037688 -0.72080193 43 0 C44 1 44 1 44.09765625 4.81640625 C44.09098089 6.39846682 44.07901875 7.98051159 44.0625 9.5625 C44.05798828 10.36880859 44.05347656 11.17511719 44.04882812 12.00585938 C44.03700518 14.00393756 44.01906914 16.00197783 44 18 C43.21496094 17.97679687 42.42992187 17.95359375 41.62109375 17.9296875 C31.51791343 17.46791056 31.51791343 17.46791056 22.84838867 21.91113281 C20.13329778 26.44835774 20.41585512 30.53768984 20.42578125 35.734375 C20.40453438 37.28502655 20.40453438 37.28502655 20.38285828 38.86700439 C20.34098615 42.16144282 20.32571712 45.45533295 20.3125 48.75 C20.28348477 52.05869522 20.24901324 55.36725025 20.21000671 58.67584229 C20.18744211 60.73351707 20.17166996 62.79127914 20.16316223 64.84906006 C20.15612778 65.77382141 20.14909332 66.69858276 20.1418457 67.65136719 C20.13662651 68.87783966 20.13662651 68.87783966 20.13130188 70.12908936 C20 72 20 72 19 73 C12.73 73 6.46 73 0 73 C0 48.91 0 24.82 0 0 Z " fill="#FAFCFB" transform="translate(227,430)"/>
<path d="M0 0 C3.96224035 2.25795793 6.6467997 4.93346849 8.375 9.1875 C8.375 10.1775 8.375 11.1675 8.375 12.1875 C9.035 12.1875 9.695 12.1875 10.375 12.1875 C11.43712139 25.13526546 11.43712139 25.13526546 8.9921875 29.859375 C3.80119971 35.8368761 -1.40312678 38.71768545 -9.2734375 39.42578125 C-15.70988316 39.60098536 -19.49510253 39.18882003 -24.625 35.1875 C-29.31485118 29.81371219 -30.75871685 25.69290193 -30.6875 18.5 C-30.67847656 17.32050781 -30.66945313 16.14101563 -30.66015625 14.92578125 C-30.64855469 14.02214844 -30.63695312 13.11851562 -30.625 12.1875 C-29.965 12.1875 -29.305 12.1875 -28.625 12.1875 C-28.625 10.2075 -28.625 8.2275 -28.625 6.1875 C-27.635 5.8575 -26.645 5.5275 -25.625 5.1875 C-25.625 4.5275 -25.625 3.8675 -25.625 3.1875 C-24.965 3.1875 -24.305 3.1875 -23.625 3.1875 C-23.625 2.5275 -23.625 1.8675 -23.625 1.1875 C-16.87273537 -3.44262431 -7.31057092 -3.51990452 0 0 Z " fill="#032D41" transform="translate(673.625,451.8125)"/>
<path d="M0 0 C6.27 0 12.54 0 19 0 C19 23.76 19 47.52 19 72 C12.73 72 6.46 72 0 72 C0 48.24 0 24.48 0 0 Z " fill="#F6FAFA" transform="translate(364,430)"/>
<path d="M0 0 C0.66 0 1.32 0 2 0 C2 23.76 2 47.52 2 72 C1.34 72 0.68 72 0 72 C-0.33 60.78 -0.66 49.56 -1 38 C-1.99 38 -2.98 38 -4 38 C-4.495 38.99 -4.495 38.99 -5 40 C-3.02 39.505 -3.02 39.505 -1 39 C-1 45.27 -1 51.54 -1 58 C-3.97 58.495 -3.97 58.495 -7 59 C-6.67 59.99 -6.34 60.98 -6 62 C-8.35729128 66.26125732 -10.89654004 69.36206146 -15 72 C-18.3125 72.75 -18.3125 72.75 -21 73 C-19.6717914 68.71616238 -18.17477484 67.0216474 -14.375 64.6875 C-13.55773437 64.17574219 -12.74046875 63.66398437 -11.8984375 63.13671875 C-11.27195313 62.76160156 -10.64546875 62.38648438 -10 62 C-10.57272978 58.65061827 -11.5568386 57.13779587 -14.0625 54.875 C-15.72265625 53.3671875 -15.72265625 53.3671875 -17 52 C-17 51.34 -17 50.68 -17 50 C-17.721875 50.28875 -18.44375 50.5775 -19.1875 50.875 C-21.79166667 51.91666667 -24.39583333 52.95833333 -27 54 C-27 54.66 -27 55.32 -27 56 C-28.32 56 -29.64 56 -31 56 C-31 56.66 -31 57.32 -31 58 C-42.6330324 58.62134891 -42.6330324 58.62134891 -47.4375 56.4375 C-55.74396135 48.53623188 -55.74396135 48.53623188 -57 41 C-40.5 41 -24 41 -7 41 C-7 35.39 -7 29.78 -7 24 C-5 24 -3 24 -1 24 C-0.67 16.08 -0.34 8.16 0 0 Z " fill="#234556" transform="translate(225,430)"/>
<path d="M0 0 C1.06089844 -0.03738281 2.12179687 -0.07476562 3.21484375 -0.11328125 C6.0625 0.3125 6.0625 0.3125 7.94140625 2.20703125 C9.0625 4.3125 9.0625 4.3125 9.0625 6.3125 C9.7225 6.3125 10.3825 6.3125 11.0625 6.3125 C12.09257953 17.92950806 12.09257953 17.92950806 8.625 22.5625 C6.06210509 25.04057097 4.11184131 25.80181343 0.5625 26 C-5.07641565 25.52614154 -8.29170579 22.87167346 -12.3125 19.0625 C-14.45651504 15.43416685 -14.97738829 12.35735959 -13.9375 8.3125 C-10.17492226 2.33596645 -7.05069619 0.16237967 0 0 Z " fill="#F1F4F6" transform="translate(373.9375,395.6875)"/>
<path d="M0 0 C4.60408143 -0.02506619 9.20812154 -0.04302973 13.81225586 -0.05493164 C15.37248427 -0.05990307 16.93270817 -0.06668257 18.49291992 -0.07543945 C28.05602403 -0.12769685 37.47289338 0.06963079 47 1 C47 1.33 47 1.66 47 2 C43.37 2 39.74 2 36 2 C36.495 3.485 36.495 3.485 37 5 C36.34 5 35.68 5 35 5 C34.9071875 6.175625 34.9071875 6.175625 34.8125 7.375 C34.544375 8.24125 34.27625 9.1075 34 10 C31.4375 11.3125 31.4375 11.3125 29 12 C29 12.66 29 13.32 29 14 C27.68 14 26.36 14 25 14 C25 14.66 25 15.32 25 16 C13.3669676 16.62134891 13.3669676 16.62134891 8.5625 14.4375 C0.03487469 6.32585641 0.03487469 6.32585641 -0.06884766 2.38256836 C-0.04612793 1.5963208 -0.0234082 0.81007324 0 0 Z " fill="#0D3144" transform="translate(169,472)"/>
<path d="M0 0 C16.17 0 32.34 0 49 0 C49 0.33 49 0.66 49 1 C33.16 1 17.32 1 1 1 C1.33 1.99 1.66 2.98 2 4 C2.33 3.67 2.66 3.34 3 3 C4.51928038 2.92820036 6.04167482 2.91607993 7.5625 2.9375 C8.38878906 2.94652344 9.21507812 2.95554687 10.06640625 2.96484375 C10.70449219 2.97644531 11.34257812 2.98804688 12 3 C12 3.33 12 3.66 12 4 C24.87 4.495 24.87 4.495 38 5 C38.495 6.485 38.495 6.485 39 8 C37.68 8 36.36 8 35 8 C35 8.99 35 9.98 35 11 C33.54195831 11.81302325 32.08355685 12.62540131 30.625 13.4375 C29.81289063 13.88996094 29.00078125 14.34242188 28.1640625 14.80859375 C22.86613962 17.72532025 17.99142154 17.77095498 12 17 C7.12497269 14.9522051 3.88336864 12.31166858 0.9375 7.9375 C0 5 0 5 0 0 Z " fill="#163A4C" transform="translate(485,471)"/>
<path d="M0 0 C0.33 0.66 0.66 1.32 1 2 C1.99 2.33 2.98 2.66 4 3 C4 3.66 4 4.32 4 5 C6.31 5 8.62 5 11 5 C11.495 7.475 11.495 7.475 12 10 C12.763125 9.484375 13.52625 8.96875 14.3125 8.4375 C15.199375 7.963125 16.08625 7.48875 17 7 C17.99 7.33 18.98 7.66 20 8 C19.505 4.535 19.505 4.535 19 1 C25.93 1 32.86 1 40 1 C40 1.33 40 1.66 40 2 C33.73 2 27.46 2 21 2 C21.495 4.97 21.495 4.97 22 8 C22.66 8 23.32 8 24 8 C26.27471707 14.09299216 27.92742221 19.10482673 26.375 25.625 C25.76056562 27.98816121 25.76056562 27.98816121 26.96435547 29.85058594 C28.17022187 32.35328462 28.2307493 34.00155435 28.1953125 36.765625 C28.18886719 37.65507812 28.18242188 38.54453125 28.17578125 39.4609375 C28.15902344 40.38132812 28.14226563 41.30171875 28.125 42.25 C28.11597656 43.18585938 28.10695313 44.12171875 28.09765625 45.0859375 C28.07413636 47.39088657 28.04126853 49.6953116 28 52 C27.34 52 26.68 52 26 52 C25.97421875 50.99582031 25.9484375 49.99164063 25.921875 48.95703125 C25.41044195 34.95030936 23.23190108 23.346224 13 13 C10.4567646 10.85366345 8.07001683 9.04045417 5.1875 7.375 C4.465625 6.92125 3.74375 6.4675 3 6 C3 5.34 3 4.68 3 4 C-7.23235821 1.37150431 -17.52676785 1.81535928 -28 2 C-27.67 1.34 -27.34 0.68 -27 0 C-24.0003508 -0.19654959 -21.00064899 -0.38246106 -18 -0.5625 C-17.16082031 -0.61857422 -16.32164062 -0.67464844 -15.45703125 -0.73242188 C-10.15053424 -1.04093914 -5.23521089 -0.99350025 0 0 Z M17 6 C19 7 19 7 19 7 Z " fill="#033530" transform="translate(680,428)"/>
<path d="M0 0 C3.98634631 1.86549658 6.5473666 4.3210499 9 8 C9 9.65 9 11.3 9 13 C-0.57 13 -10.14 13 -20 13 C-20 11.68 -20 10.36 -20 9 C-19.34 9 -18.68 9 -18 9 C-17.95875 8.443125 -17.9175 7.88625 -17.875 7.3125 C-14.85284899 -0.6746134 -7.49075122 -1.37873247 0 0 Z " fill="#0F3245" transform="translate(189,444)"/>
<path d="M0 0 C0 0.66 0 1.32 0 2 C0.7425 2.226875 1.485 2.45375 2.25 2.6875 C5.5840064 4.27873033 7.01256359 5.90843224 9 9 C9 10.32 9 11.64 9 13 C-0.9 13 -10.8 13 -21 13 C-20.67 11.35 -20.34 9.7 -20 8 C-19.34 8 -18.68 8 -18 8 C-18 7.34 -18 6.68 -18 6 C-17.34 6 -16.68 6 -16 6 C-15.938125 5.38125 -15.87625 4.7625 -15.8125 4.125 C-15 2 -15 2 -13.0625 0.75 C-8.69900292 -0.31861153 -4.46932259 -0.15620933 0 0 Z " fill="#264757" transform="translate(506,444)"/>
<path d="M0 0 C2.16015625 0.47265625 2.16015625 0.47265625 5.22265625 2.41015625 C7.47006996 5.96251985 7.95935523 8.16434027 7.703125 12.3125 C6.97087298 15.22570408 5.47894629 16.96317852 3.02734375 18.67578125 C-0.32112439 20.1048346 -3.24863471 19.78224324 -6.83984375 19.47265625 C-6.83984375 18.81265625 -6.83984375 18.15265625 -6.83984375 17.47265625 C-7.49984375 17.47265625 -8.15984375 17.47265625 -8.83984375 17.47265625 C-11.59695831 14.92762742 -11.86041562 13.31065279 -12.33984375 9.53515625 C-12.187883 6.2831962 -11.76461472 5.35617259 -9.90234375 2.47265625 C-6.33177529 0.14085644 -4.19482315 -0.2731187 0 0 Z " fill="#1B394A" transform="translate(819.83984375,483.52734375)"/>
<path d="M0 0 C5.94 0 11.88 0 18 0 C18 1.65 18 3.3 18 5 C17.67 3.68 17.34 2.36 17 1 C11.72 1 6.44 1 1 1 C1 23.11 1 45.22 1 68 C8.92 67.505 8.92 67.505 17 67 C17.02505615 65.76846191 17.0501123 64.53692383 17.07592773 63.26806641 C17.16992612 58.70952507 17.27016515 54.15113882 17.37231445 49.59277344 C17.41569203 47.61787538 17.457365 45.64293913 17.49731445 43.66796875 C17.55494873 40.8332161 17.6186627 37.99865622 17.68359375 35.1640625 C17.70866249 33.83430893 17.70866249 33.83430893 17.73423767 32.47769165 C17.88612829 26.22774341 17.88612829 26.22774341 19 24 C19.66 24.33 20.32 24.66 21 25 C20.88270365 31.67534861 20.75786785 38.35052509 20.62768555 45.02563477 C20.58426335 47.29838836 20.54259384 49.57117613 20.50268555 51.84399414 C20.44515881 55.10313232 20.38141448 58.36209731 20.31640625 61.62109375 C20.29133751 63.15545326 20.29133751 63.15545326 20.26576233 64.72080994 C20.24581711 65.66170975 20.22587189 66.60260956 20.20532227 67.57202148 C20.18977798 68.40475082 20.1742337 69.23748016 20.15821838 70.09544373 C20 72 20 72 19 73 C12.73 73 6.46 73 0 73 C0 48.91 0 24.82 0 0 Z " fill="#BBCAD0" transform="translate(227,430)"/>
<path d="M0 0 C0.33 1.32 0.66 2.64 1 4 C0.34 4 -0.32 4 -1 4 C-0.85908002 12.28865683 -0.44900657 19.41578373 5 26 C8.6854758 29.53191431 12.35829994 30.25532933 17.375 30.4375 C23.20762166 30.18913287 29.21592327 29.5623938 33.66796875 25.46484375 C35.22518969 23.67426389 35.22518969 23.67426389 37 21 C38.0625 22.875 38.0625 22.875 39 25 C38.67 25.66 38.34 26.32 38 27 C37.01 27.33 36.02 27.66 35 28 C34.34 28.99 33.68 29.98 33 31 C30.6171875 31.73046875 30.6171875 31.73046875 27.875 32.1875 C26.96492187 32.34605469 26.05484375 32.50460937 25.1171875 32.66796875 C24.41851563 32.77753906 23.71984375 32.88710938 23 33 C23 33.33 23 33.66 23 34 C26.3 34.66 29.6 35.32 33 36 C33.33 36.99 33.66 37.98 34 39 C35.93505023 39.24900646 37.87325934 39.47356242 39.8125 39.6875 C40.89144531 39.81511719 41.97039063 39.94273437 43.08203125 40.07421875 C46.01096724 40.30322906 46.01096724 40.30322906 47.76171875 38.51953125 C48.37466797 37.76736328 48.37466797 37.76736328 49 37 C49.66 37 50.32 37 51 37 C51 35.68 51 34.36 51 33 C51.66 33 52.32 33 53 33 C53 32.01 53 31.02 53 30 C53.66 30 54.32 30 55 30 C55.33 29.34 55.66 28.68 56 28 C56 32.49723178 55.45862274 33.19948311 52.75 36.5625 C52.14671875 37.32691406 51.5434375 38.09132813 50.921875 38.87890625 C48.07141387 42.02484201 46.22964178 43.87452635 41.9375 44.3125 C39 44 39 44 36 42 C36 41.34 36 40.68 36 40 C34.948125 39.814375 34.948125 39.814375 33.875 39.625 C31 39 31 39 28.375 37.9375 C20.48611884 35.74614412 12.78951374 36.95684885 5 39 C5 38.01 5 37.02 5 36 C6.32 36 7.64 36 9 36 C9 35.34 9 34.68 9 34 C10.485 33.505 10.485 33.505 12 33 C11.278125 32.7525 10.55625 32.505 9.8125 32.25 C5.22953079 30.21312479 1.61129394 27.308635 -1 23 C-2.10722301 18.79255257 -2.16611566 14.71174443 -2.1875 10.375 C-2.20167969 9.06273437 -2.21585938 7.75046875 -2.23046875 6.3984375 C-2 3 -2 3 0 0 Z " fill="#5CBF5B" transform="translate(644,460)"/>
<path d="M0 0 C2 0.66666667 4 1.33333333 6 2 C7.55421729 2.08106686 9.11167027 2.10756898 10.66796875 2.09765625 C11.56064453 2.09443359 12.45332031 2.09121094 13.37304688 2.08789062 C14.30181641 2.07951172 15.23058594 2.07113281 16.1875 2.0625 C17.12787109 2.05798828 18.06824219 2.05347656 19.03710938 2.04882812 C21.35810008 2.03704645 23.67905807 2.01911114 26 2 C26 5.63 26 9.26 26 13 C26.66 13 27.32 13 28 13 C27.95875 11.906875 27.9175 10.81375 27.875 9.6875 C28 6 28 6 30 3 C32.06298828 2.65942383 32.06298828 2.65942383 34.5703125 2.70703125 C35.46621094 2.71669922 36.36210937 2.72636719 37.28515625 2.73632812 C38.69087891 2.7740332 38.69087891 2.7740332 40.125 2.8125 C41.06988281 2.82603516 42.01476562 2.83957031 42.98828125 2.85351562 C45.32608779 2.88893694 47.66276237 2.93832729 50 3 C50 3.33 50 3.66 50 4 C43.73 4 37.46 4 31 4 C31.66 5.65 32.32 7.3 33 9 C33 9.99 33 10.98 33 12 C32.01 12 31.02 12 30 12 C28.23086042 13.0153062 28.23086042 13.0153062 27 15 C26.26958147 18.61023099 26.26958147 18.61023099 26 22 C25.34 22 24.68 22 24 22 C23.67 16.39 23.34 10.78 23 5 C19.225625 4.87625 19.225625 4.87625 15.375 4.75 C14.59431152 4.71358398 13.81362305 4.67716797 13.00927734 4.63964844 C7.82145718 4.55799196 5.24444488 5.83844868 1 9 C0.01 9 -0.98 9 -2 9 C-2 7.35 -2 5.7 -2 4 C-7.94 4 -13.88 4 -20 4 C-20 3.67 -20 3.34 -20 3 C-13.4 3 -6.8 3 0 3 C0 2.01 0 1.02 0 0 Z " fill="#44606F" transform="translate(247,426)"/>
<path d="M0 0 C0.33 0 0.66 0 1 0 C1 5.61 1 11.22 1 17 C1.66 17 2.32 17 3 17 C3.4125 18.175625 3.825 19.35125 4.25 20.5625 C5.77813175 24.66432733 7.73887533 28.25744882 10 32 C7.69 31.67 5.38 31.34 3 31 C2.505 33.475 2.505 33.475 2 36 C-0.375 35.75 -0.375 35.75 -3 35 C-4.375 33.125 -4.375 33.125 -5 31 C-4.67 30.01 -4.34 29.02 -4 28 C-3.92026524 26.66474283 -3.89228662 25.32587917 -3.90234375 23.98828125 C-3.90556641 23.23095703 -3.90878906 22.47363281 -3.91210938 21.69335938 C-3.92467773 20.51483398 -3.92467773 20.51483398 -3.9375 19.3125 C-3.94201172 18.51521484 -3.94652344 17.71792969 -3.95117188 16.89648438 C-3.9629415 14.93095743 -3.98087652 12.96546915 -4 11 C-4.66 11 -5.32 11 -6 11 C-6.33 10.01 -6.66 9.02 -7 8 C-6.34 8 -5.68 8 -5 8 C-5 8.66 -5 9.32 -5 10 C-4.34 10 -3.68 10 -3 10 C-3 10.99 -3 11.98 -3 13 C-2.34 13 -1.68 13 -1 13 C-0.67 8.71 -0.34 4.42 0 0 Z M-2 8 C-1.67 8.66 -1.34 9.32 -1 10 C-1.66 9.67 -2.32 9.34 -3 9 C-2.67 8.67 -2.34 8.34 -2 8 Z " fill="#1E3E50" transform="translate(148,460)"/>
<path d="M0 0 C0.66 0 1.32 0 2 0 C2 1.32 2 2.64 2 4 C1.34 4 0.68 4 0 4 C-0.33 6.64 -0.66 9.28 -1 12 C-1.99 12.33 -2.98 12.66 -4 13 C-4 15.64 -4 18.28 -4 21 C-3.34 21 -2.68 21 -2 21 C-1.608125 22.093125 -1.21625 23.18625 -0.8125 24.3125 C0.74871622 27.94067853 2.29313417 29.41134322 6 31 C8.69254991 31.70670728 8.69254991 31.70670728 11 32 C11 32.66 11 33.32 11 34 C16.3503559 33.42978066 21.67787852 32.79265639 27 32 C27 31.34 27 30.68 27 30 C27.99 30.33 28.98 30.66 30 31 C22.98045257 36.06060396 16.53219795 36.85812336 8 36 C2.30053512 34.23486722 -1.16649341 30.04645182 -4 25 C-5.14077657 21.57767028 -5.09815117 18.91326783 -5.0625 15.3125 C-5.05347656 14.13300781 -5.04445313 12.95351563 -5.03515625 11.73828125 C-5.02355469 10.83464844 -5.01195312 9.93101562 -5 9 C-4.34 9 -3.68 9 -3 9 C-3 7.02 -3 5.04 -3 3 C-2.01 2.67 -1.02 2.34 0 2 C0 1.34 0 0.68 0 0 Z " fill="#084031" transform="translate(648,455)"/>
<path d="M0 0 C2.16015625 0.47265625 2.16015625 0.47265625 5.22265625 2.41015625 C7.47006996 5.96251985 7.95935523 8.16434027 7.703125 12.3125 C6.97087298 15.22570408 5.47894629 16.96317852 3.02734375 18.67578125 C-0.32112439 20.1048346 -3.24863471 19.78224324 -6.83984375 19.47265625 C-6.83984375 18.81265625 -6.83984375 18.15265625 -6.83984375 17.47265625 C-7.49984375 17.47265625 -8.15984375 17.47265625 -8.83984375 17.47265625 C-11.59695831 14.92762742 -11.86041562 13.31065279 -12.33984375 9.53515625 C-12.187883 6.2831962 -11.76461472 5.35617259 -9.90234375 2.47265625 C-6.33177529 0.14085644 -4.19482315 -0.2731187 0 0 Z M-7.83984375 4.53515625 C-9.1096358 8.26517038 -8.77169906 10.67355381 -7.83984375 14.47265625 C-5.90252847 16.83676113 -5.90252847 16.83676113 -2.40234375 16.78515625 C0.99251253 16.71426672 0.99251253 16.71426672 3.09765625 15.47265625 C4.81902192 12.23243853 4.6897604 9.05307869 4.16015625 5.47265625 C3.26258069 3.32485548 3.26258069 3.32485548 1.16015625 2.47265625 C-3.89832582 1.70289919 -3.89832582 1.70289919 -7.83984375 4.53515625 Z " fill="#7A97A7" transform="translate(819.83984375,483.52734375)"/>
<path d="M0 0 C3.33773709 3.64116773 3.97864902 7.28607242 5 12 C6.32 11.67 7.64 11.34 9 11 C9 11.66 9 12.32 9 13 C8.34 13 7.68 13 7 13 C7.66 14.65 8.32 16.3 9 18 C10.87880872 17.95231597 10.87880872 17.95231597 13 17 C15.26325246 14.02236957 15.26325246 14.02236957 17 11 C17.33 11.99 17.66 12.98 18 14 C16.5625 16.6875 16.5625 16.6875 15 19 C15.99 19 16.98 19 18 19 C17.71125 19.639375 17.4225 20.27875 17.125 20.9375 C15.6752275 24.88410292 14.84221938 28.8874607 14 33 C13.01 33 12.02 33 11 33 C10.76925781 32.26136719 10.53851562 31.52273438 10.30078125 30.76171875 C8.26591104 24.43190508 5.92089625 18.43083967 3.10546875 12.41015625 C1.12002531 8.08146861 0 4.77369018 0 0 Z " fill="#335261" transform="translate(723,437)"/>
<path d="M0 0 C5.92578649 5.77384324 5.92578649 5.77384324 6.12025452 8.98684692 C6.11803391 9.79959076 6.11581329 10.61233459 6.11352539 11.44970703 C6.11344986 12.37051056 6.11337433 13.29131409 6.11329651 14.24002075 C6.10813522 15.23589203 6.10297394 16.23176331 6.09765625 17.2578125 C6.0962413 18.27600067 6.09482635 19.29418884 6.09336853 20.3432312 C6.087759 23.60385035 6.07520488 26.86440151 6.0625 30.125 C6.05748623 32.33203026 6.05292311 34.53906159 6.04882812 36.74609375 C6.03778648 42.16408581 6.02103905 47.58203805 6 53 C5.67 53 5.34 53 5 53 C5 38.48 5 23.96 5 9 C4.34 9 3.68 9 3 9 C3 21.54 3 34.08 3 47 C2.67 47 2.34 47 2 47 C1.97529746 41.35832031 1.95713879 35.71667205 1.94506836 30.07495117 C1.94003685 28.15534924 1.93321102 26.23575114 1.92456055 24.31616211 C1.91244331 21.55842136 1.90675989 18.80073124 1.90234375 16.04296875 C1.89718246 15.18350143 1.89202118 14.32403412 1.88670349 13.43852234 C1.88662796 12.63791885 1.88655243 11.83731537 1.88647461 11.01245117 C1.884254 10.3085173 1.88203339 9.60458344 1.87974548 8.87931824 C2 7 2 7 3 4 C2.01 3.67 1.02 3.34 0 3 C0 2.01 0 1.02 0 0 Z " fill="#234152" transform="translate(588,449)"/>
<path d="M0 0 C6.33541445 -0.05070815 12.67077657 -0.08573696 19.00634766 -0.10986328 C21.16164099 -0.1199211 23.31692068 -0.13356899 25.47216797 -0.15087891 C28.57002124 -0.17513662 31.66769409 -0.18648532 34.765625 -0.1953125 C35.72929993 -0.20563507 36.69297485 -0.21595764 37.68585205 -0.22659302 C38.58648376 -0.22674408 39.48711548 -0.22689514 40.41503906 -0.22705078 C41.20557678 -0.231492 41.9961145 -0.23593323 42.81060791 -0.24050903 C45 0 45 0 49 2 C33.49 2 17.98 2 2 2 C1.67 2.66 1.34 3.32 1 4 C0.67 2.68 0.34 1.36 0 0 Z " fill="#052639" transform="translate(486,472)"/>
<path d="M0 0 C3.98877783 1.85623409 6.54933924 4.32400886 9 8 C9 9.65 9 11.3 9 13 C-0.57 13 -10.14 13 -20 13 C-19.67 11.68 -19.34 10.36 -19 9 C-19 9.99 -19 10.98 -19 12 C-10.09 12 -1.18 12 8 12 C8 11.34 8 10.68 8 10 C7.34 10 6.68 10 6 10 C6 8.68 6 7.36 6 6 C4.68 6 3.36 6 2 6 C2 5.34 2 4.68 2 4 C1.34 4 0.68 4 0 4 C0 3.34 0 2.68 0 2 C-5.6488434 1.66771509 -9.20775237 1.65994862 -14 5 C-14.66 4.67 -15.32 4.34 -16 4 C-11.45896174 -1.01080083 -6.33458811 -1.06935822 0 0 Z " fill="#576E79" transform="translate(189,444)"/>
<path d="M0 0 C4.29 0 8.58 0 13 0 C13 3.63 13 7.26 13 11 C13.66 11 14.32 11 15 11 C14.95875 9.906875 14.9175 8.81375 14.875 7.6875 C15 4 15 4 17 1 C19.06298828 0.65942383 19.06298828 0.65942383 21.5703125 0.70703125 C22.46621094 0.71669922 23.36210937 0.72636719 24.28515625 0.73632812 C25.69087891 0.7740332 25.69087891 0.7740332 27.125 0.8125 C28.06988281 0.82603516 29.01476562 0.83957031 29.98828125 0.85351562 C32.32608779 0.88893694 34.66276237 0.93832729 37 1 C37 1.33 37 1.66 37 2 C30.73 2 24.46 2 18 2 C18.66 3.65 19.32 5.3 20 7 C20 7.99 20 8.98 20 10 C19.01 10 18.02 10 17 10 C15.23086042 11.0153062 15.23086042 11.0153062 14 13 C13.26958147 16.61023099 13.26958147 16.61023099 13 20 C12.67 20 12.34 20 12 20 C11.67 14.06 11.34 8.12 11 2 C7.37 1.67 3.74 1.34 0 1 C0 0.67 0 0.34 0 0 Z " fill="#2E4B5B" transform="translate(260,428)"/>
<path d="M0 0 C6.05607055 5.31814599 7.54000907 12.78648309 8.390625 20.578125 C8.6340703 28.47270835 7.27823947 34.82885116 4 42 C3.67 42 3.34 42 3 42 C3 39.69 3 37.38 3 35 C3.66 35 4.32 35 5 35 C4.979375 34.030625 4.95875 33.06125 4.9375 32.0625 C5 29 5 29 6 28 C6.23075082 26.65252916 6.41153063 25.29622435 6.5625 23.9375 C6.706875 22.638125 6.85125 21.33875 7 20 C6.34 20 5.68 20 5 20 C4.96261719 19.39671875 4.92523437 18.7934375 4.88671875 18.171875 C4.49304944 13.38609123 4.03487126 10.79358908 1 7 C0.3125 3.25 0.3125 3.25 0 0 Z " fill="#449B4E" transform="translate(698,447)"/>
<path d="M0 0 C6.93 0 13.86 0 21 0 C21 0.33 21 0.66 21 1 C14.73 1 8.46 1 2 1 C2.33 2.98 2.66 4.96 3 7 C3.66 7 4.32 7 5 7 C5.99 10.63 6.98 14.26 8 18 C4 15 4 15 3.25 11.8125 C3.12625 10.4203125 3.12625 10.4203125 3 9 C2.67 9.99 2.34 10.98 2 12 C1.38125 11.649375 0.7625 11.29875 0.125 10.9375 C-0.57625 10.628125 -1.2775 10.31875 -2 10 C-2.99 10.495 -2.99 10.495 -4 11 C-4.33 10.01 -4.66 9.02 -5 8 C-4.01 7.34 -3.02 6.68 -2 6 C-1.01 6.33 -0.02 6.66 1 7 C0.67 4.69 0.34 2.38 0 0 Z M-2 5 C0 6 0 6 0 6 Z " fill="#335160" transform="translate(699,429)"/>
<path d="M0 0 C4.01767292 2.06312934 6.05263153 3.90027691 8 8 C8 8.99 8 9.98 8 11 C8.66 11 9.32 11 10 11 C10.86140345 26.04584699 10.86140345 26.04584699 7.5 29.9375 C6.2625 30.9584375 6.2625 30.9584375 5 32 C3.74696699 28.24090098 4.86320469 26.79369298 6.29296875 23.26171875 C7.77774138 18.51208698 7.5604177 13.68125311 6 9 C5.34 8.67 4.68 8.34 4 8 C4 6.68 4 5.36 4 4 C2.68 3.67 1.36 3.34 0 3 C0 2.01 0 1.02 0 0 Z " fill="#0F4D33" transform="translate(674,453)"/>
<path d="M0 0 C1.07077375 3.21232125 1 5.63937807 1 9 C0.34 9 -0.32 9 -1 9 C-1.268125 9.639375 -1.53625 10.27875 -1.8125 10.9375 C-3 13 -3 13 -6 14 C-7.01466015 16.72307331 -7.17209858 19.44197161 -7.31640625 22.328125 C-7.35830078 23.12734375 -7.40019531 23.9265625 -7.44335938 24.75 C-7.48267578 25.575 -7.52199219 26.4 -7.5625 27.25 C-7.60568359 28.09046875 -7.64886719 28.9309375 -7.69335938 29.796875 C-7.79908543 31.86440671 -7.90001295 33.93218281 -8 36 C-8.33 36 -8.66 36 -9 36 C-9.52943431 21.67586059 -9.10464599 11.63371432 0 0 Z " fill="#4EAB52" transform="translate(630,444)"/>
<path d="M0 0 C0.33 1.32 0.66 2.64 1 4 C0.236875 3.690625 -0.52625 3.38125 -1.3125 3.0625 C-5.55173764 1.38652233 -8.75736765 0.83876951 -13.3125 0.8125 C-14.97732422 0.79123047 -14.97732422 0.79123047 -16.67578125 0.76953125 C-20.0961836 1.00666843 -22.80973443 1.77891499 -26 3 C-26 3.66 -26 4.32 -26 5 C-26.66 5 -27.32 5 -28 5 C-28 5.66 -28 6.32 -28 7 C-28.66 7 -29.32 7 -30 7 C-30 6.01 -30 5.02 -30 4 C-29.34 4 -28.68 4 -28 4 C-27.67 3.01 -27.34 2.02 -27 1 C-18.7099986 -3.97400084 -8.91105325 -2.74186254 0 0 Z " fill="#63C662" transform="translate(676,450)"/>
<path d="M0 0 C0.99 0 1.98 0 3 0 C3 0.66 3 1.32 3 2 C3.66 2 4.32 2 5 2 C3.94124926 5.40312738 2.99097846 8.01353231 1 11 C0.6349209 13.22131423 0.6349209 13.22131423 0.5859375 15.66796875 C0.54726563 16.56064453 0.50859375 17.45332031 0.46875 18.37304688 C0.4378125 19.30181641 0.406875 20.23058594 0.375 21.1875 C0.33632813 22.12787109 0.29765625 23.06824219 0.2578125 24.03710938 C0.16356813 26.3578771 0.07795975 28.67863748 0 31 C-0.33 31 -0.66 31 -1 31 C-1.22693321 26.95915379 -1.42824509 22.91741914 -1.625 18.875 C-1.68945312 17.73289062 -1.75390625 16.59078125 -1.8203125 15.4140625 C-1.871875 14.30546875 -1.9234375 13.196875 -1.9765625 12.0546875 C-2.02893066 11.03874512 -2.08129883 10.02280273 -2.13525391 8.97607422 C-1.98523734 5.67516814 -1.17450289 3.07455194 0 0 Z " fill="#2C4C5B" transform="translate(466,443)"/>
<path d="M0 0 C3.182865 0.9851725 6.08943312 2.04562914 9.0625 3.5625 C13.47066232 5.71968582 17.43305904 6.12612246 22.30078125 6.09765625 C23.27724609 6.09443359 24.25371094 6.09121094 25.25976562 6.08789062 C26.77086914 6.07532227 26.77086914 6.07532227 28.3125 6.0625 C29.33923828 6.05798828 30.36597656 6.05347656 31.42382812 6.04882812 C33.94927882 6.03708184 36.47460905 6.02065565 39 6 C39 5.34 39 4.68 39 4 C40.32 4.33 41.64 4.66 43 5 C37.44945481 8.70036346 31.14348942 8.15562129 24.6875 8.125 C23.4819043 8.13080078 23.4819043 8.13080078 22.25195312 8.13671875 C16.76294041 8.12788687 11.44581326 7.68823718 6 7 C5.67 5.68 5.34 4.36 5 3 C4.360625 2.87625 3.72125 2.7525 3.0625 2.625 C2.381875 2.41875 1.70125 2.2125 1 2 C0.67 1.34 0.34 0.68 0 0 Z " fill="#738793" transform="translate(91,496)"/>
<path d="M0 0 C1.74948531 2.62422797 2.57610997 4.43261109 3.5 7.375 C3.75910156 8.16777344 4.01820313 8.96054687 4.28515625 9.77734375 C4.83812794 11.49669289 5.38837793 13.21691751 5.9375 14.9375 C7.27587376 17.53551965 8.40786066 17.74096089 11 19 C12.80699332 20.9099559 14.3763593 22.92534799 16 25 C14.35 25.33 12.7 25.66 11 26 C11 25.01 11 24.02 11 23 C10.34 22.67 9.68 22.34 9 22 C9.33 21.34 9.66 20.68 10 20 C9.01 20.33 8.02 20.66 7 21 C7 20.34 7 19.68 7 19 C4.525 18.01 4.525 18.01 2 17 C2.04125 15.96875 2.0825 14.9375 2.125 13.875 C2.0032453 10.10060421 1.25169779 7.52040004 0 4 C0 2.68 0 1.36 0 0 Z " fill="#314E5E" transform="translate(466,474)"/>
<path d="M0 0 C0.66 0.33 1.32 0.66 2 1 C0.63692947 5.00401967 -1.15619164 7.63435702 -4 10.75 C-4.70125 11.52859375 -5.4025 12.3071875 -6.125 13.109375 C-8.65962933 15.66512624 -9.4736873 15.98947375 -13.125 16.0625 C-14.07375 16.041875 -15.0225 16.02125 -16 16 C-16.33 14.68 -16.66 13.36 -17 12 C-15.741875 12.061875 -14.48375 12.12375 -13.1875 12.1875 C-9.86656162 12.2600349 -9.86656162 12.2600349 -7.125 10.5 C-6.75375 10.005 -6.3825 9.51 -6 9 C-5.34 9 -4.68 9 -4 9 C-4 7.68 -4 6.36 -4 5 C-3.34 5 -2.68 5 -2 5 C-2 4.01 -2 3.02 -2 2 C-1.34 2 -0.68 2 0 2 C0 1.34 0 0.68 0 0 Z " fill="#5DBF5D" transform="translate(699,488)"/>
<path d="M0 0 C2.66666667 0.66666667 5.33333333 1.33333333 8 2 C8 2.66 8 3.32 8 4 C13.67270448 5.32991576 13.67270448 5.32991576 19.15625 3.953125 C21.29101458 2.43812526 21.29101458 2.43812526 24 0 C23.18198384 3.06756062 22.40347941 5.48354636 20.4375 8 C16.44034829 9.63985711 12.9601278 8.43004615 9 7 C5.625 4.9375 5.625 4.9375 3 3 C2.01 2.67 1.02 2.34 0 2 C0 1.34 0 0.68 0 0 Z " fill="#0A4634" transform="translate(672,498)"/>
<path d="M0 0 C1.32 0 2.64 0 4 0 C3.67 1.65 3.34 3.3 3 5 C4.32 5.33 5.64 5.66 7 6 C6.01 6.495 6.01 6.495 5 7 C7.96178773 8.67110042 10.37071192 9.32682752 13.75 9.625 C14.54921875 9.69976562 15.3484375 9.77453125 16.171875 9.8515625 C16.77515625 9.90054687 17.3784375 9.94953125 18 10 C18 10.33 18 10.66 18 11 C16.10489301 11.08160748 14.20875496 11.13946459 12.3125 11.1875 C10.72888672 11.23970703 10.72888672 11.23970703 9.11328125 11.29296875 C4.68606364 10.8763548 2.09390173 9.24478473 -0.8125 5.9375 C-2 4 -2 4 -2 2 C-1.34 2 -0.68 2 0 2 C0 1.34 0 0.68 0 0 Z " fill="#0C2E41" transform="translate(491,477)"/>
<path d="M0 0 C1.0625 1.875 1.0625 1.875 2 4 C1.67 4.66 1.34 5.32 1 6 C0.01 6.33 -0.98 6.66 -2 7 C-2.99 8.485 -2.99 8.485 -4 10 C-7.6959945 11.53999771 -11.81121006 11.11089723 -15.75 11.0625 C-16.44738281 11.05798828 -17.14476562 11.05347656 -17.86328125 11.04882812 C-19.57555803 11.0371002 -21.28779033 11.01916653 -23 11 C-23 10.67 -23 10.34 -23 10 C-22.05898438 9.90203125 -21.11796875 9.8040625 -20.1484375 9.703125 C-9.25694956 8.4805728 -9.25694956 8.4805728 -1.125 1.75 C-0.75375 1.1725 -0.3825 0.595 0 0 Z " fill="#47A152" transform="translate(681,481)"/>
<path d="M0 0 C0.66 0.33 1.32 0.66 2 1 C1.67 2.65 1.34 4.3 1 6 C0.34 6 -0.32 6 -1 6 C-1.06058594 6.69867188 -1.12117187 7.39734375 -1.18359375 8.1171875 C-1.26738281 9.02726562 -1.35117187 9.93734375 -1.4375 10.875 C-1.51871094 11.77992188 -1.59992187 12.68484375 -1.68359375 13.6171875 C-2 16 -2 16 -3 18 C-3.99 18 -4.98 18 -6 18 C-6.33 15.69 -6.66 13.38 -7 11 C-5.68 11.33 -4.36 11.66 -3 12 C-3.66 11.34 -4.32 10.68 -5 10 C-5.125 7.375 -5.125 7.375 -5 5 C-4.34 5 -3.68 5 -3 5 C-3 4.34 -3 3.68 -3 3 C-2.34 3 -1.68 3 -1 3 C-0.67 2.01 -0.34 1.02 0 0 Z " fill="#153649" transform="translate(787,452)"/>
<path d="M0 0 C0.99 0.33 1.98 0.66 3 1 C2.48050781 1.60585938 1.96101562 2.21171875 1.42578125 2.8359375 C-2.81646491 7.93290608 -6.22315827 12.83925735 -8.9921875 18.87109375 C-10 21 -10 21 -12 24 C-11.505 19.545 -11.505 19.545 -11 15 C-10.34 15 -9.68 15 -9 15 C-9 13.68 -9 12.36 -9 11 C-8.34 11 -7.68 11 -7 11 C-6.67 9.68 -6.34 8.36 -6 7 C-5.34 7 -4.68 7 -4 7 C-3.71125 6.030625 -3.4225 5.06125 -3.125 4.0625 C-2 1 -2 1 0 0 Z " fill="#073F2F" transform="translate(633,437)"/>
<path d="M0 0 C0.33 0.66 0.66 1.32 1 2 C1.99 2.33 2.98 2.66 4 3 C4 3.66 4 4.32 4 5 C4.99 5 5.98 5 7 5 C7.495 6.485 7.495 6.485 8 8 C5.525 7.01 5.525 7.01 3 6 C3 5.34 3 4.68 3 4 C-7.23235821 1.37150431 -17.52676785 1.81535928 -28 2 C-27.67 1.34 -27.34 0.68 -27 0 C-24.0003508 -0.19654959 -21.00064899 -0.38246106 -18 -0.5625 C-17.16082031 -0.61857422 -16.32164062 -0.67464844 -15.45703125 -0.73242188 C-10.15053424 -1.04093914 -5.23521089 -0.99350025 0 0 Z " fill="#1B603B" transform="translate(680,428)"/>
<path d="M0 0 C6.6 0 13.2 0 20 0 C20 2.64 20 5.28 20 8 C19.01 8.495 19.01 8.495 18 9 C17.34786708 11.02463255 17.34786708 11.02463255 17 13 C17.66 13 18.32 13 19 13 C18.67 13.99 18.34 14.98 18 16 C17.34 15.67 16.68 15.34 16 15 C15.67 15.99 15.34 16.98 15 18 C14.34 18 13.68 18 13 18 C13.43191634 16.47757149 13.87087562 14.95714081 14.3125 13.4375 C14.55613281 12.59058594 14.79976563 11.74367188 15.05078125 10.87109375 C16.16322594 7.50629192 17.60397843 4.25738366 19 1 C12.73 1 6.46 1 0 1 C0 0.67 0 0.34 0 0 Z " fill="#4D6774" transform="translate(337,429)"/>
<path d="M0 0 C1.2065625 0.0309375 1.2065625 0.0309375 2.4375 0.0625 C3.13824844 3.215868 3.4375 5.78974974 3.4375 9.0625 C2.7775 9.0625 2.1175 9.0625 1.4375 9.0625 C1.4375 8.4025 1.4375 7.7425 1.4375 7.0625 C0.7775 7.0625 0.1175 7.0625 -0.5625 7.0625 C-0.5625 7.7225 -0.5625 8.3825 -0.5625 9.0625 C-1.5525 9.0625 -2.5425 9.0625 -3.5625 9.0625 C-3.66015625 2.91015625 -3.66015625 2.91015625 -3.5625 1.0625 C-2.5625 0.0625 -2.5625 0.0625 0 0 Z " fill="#8CA2AE" transform="translate(817.5625,487.9375)"/>
<path d="M0 0 C0.36191797 3.07630279 0.48225134 5.93206065 0 9 C-2.6352765 12.22821371 -4.06431379 13.73635815 -8.1796875 14.296875 C-10.375 14.3125 -10.375 14.3125 -14 14 C-12.6993321 11.3986642 -11.69919978 11.35811992 -9 10.4375 C-6.26066983 9.60962158 -6.26066983 9.60962158 -4 8 C-3.855625 6.845 -3.71125 5.69 -3.5625 4.5 C-3.376875 3.345 -3.19125 2.19 -3 1 C-1 0 -1 0 0 0 Z " fill="#708B9A" transform="translate(827,489)"/>
<path d="M0 0 C3.5625 0.3125 3.5625 0.3125 5.5 1.3125 C7.23528693 4.57892246 6.74232715 7.65601452 6.5625 11.3125 C5.9025 11.3125 5.2425 11.3125 4.5625 11.3125 C4.418125 10.178125 4.27375 9.04375 4.125 7.875 C3.95078522 4.50472799 3.95078522 4.50472799 2.5625 3.3125 C0.89632885 3.27186168 -0.77138095 3.269779 -2.4375 3.3125 C-3.0975 5.2925 -3.7575 7.2725 -4.4375 9.3125 C-5.0975 9.3125 -5.7575 9.3125 -6.4375 9.3125 C-5.45790816 0.49617347 -5.45790816 0.49617347 0 0 Z " fill="#17313E" transform="translate(817.4375,485.6875)"/>
<path d="M0 0 C0.33 0 0.66 0 1 0 C1 9.57 1 19.14 1 29 C0.67 29 0.34 29 0 29 C0 24.71 0 20.42 0 16 C-0.66 16 -1.32 16 -2 16 C-2 15.01 -2 14.02 -2 13 C-2.66 13 -3.32 13 -4 13 C-4.33 12.01 -4.66 11.02 -5 10 C-4.01 10 -3.02 10 -2 10 C-1.34 6.7 -0.68 3.4 0 0 Z M-1 11 C-1.33 11.66 -1.66 12.32 -2 13 C-1.34 13 -0.68 13 0 13 C-0.33 12.34 -0.66 11.68 -1 11 Z " fill="#032336" transform="translate(147,457)"/>
<path d="M0 0 C-4.77899344 6.70459519 -4.77899344 6.70459519 -9.875 7.9375 C-10.90625 7.958125 -11.9375 7.97875 -13 8 C-12.06601394 4.85841051 -11.33205059 3.2674852 -8.75 1.1875 C-5.62298529 -0.16280181 -3.3717092 -0.23523553 0 0 Z " fill="#1F3E4C" transform="translate(217,495)"/>
<path d="M0 0 C2.84880302 4.27320453 4.28990619 6.78168857 4 12 C4.66 12 5.32 12 6 12 C6.33 13.65 6.66 15.3 7 17 C6.2575 16.236875 5.515 15.47375 4.75 14.6875 C2.5736677 12.5606298 0.47832204 10.7440044 -2 9 C-1.41196203 5.97580475 -0.77321882 2.98241547 0 0 Z " fill="#2C4C5C" transform="translate(707,447)"/>
<path d="M0 0 C-1.32 0.33 -2.64 0.66 -4 1 C-4 1.66 -4 2.32 -4 3 C-7.3 3.66 -10.6 4.32 -14 5 C-14 5.66 -14 6.32 -14 7 C-15.98 7 -17.96 7 -20 7 C-16.92000054 3.32769295 -14.7517398 2.43197635 -10 2 C-10 1.34 -10 0.68 -10 0 C-6.33694766 -0.74926071 -3.57644848 -1.2380014 0 0 Z " fill="#5BBB59" transform="translate(658,430)"/>
<path d="M0 0 C3.63 0 7.26 0 11 0 C11 0.33 11 0.66 11 1 C8.03 1 5.06 1 2 1 C2 1.66 2 2.32 2 3 C1.1028125 3.1546875 1.1028125 3.1546875 0.1875 3.3125 C-2.05300235 3.83135614 -2.05300235 3.83135614 -3.4375 5.4375 C-5.4059332 7.4059332 -7.39887205 8.08609018 -10 9 C-10 10.65 -10 12.3 -10 14 C-10.33 14 -10.66 14 -11 14 C-11.4375 11.375 -11.4375 11.375 -11 8 C-8.98664379 5.53738248 -6.76087265 3.5824514 -4 2 C-2.68 2 -1.36 2 0 2 C0 1.34 0 0.68 0 0 Z " fill="#526A77" transform="translate(573,446)"/>
<path d="M0 0 C3.42430894 1.23655601 6.40112619 2.40112619 9 5 C9.25 7.6875 9.25 7.6875 9 10 C8.67 8.68 8.34 7.36 8 6 C7.34 6.66 6.68 7.32 6 8 C5.01 7.67 4.02 7.34 3 7 C1.33637583 6.65179959 -0.32995171 6.31595508 -2 6 C-1.34 4.02 -0.68 2.04 0 0 Z " fill="#12384B" transform="translate(117,474)"/>
<path d="M0 0 C0 0.33 0 0.66 0 1 C-3.3 1.66 -6.6 2.32 -10 3 C-8.35 3.33 -6.7 3.66 -5 4 C-5 4.33 -5 4.66 -5 5 C-9.95 5.66 -14.9 6.32 -20 7 C-14.16774588 -0.29031765 -8.7605407 -0.35757309 0 0 Z " fill="#445F6D" transform="translate(268,447)"/>
<path d="M0 0 C0.66 0 1.32 0 2 0 C2 1.32 2 2.64 2 4 C2.66 4 3.32 4 4 4 C3.67 4.66 3.34 5.32 3 6 C-3.27 5.67 -9.54 5.34 -16 5 C-16 4.67 -16 4.34 -16 4 C-11.9472484 3.01751476 -8.16138263 2.91840426 -4 3 C-4 2.34 -4 1.68 -4 1 C-3.01 1 -2.02 1 -1 1 C-0.67 0.67 -0.34 0.34 0 0 Z " fill="#04283A" transform="translate(193,450)"/>
<path d="M0 0 C0.66 0.33 1.32 0.66 2 1 C2.35919668 2.66128463 2.68911632 4.32900023 3 6 C3.99083967 8.23408113 3.99083967 8.23408113 5 10 C4.01 10.99 3.02 11.98 2 13 C1.01 12.34 0.02 11.68 -1 11 C-1.6875 7.375 -1.6875 7.375 -2 4 C-1.34 4 -0.68 4 0 4 C0 2.68 0 1.36 0 0 Z " fill="#052A3D" transform="translate(701,437)"/>
<path d="M0 0 C0.66 0 1.32 0 2 0 C1.83628906 0.69480469 1.67257812 1.38960938 1.50390625 2.10546875 C0.95904004 5.2352816 0.90261517 8.13798083 0.9375 11.3125 C0.95103516 12.91544922 0.95103516 12.91544922 0.96484375 14.55078125 C0.97644531 15.35902344 0.98804688 16.16726563 1 17 C-0.87787986 14.18318021 -1.65143573 12.20541985 -2.5625 9 C-3.33440823 6.31231952 -4.11548701 3.65353898 -5 1 C-3.68 1.33 -2.36 1.66 -1 2 C-0.67 1.34 -0.34 0.68 0 0 Z " fill="#0B3F34" transform="translate(705,447)"/>
<path d="M0 0 C0.33 0 0.66 0 1 0 C1 5.61 1 11.22 1 17 C-2.96 16.67 -6.92 16.34 -11 16 C-11 15.67 -11 15.34 -11 15 C-7.7 15 -4.4 15 -1 15 C-1.01160156 14.00097656 -1.02320313 13.00195312 -1.03515625 11.97265625 C-1.04417969 10.68230469 -1.05320312 9.39195312 -1.0625 8.0625 C-1.07410156 6.77472656 -1.08570313 5.48695313 -1.09765625 4.16015625 C-1 1 -1 1 0 0 Z " fill="#CED9DF" transform="translate(270,431)"/>
<path d="M0 0 C0 0.66 0 1.32 0 2 C0.99 2.33 1.98 2.66 3 3 C2.01 3.495 2.01 3.495 1 4 C0.01 3.67 -0.98 3.34 -2 3 C-3.48123547 2.9193378 -4.96582204 2.89238807 -6.44921875 2.90234375 C-7.29677734 2.90556641 -8.14433594 2.90878906 -9.01757812 2.91210938 C-10.33918945 2.92467773 -10.33918945 2.92467773 -11.6875 2.9375 C-13.02651367 2.94426758 -13.02651367 2.94426758 -14.39257812 2.95117188 C-16.59511987 2.96295017 -18.79752599 2.97939836 -21 3 C-18.12891775 0.12891775 -14.92960614 0.25124819 -11.0625 -0.1875 C-10.33353516 -0.28224609 -9.60457031 -0.37699219 -8.85351562 -0.47460938 C-5.51379744 -0.87562045 -3.22924275 -1.07641425 0 0 Z " fill="#566C78" transform="translate(511,427)"/>
<path d="M0 0 C2.97 0.33 5.94 0.66 9 1 C7.02 1.99 7.02 1.99 5 3 C7.91652174 3.16681109 7.91652174 3.16681109 11 3 C11.66 2.34 12.32 1.68 13 1 C13.99 1 14.98 1 16 1 C16.33 2.32 16.66 3.64 17 5 C12.05 5 7.1 5 2 5 C1.34 3.35 0.68 1.7 0 0 Z " fill="#EEF4F6" transform="translate(727,497)"/>
<path d="M0 0 C0 0.33 0 0.66 0 1 C-3.63 1.33 -7.26 1.66 -11 2 C-11.41746608 4.87364791 -11.41746608 4.87364791 -11 8 C-8.60943058 9.9354148 -8.60943058 9.9354148 -6 11 C-6.99 11.495 -6.99 11.495 -8 12 C-10.72872311 10.56742037 -12.81722366 9.18277634 -15 7 C-14.9375 4.5 -14.9375 4.5 -14 2 C-9.7830844 -0.76735086 -4.85489561 -0.19038806 0 0 Z " fill="#546B77" transform="translate(125,445)"/>
<path d="M0 0 C1.41750563 0.11509661 2.83401169 0.24253658 4.25 0.375 C5.03890625 0.44460938 5.8278125 0.51421875 6.640625 0.5859375 C9.085877 1.01507113 10.84836903 1.78600638 13 3 C13 3.66 13 4.32 13 5 C13.78375 5.28875 14.5675 5.5775 15.375 5.875 C18 7 18 7 20 9 C14.59305933 8.56744475 11.24633878 7.41778487 7 4 C7 3.34 7 2.68 7 2 C4.69 2 2.38 2 0 2 C0 1.34 0 0.68 0 0 Z " fill="#5EC55C" transform="translate(670,429)"/>
<path d="M0 0 C3.31648331 0.07488833 4.41192523 0.23295015 7.25 2.125 C8.625 4.375 8.625 4.375 8.375 6.625 C8.1275 7.2025 7.88 7.78 7.625 8.375 C7.109375 7.55 6.59375 6.725 6.0625 5.875 C3.78972836 3.03539113 3.78972836 3.03539113 0.125 2.875 C-3.40273771 3.37896253 -4.84720555 3.94831733 -7.375 6.375 C-6.41202975 1.56014875 -4.93984173 0.08205717 0 0 Z " fill="#9AB2C0" transform="translate(817.375,483.625)"/>
<path d="M0 0 C0.99 0 1.98 0 3 0 C3.66 2.97 4.32 5.94 5 9 C3.68 9 2.36 9 1 9 C0.01 9.99 -0.98 10.98 -2 12 C-1.34 8.04 -0.68 4.08 0 0 Z " fill="#425A66" transform="translate(757,462)"/>
<path d="M0 0 C0.33 1.32 0.66 2.64 1 4 C0.34 4 -0.32 4 -1 4 C-0.7664352 11.76602973 -0.45467875 17.53353085 4 24 C4 24.66 4 25.32 4 26 C2.125 25.375 2.125 25.375 0 24 C-1.98093802 19.38012008 -2.26987767 15.30676538 -2.25 10.3125 C-2.25515625 9.00925781 -2.2603125 7.70601563 -2.265625 6.36328125 C-2 3 -2 3 0 0 Z " fill="#3A8E4D" transform="translate(644,460)"/>
<path d="M0 0 C1.35439668 2.70879335 1.06501451 5.00933268 1 8 C0.01 8.495 0.01 8.495 -1 9 C-1.33 9.66 -1.66 10.32 -2 11 C-2.66 11 -3.32 11 -4 11 C-4 11.99 -4 12.98 -4 14 C-4.66 14 -5.32 14 -6 14 C-6.12375 14.5775 -6.2475 15.155 -6.375 15.75 C-7.00648824 18.02335767 -7.88858191 19.9253529 -9 22 C-9.33 21.34 -9.66 20.68 -10 20 C-9.30322266 18.04467773 -9.30322266 18.04467773 -8.1640625 15.68359375 C-7.75929688 14.83732422 -7.35453125 13.99105469 -6.9375 13.11914062 C-6.504375 12.23419922 -6.07125 11.34925781 -5.625 10.4375 C-5.19960938 9.54869141 -4.77421875 8.65988281 -4.3359375 7.74414062 C-1.16364829 1.16364829 -1.16364829 1.16364829 0 0 Z " fill="#5B737E" transform="translate(343,460)"/>
<path d="M0 0 C-0.99 0 -1.98 0 -3 0 C-2.67 0.99 -2.34 1.98 -2 3 C-2.99 3.66 -3.98 4.32 -5 5 C-4.34 5.33 -3.68 5.66 -3 6 C-3 6.66 -3 7.32 -3 8 C-4.65 7.67 -6.3 7.34 -8 7 C-9.125 2.25 -9.125 2.25 -8 0 C-5.00463263 -1.13617383 -3.02121511 -0.97110486 0 0 Z " fill="#05273A" transform="translate(122,447)"/>
<path d="M0 0 C0.73734375 -0.01224609 1.4746875 -0.02449219 2.234375 -0.03710938 C4.15770058 -0.04237395 6.08054263 0.06546553 8 0.1875 C8.66 0.8475 9.32 1.5075 10 2.1875 C7.89868615 4.28881385 3.45853678 3.37264741 0.5625 3.375 C-0.22705078 3.38724609 -1.01660156 3.39949219 -1.83007812 3.41210938 C-3.88807435 3.41737279 -5.94562009 3.30956285 -8 3.1875 C-8.66 2.5275 -9.32 1.8675 -10 1.1875 C-6.84044583 -0.39227708 -3.46536183 0.00302916 0 0 Z " fill="#092838" transform="translate(184,424.8125)"/>
<path d="M0 0 C2.875 -0.125 2.875 -0.125 6 0 C6.66 0.66 7.32 1.32 8 2 C10.36509361 2.30059943 12.74441881 2.49515012 15.125 2.625 C17.04699219 2.73714844 17.04699219 2.73714844 19.0078125 2.8515625 C19.99523437 2.90054687 20.98265625 2.94953125 22 3 C17.35712226 6.09525183 12.61688058 5.10779204 7.25 4.75 C3.61701924 3.91161982 2.30805251 2.86198511 0 0 Z " fill="#324C5C" transform="translate(101,482)"/>
<path d="M0 0 C1.6875 0.125 1.6875 0.125 4 1 C5.17067338 2.49586043 6.34023001 3.99266672 7.49609375 5.5 C10.1848033 8.18172589 13.41917694 8.90754551 17 10 C17 10.33 17 10.66 17 11 C13.55000031 11.42244894 10.99399975 11.62172957 7.9765625 9.734375 C6.18513593 8.22811429 4.51878942 6.78192314 3 5 C3 4.34 3 3.68 3 3 C2.34 3 1.68 3 1 3 C0.67 2.01 0.34 1.02 0 0 Z " fill="#62C65D" transform="translate(627,492)"/>
<path d="M0 0 C0.99 0.66 1.98 1.32 3 2 C1.35451172 2.09087891 1.35451172 2.09087891 -0.32421875 2.18359375 C-1.77865654 2.26804498 -3.23308305 2.35269066 -4.6875 2.4375 C-5.40873047 2.47681641 -6.12996094 2.51613281 -6.87304688 2.55664062 C-9.95750091 2.73973607 -12.86203414 2.97151312 -15.89453125 3.59765625 C-18 4 -18 4 -20 3 C-13.40094485 0.26261416 -7.14987515 -0.90252522 0 0 Z " fill="#185C39" transform="translate(669,496)"/>
<path d="M0 0 C0.66 0.33 1.32 0.66 2 1 C2.9822999 4.40026888 3.42703268 6.1886379 1.75 9.375 C0 11 0 11 -3 11 C-2.88590407 9.54077307 -2.75834456 8.08259402 -2.625 6.625 C-2.55539062 5.81289063 -2.48578125 5.00078125 -2.4140625 4.1640625 C-2 2 -2 2 0 0 Z " fill="#163A4E" transform="translate(302,485)"/>
<path d="M0 0 C0.33 0 0.66 0 1 0 C1 6.27 1 12.54 1 19 C1.66 19 2.32 19 3 19 C3.33 21.31 3.66 23.62 4 26 C2.68 25.34 1.36 24.68 0 24 C0 16.08 0 8.16 0 0 Z " fill="#0D4731" transform="translate(620,461)"/>
<path d="M0 0 C4.72569946 3.58501338 5.81826197 8.43270083 7 14 C7.1875 17.625 7.1875 17.625 7 20 C6.34 20 5.68 20 5 20 C4.96261719 19.39671875 4.92523437 18.7934375 4.88671875 18.171875 C4.49304944 13.38609123 4.03487126 10.79358908 1 7 C0.3125 3.25 0.3125 3.25 0 0 Z " fill="#53B15B" transform="translate(698,447)"/>
<path d="M0 0 C0.33 1.32 0.66 2.64 1 4 C0.34 4 -0.32 4 -1 4 C-1.10957031 4.556875 -1.21914063 5.11375 -1.33203125 5.6875 C-2.44275248 11.03341031 -3.97225526 15.93063816 -6 21 C-7.2961068 16.64391174 -6.77842494 13.45825192 -6 9 C-5.34 8.01 -4.68 7.02 -4 6 C-3.34 6 -2.68 6 -2 6 C-1.855625 5.38125 -1.71125 4.7625 -1.5625 4.125 C-1 2 -1 2 0 0 Z " fill="#4D6674" transform="translate(748,435)"/>
<path d="M0 0 C0.33 0 0.66 0 1 0 C1.03738281 1.05058594 1.07476562 2.10117187 1.11328125 3.18359375 C1.45493759 10.96113653 2.00662248 17.71177647 5 25 C4.34 25 3.68 25 3 25 C0.19529273 22.05252158 -0.36639139 20.02939604 -0.29296875 16.015625 C-0.28330078 15.08105469 -0.27363281 14.14648438 -0.26367188 13.18359375 C-0.23853516 12.21550781 -0.21339844 11.24742187 -0.1875 10.25 C-0.17396484 9.26644531 -0.16042969 8.28289062 -0.14648438 7.26953125 C-0.11118726 4.84579585 -0.06188054 2.42317855 0 0 Z " fill="#586F7B" transform="translate(391,459)"/>
<path d="M0 0 C0.66 0 1.32 0 2 0 C4.21672715 5.20520376 3.97659847 8.96196608 3.125 14.375 C2.96837891 15.47908203 2.96837891 15.47908203 2.80859375 16.60546875 C2.55145224 18.40545935 2.27744246 20.20302654 2 22 C1.01 22.33 0.02 22.66 -1 23 C-0.67 21.9275 -0.34 20.855 0 19.75 C1.58650987 13.46021975 2.06409111 6.19227334 0 0 Z " fill="#69D05F" transform="translate(683,460)"/>
<path d="M0 0 C2.93847653 -0.107834 5.87301151 -0.18721916 8.8125 -0.25 C9.64587891 -0.28351563 10.47925781 -0.31703125 11.33789062 -0.3515625 C17.51908397 -0.45085878 17.51908397 -0.45085878 20 1.875 C20.33 2.57625 20.66 3.2775 21 4 C21.391875 4.7425 21.78375 5.485 22.1875 6.25 C22.455625 6.8275 22.72375 7.405 23 8 C22.01 7.67 21.02 7.34 20 7 C19.67 7.66 19.34 8.32 19 9 C17.74335022 6.09399739 17 4.20395416 17 1 C11.39 1 5.78 1 0 1 C0 0.67 0 0.34 0 0 Z " fill="#405D6B" transform="translate(751,429)"/>
<path d="M0 0 C2.31 0 4.62 0 7 0 C6.67 0.66 6.34 1.32 6 2 C8.31 2.33 10.62 2.66 13 3 C13 3.33 13 3.66 13 4 C12.19175781 4.06058594 11.38351563 4.12117188 10.55078125 4.18359375 C8.94783203 4.30927734 8.94783203 4.30927734 7.3125 4.4375 C6.25675781 4.51871094 5.20101562 4.59992188 4.11328125 4.68359375 C1.34913703 4.96451681 -1.28945741 5.40156852 -4 6 C-4.33 5.34 -4.66 4.68 -5 4 C-4.0409375 3.8453125 -4.0409375 3.8453125 -3.0625 3.6875 C-2.381875 3.460625 -1.70125 3.23375 -1 3 C-0.67 2.01 -0.34 1.02 0 0 Z " fill="#113246" transform="translate(109,424)"/>
<path d="M0 0 C0.7734375 0.495 0.7734375 0.495 1.5625 1 C5.80024909 2.73856373 9.64902396 2.45990674 13.9375 1 C14.618125 0.67 15.29875 0.34 16 0 C15.0625 2.5 15.0625 2.5 13 5 C8.56465754 5.78962536 4.30596434 5.19664613 0 4 C0 2.68 0 1.36 0 0 Z " fill="#1D623C" transform="translate(633,500)"/>
<path d="M0 0 C0.33 1.32 0.66 2.64 1 4 C0.34 4 -0.32 4 -1 4 C-1 5.32 -1 6.64 -1 8 C-0.34 8.33 0.32 8.66 1 9 C0.67 9.99 0.34 10.98 0 12 C-1.32 12 -2.64 12 -4 12 C-4 13.32 -4 14.64 -4 16 C-4.66 16 -5.32 16 -6 16 C-4.56176509 10.36691325 -2.45855991 5.26322777 0 0 Z " fill="#B7C6CC" transform="translate(327,450)"/>
<path d="M0 0 C-1.65 1.32 -3.3 2.64 -5 4 C-5 3.34 -5 2.68 -5 2 C-6.32 2.99 -7.64 3.98 -9 5 C-8.67 5.66 -8.34 6.32 -8 7 C-10.64 7 -13.28 7 -16 7 C-13.7629196 3.6443794 -13.57482962 3.80721959 -10 3 C-9.67 2.34 -9.34 1.68 -9 1 C-5.62083804 -0.73524533 -3.60583914 -1.33549598 0 0 Z " fill="#CAD8DE" transform="translate(420,431)"/>
<path d="M0 0 C6.6 0 13.2 0 20 0 C20 1.32 20 2.64 20 4 C20.66 4.33 21.32 4.66 22 5 C20.68 5.33 19.36 5.66 18 6 C18 4.35 18 2.7 18 1 C12.06 1 6.12 1 0 1 C0 0.67 0 0.34 0 0 Z " fill="#59707D" transform="translate(227,429)"/>
<path d="M0 0 C1.32 0.33 2.64 0.66 4 1 C4 1.66 4 2.32 4 3 C5.32 3.66 6.64 4.32 8 5 C4.04 5 0.08 5 -4 5 C-4 4.34 -4 3.68 -4 3 C-4.66 2.67 -5.32 2.34 -6 2 C-4.02 2 -2.04 2 0 2 C0 1.34 0 0.68 0 0 Z " fill="#405B6C" transform="translate(428,481)"/>
<path d="M0 0 C0 0.33 0 0.66 0 1 C-3.63 1 -7.26 1 -11 1 C-11 1.66 -11 2.32 -11 3 C-13.90600261 4.25664978 -15.79604584 5 -19 5 C-19 4.34 -19 3.68 -19 3 C-13.10104429 -1.0449982 -6.92696672 -0.27748976 0 0 Z " fill="#165736" transform="translate(669,450)"/>
<path d="M0 0 C1.48576635 4.01156915 0.80747878 4.48130304 -1 9 C-6.28 9 -11.56 9 -17 9 C-17 8.67 -17 8.34 -17 8 C-12.38 8 -7.76 8 -3 8 C-2.34 6.02 -1.68 4.04 -1 2 C-0.67 1.34 -0.34 0.68 0 0 Z " fill="#58717C" transform="translate(327,494)"/>
<path d="M0 0 C1 2 1 2 0.22265625 4.6015625 C-0.16019531 5.59929687 -0.54304688 6.59703125 -0.9375 7.625 C-1.31777344 8.62789063 -1.69804688 9.63078125 -2.08984375 10.6640625 C-2.39019531 11.43492187 -2.69054687 12.20578125 -3 13 C-3.99 12.67 -4.98 12.34 -6 12 C-5.36934243 8.78147169 -4.21979305 6.49198931 -2.4375 3.75 C-1.98246094 3.04359375 -1.52742188 2.3371875 -1.05859375 1.609375 C-0.53458984 0.81273437 -0.53458984 0.81273437 0 0 Z " fill="#BCCCD1" transform="translate(94,483)"/>
<path d="M0 0 C2.62506802 -0.02690844 5.24986173 -0.04679404 7.875 -0.0625 C8.62136719 -0.07087891 9.36773438 -0.07925781 10.13671875 -0.08789062 C15.7734375 -0.11328125 15.7734375 -0.11328125 18 1 C18.625 3.0625 18.625 3.0625 19 5 C18.236875 4.690625 17.47375 4.38125 16.6875 4.0625 C12.78747432 2.52062938 9.48049064 1.78074629 5.3125 1.4375 C4.31863281 1.35371094 3.32476563 1.26992188 2.30078125 1.18359375 C1.16189453 1.09271484 1.16189453 1.09271484 0 1 C0 0.67 0 0.34 0 0 Z " fill="#51AA56" transform="translate(658,449)"/>
<path d="M0 0 C1.46726798 3.81489674 0.43336419 6.29011622 -1 10 C-2.65 10.33 -4.3 10.66 -6 11 C-4.18690997 7.22272911 -2.0926741 3.62730178 0 0 Z " fill="#0F4B35" transform="translate(702,487)"/>
<path d="M0 0 C0.66 0.99 1.32 1.98 2 3 C1.125 5.6875 1.125 5.6875 0 8 C-0.66 8 -1.32 8 -2 8 C-2.12117187 8.63808594 -2.24234375 9.27617187 -2.3671875 9.93359375 C-2.53476562 10.75988281 -2.70234375 11.58617187 -2.875 12.4375 C-3.03742187 13.26121094 -3.19984375 14.08492188 -3.3671875 14.93359375 C-3.57601562 15.61550781 -3.78484375 16.29742187 -4 17 C-4.66 17.33 -5.32 17.66 -6 18 C-5.71788123 16.3733152 -5.42397625 14.74867104 -5.125 13.125 C-4.96257813 12.22007812 -4.80015625 11.31515625 -4.6328125 10.3828125 C-4 8 -4 8 -2 6 C-1.28591666 4.01643517 -0.61382258 2.01684563 0 0 Z " fill="#3F5865" transform="translate(752,480)"/>
<path d="M0 0 C1 2 1 2 0.8125 3.9375 C-0.28744326 6.72966366 -1.33310585 7.63051382 -4 9 C-7.25 8.6875 -7.25 8.6875 -10 8 C-10 7.34 -10 6.68 -10 6 C-11.32 5.67 -12.64 5.34 -14 5 C-12.35 5 -10.7 5 -9 5 C-9 5.66 -9 6.32 -9 7 C-6.05272465 6.89830839 -6.05272465 6.89830839 -3 6 C-1.61141128 3.57114212 -1.61141128 3.57114212 -1 1 C-0.67 0.67 -0.34 0.34 0 0 Z " fill="#68818D" transform="translate(139,441)"/>
<path d="M0 0 C1.65 0 3.3 0 5 0 C4.8125 2.8125 4.8125 2.8125 4 6 C1.625 7.6875 1.625 7.6875 -1 9 C-2.75149165 10.58245275 -2.75149165 10.58245275 -4 12 C-4.66 11.67 -5.32 11.34 -6 11 C-5.0479279 9.99403703 -4.08812654 8.99538437 -3.125 8 C-2.32449219 7.1646875 -2.32449219 7.1646875 -1.5078125 6.3125 C0 5 0 5 2 5 C1.34 3.35 0.68 1.7 0 0 Z " fill="#3D5967" transform="translate(458,439)"/>
<path d="M0 0 C0.33 0 0.66 0 1 0 C1.061875 1.03125 1.12375 2.0625 1.1875 3.125 C2.34278223 8.63480755 5.05477186 11.05477186 9 15 C6.03 14.505 6.03 14.505 3 14 C2.67 12.35 2.34 10.7 2 9 C1.01 8.67 0.02 8.34 -1 8 C-0.67 5.36 -0.34 2.72 0 0 Z " fill="#294756" transform="translate(359,405)"/>
<path d="M0 0 C-0.6875 2.4375 -0.6875 2.4375 -2 5 C-5.60597995 6.06655745 -9.07244842 6.10756086 -12.8125 6.0625 C-14.27623047 6.04896484 -14.27623047 6.04896484 -15.76953125 6.03515625 C-16.87361328 6.01775391 -16.87361328 6.01775391 -18 6 C-18 5.67 -18 5.34 -18 5 C-14.7 5 -11.4 5 -8 5 C-8 4.34 -8 3.68 -8 3 C-6.68 3 -5.36 3 -4 3 C-4 2.34 -4 1.68 -4 1 C-2 0 -2 0 0 0 Z " fill="#C6D3D7" transform="translate(202,483)"/>
<path d="M0 0 C2.475 0.495 2.475 0.495 5 1 C5 1.66 5 2.32 5 3 C6.32 3.66 7.64 4.32 9 5 C9 5.99 9 6.98 9 8 C8.67 7.34 8.34 6.68 8 6 C6.10466658 5.53476937 6.10466658 5.53476937 3.9375 5.375 C2.638125 5.25125 1.33875 5.1275 0 5 C0 4.34 0 3.68 0 3 C1.32 3.33 2.64 3.66 4 4 C4 3.34 4 2.68 4 2 C2.68 2 1.36 2 0 2 C0 1.34 0 0.68 0 0 Z " fill="#1C3C4C" transform="translate(435,447)"/>
<path d="M0 0 C1.9375 0.625 1.9375 0.625 4 2 C4.75 5.125 4.75 5.125 5 8 C3.0625 7.6875 3.0625 7.6875 1 7 C0.67 6.01 0.34 5.02 0 4 C-0.66 3.67 -1.32 3.34 -2 3 C-1.34 2.01 -0.68 1.02 0 0 Z " fill="#103146" transform="translate(508,447)"/>
<path d="M0 0 C0.66 0 1.32 0 2 0 C2.33 2.31 2.66 4.62 3 7 C2.01 6.67 1.02 6.34 0 6 C0.52268466 8.76276177 1.10869587 11.3260876 2 14 C0.68 14 -0.64 14 -2 14 C-1.03644647 4.58997722 -1.03644647 4.58997722 0 0 Z " fill="#2D4D5F" transform="translate(141,434)"/>
<path d="M0 0 C0.66 0.33 1.32 0.66 2 1 C0.54144353 4.68646141 -1.30229045 6.16143971 -4.625 8.25 C-5.44226563 8.77078125 -6.25953125 9.2915625 -7.1015625 9.828125 C-8.04128906 10.40820312 -8.04128906 10.40820312 -9 11 C-7.59155282 7.78475695 -5.89655214 5.67816132 -3.375 3.25 C-2.74335938 2.63640625 -2.11171875 2.0228125 -1.4609375 1.390625 C-0.73777344 0.70226562 -0.73777344 0.70226562 0 0 Z " fill="#BBCAD0" transform="translate(480,434)"/>
<path d="M0 0 C0.625 1.875 0.625 1.875 1 4 C0.34 4.66 -0.32 5.32 -1 6 C-1 5.01 -1 4.02 -1 3 C-7.6 3 -14.2 3 -21 3 C-21 2.67 -21 2.34 -21 2 C-20.39937744 1.97494385 -19.79875488 1.9498877 -19.17993164 1.92407227 C-16.47388563 1.8084472 -13.76821717 1.68557064 -11.0625 1.5625 C-10.11697266 1.52318359 -9.17144531 1.48386719 -8.19726562 1.44335938 C-7.29814453 1.40146484 -6.39902344 1.35957031 -5.47265625 1.31640625 C-4.64000244 1.27974854 -3.80734863 1.24309082 -2.94946289 1.20532227 C-0.99661142 1.20632897 -0.99661142 1.20632897 0 0 Z " fill="#1A3C4F" transform="translate(358,426)"/>
<path d="M0 0 C0.66 0.99 1.32 1.98 2 3 C1.1015625 6.13671875 1.1015625 6.13671875 -0.375 9.6875 C-0.85710937 10.86699219 -1.33921875 12.04648437 -1.8359375 13.26171875 C-2.22007812 14.16535156 -2.60421875 15.06898438 -3 16 C-4.1700097 12.08263419 -3.69584017 9.02040985 -3 5 C-2.01 4.67 -1.02 4.34 0 4 C0 2.68 0 1.36 0 0 Z " fill="#2C4B5C" transform="translate(396,441)"/>
<path d="M0 0 C1.65 0.33 3.3 0.66 5 1 C2.73013832 3.26986168 0.98914832 3.88775876 -2 5 C-2.928125 5.37125 -3.85625 5.7425 -4.8125 6.125 C-5.534375 6.41375 -6.25625 6.7025 -7 7 C-7 6.01 -7 5.02 -7 4 C-4.69 3.34 -2.38 2.68 0 2 C0 1.34 0 0.68 0 0 Z " fill="#0D4934" transform="translate(643,430)"/>
<path d="M0 0 C6.6 0 13.2 0 20 0 C20 0.66 20 1.32 20 2 C20.66 2.33 21.32 2.66 22 3 C21.18273437 2.84660156 20.36546875 2.69320313 19.5234375 2.53515625 C15.55375228 1.9322218 11.63053967 1.65842036 7.625 1.4375 C6.88894531 1.39431641 6.15289062 1.35113281 5.39453125 1.30664062 C3.59651932 1.20156201 1.79828042 1.10037907 0 1 C0 0.67 0 0.34 0 0 Z " fill="#203C4D" transform="translate(422,427)"/>
<path d="M0 0 C1 2 1 2 0.29296875 4.78515625 C-0.07183594 5.86667969 -0.43664062 6.94820313 -0.8125 8.0625 C-1.16957031 9.14660156 -1.52664063 10.23070312 -1.89453125 11.34765625 C-3 14 -3 14 -5 15 C-4.49026224 10.07253501 -3.91479324 5.61803076 -2 1 C-1.34 0.67 -0.68 0.34 0 0 Z " fill="#B2C1C7" transform="translate(754,472)"/>
<path d="M0 0 C1.17949219 0.01804687 2.35898437 0.03609375 3.57421875 0.0546875 C4.92966797 0.08949219 4.92966797 0.08949219 6.3125 0.125 C6.3125 0.455 6.3125 0.785 6.3125 1.125 C5.66023438 1.15078125 5.00796875 1.1765625 4.3359375 1.203125 C-1.56824693 1.58628741 -5.08416863 2.36965072 -9.6875 6.125 C-9.6875 4.805 -9.6875 3.485 -9.6875 2.125 C-6.05554504 -0.29630331 -4.30400652 -0.08522785 0 0 Z " fill="#2D4A57" transform="translate(371.6875,394.875)"/>
<path d="M0 0 C2.31 0 4.62 0 7 0 C7 0.66 7 1.32 7 2 C10.3 1.67 13.6 1.34 17 1 C13.68629 3.20914 12.6553979 3.22481553 8.8125 3.125 C7.91144531 3.10695313 7.01039063 3.08890625 6.08203125 3.0703125 C5.39496094 3.04710937 4.70789063 3.02390625 4 3 C4 2.34 4 1.68 4 1 C2.68 0.67 1.36 0.34 0 0 Z " fill="#D9E2E6" transform="translate(428,500)"/>
<path d="M0 0 C1.32 0.33 2.64 0.66 4 1 C3.67 2.32 3.34 3.64 3 5 C1.02 5.33 -0.96 5.66 -3 6 C-3 5.01 -3 4.02 -3 3 C-2.34 3 -1.68 3 -1 3 C-0.67 2.01 -0.34 1.02 0 0 Z " fill="#133649" transform="translate(825,498)"/>
<path d="M0 0 C1 2 1 2 0.375 3.9375 C-1.35198322 6.52797483 -3.2734275 7.56496184 -6 9 C-6.66 8.34 -7.32 7.68 -8 7 C-5.36 4.69 -2.72 2.38 0 0 Z " fill="#47616F" transform="translate(460,490)"/>
<path d="M0 0 C0 1.98 0 3.96 0 6 C4.29 6 8.58 6 13 6 C13 6.33 13 6.66 13 7 C8.38 7 3.76 7 -1 7 C-1.66 5.02 -2.32 3.04 -3 1 C-1 0 -1 0 0 0 Z " fill="#D8E6EC" transform="translate(311,495)"/>
<path d="M0 0 C2 1.375 2 1.375 4 3 C4 3.66 4 4.32 4 5 C4.66 5 5.32 5 6 5 C7.625 7.5 7.625 7.5 9 10 C7.02 9.34 5.04 8.68 3 8 C2.67 6.35 2.34 4.7 2 3 C1.34 3 0.68 3 0 3 C0 2.01 0 1.02 0 0 Z " fill="#104C30" transform="translate(624,490)"/>
<path d="M0 0 C0.99 0.66 1.98 1.32 3 2 C2.67 3.32 2.34 4.64 2 6 C-0.97 5.505 -0.97 5.505 -4 5 C-4 4.34 -4 3.68 -4 3 C-3.34 3 -2.68 3 -2 3 C-2 2.34 -2 1.68 -2 1 C-1.34 0.67 -0.68 0.34 0 0 Z " fill="#06293D" transform="translate(179,479)"/>
<path d="M0 0 C0.99 0.495 0.99 0.495 2 1 C2 1.66 2 2.32 2 3 C2.66 3 3.32 3 4 3 C4 3.99 4 4.98 4 6 C4.99 6 5.98 6 7 6 C7 7.32 7 8.64 7 10 C6.01 10 5.02 10 4 10 C3.32845067 8.71086513 2.66291141 7.41859796 2 6.125 C1.62875 5.40570313 1.2575 4.68640625 0.875 3.9453125 C0 2 0 2 0 0 Z " fill="#4B626C" transform="translate(312,462)"/>
<path d="M0 0 C2.5 2.25 2.5 2.25 5 5 C5 6.32 5 7.64 5 9 C4.34 9 3.68 9 3 9 C3 10.98 3 12.96 3 15 C2.67 15 2.34 15 2 15 C1.875 7.375 1.875 7.375 3 4 C2.01 3.67 1.02 3.34 0 3 C0 2.01 0 1.02 0 0 Z " fill="#1E3D4C" transform="translate(588,449)"/>
<path d="M0 0 C3.16532451 1.58266225 3.58369064 4.76444118 4.6875 7.9375 C4.92533203 8.58396484 5.16316406 9.23042969 5.40820312 9.89648438 C6.00302158 11.5762796 6.50797995 13.28727198 7 15 C6.67 15.66 6.34 16.32 6 17 C2.91099799 11.33492989 0.42335385 6.49142565 0 0 Z " fill="#94A7AF" transform="translate(772,444)"/>
<path d="M0 0 C-1.36983503 3.16115776 -1.9890638 3.9927092 -5 6 C-5.79437923 8.18505129 -5.79437923 8.18505129 -6.1875 10.625 C-6.34605469 11.44226563 -6.50460937 12.25953125 -6.66796875 13.1015625 C-6.77753906 13.72804688 -6.88710938 14.35453125 -7 15 C-7.33 15 -7.66 15 -8 15 C-8.71740936 8.18461113 -8.71740936 8.18461113 -6.734375 4.91015625 C-2.59739264 0 -2.59739264 0 0 0 Z " fill="#9FB1B8" transform="translate(368,397)"/>
<path d="M0 0 C2.38672669 2.96283313 4.7353371 5.94270509 7 9 C2.25 8.25 2.25 8.25 0 6 C-0.125 2.875 -0.125 2.875 0 0 Z " fill="#2A4956" transform="translate(397,486)"/>
<path d="M0 0 C2.63822024 3.10378852 3.70365731 5.81462924 4.6875 9.75 C4.93886719 10.73484375 5.19023437 11.7196875 5.44921875 12.734375 C5.72185547 13.85585938 5.72185547 13.85585938 6 15 C4.68 14.67 3.36 14.34 2 14 C1.93941406 13.40832031 1.87882812 12.81664062 1.81640625 12.20703125 C1.37987629 8.09021792 0.91328654 4.04455467 0 0 Z " fill="#435B69" transform="translate(282,440)"/>
<path d="M0 0 C6.875 0.875 6.875 0.875 8 2 C9.51469448 2.23192865 11.03754562 2.41215238 12.5625 2.5625 C13.38878906 2.64628906 14.21507812 2.73007812 15.06640625 2.81640625 C15.70449219 2.87699219 16.34257812 2.93757813 17 3 C17 3.33 17 3.66 17 4 C15.10489301 4.08160748 13.20875496 4.13946459 11.3125 4.1875 C9.72888672 4.23970703 9.72888672 4.23970703 8.11328125 4.29296875 C4.63392401 3.96555119 2.7919812 3.05643142 0 1 C0 0.67 0 0.34 0 0 Z " fill="#5E727F" transform="translate(492,484)"/>
<path d="M0 0 C2.475 0.495 2.475 0.495 5 1 C4.67 2.98 4.34 4.96 4 7 C3.01 7 2.02 7 1 7 C0.67 4.69 0.34 2.38 0 0 Z " fill="#526877" transform="translate(780,463)"/>
<path d="M0 0 C0 0.33 0 0.66 0 1 C-0.59167969 1.03738281 -1.18335938 1.07476562 -1.79296875 1.11328125 C-6.70192606 1.52169369 -9.82724937 2.21816624 -14 5 C-14.66 4.67 -15.32 4.34 -16 4 C-11.34158975 -1.14031476 -6.42886252 -0.40532233 0 0 Z " fill="#748892" transform="translate(189,444)"/>
<path d="M0 0 C1.98 0.99 1.98 0.99 4 2 C4 4.64 4 7.28 4 10 C1 8 1 8 0.48828125 6.0546875 C0.32552083 4.03645833 0.16276042 2.01822917 0 0 Z " fill="#043634" transform="translate(696,438)"/>
<path d="M0 0 C0.33 0.66 0.66 1.32 1 2 C0.34 2 -0.32 2 -1 2 C-1.33 3.65 -1.66 5.3 -2 7 C-4.31 6.67 -6.62 6.34 -9 6 C-6.11912454 3.59927045 -3.43595166 1.52708963 0 0 Z " fill="#BDCACF" transform="translate(520,481)"/>
<path d="M0 0 C2.97 0.33 5.94 0.66 9 1 C7.02 1.99 7.02 1.99 5 3 C5.66 3.66 6.32 4.32 7 5 C5.35 5 3.7 5 2 5 C1.34 3.35 0.68 1.7 0 0 Z " fill="#DFE7EB" transform="translate(727,497)"/>
<path d="M0 0 C0.66 1.32 1.32 2.64 2 4 C-1.4352048 6.29013653 -2.985331 6.17842973 -7 6 C-6.21625 5.38125 -5.4325 4.7625 -4.625 4.125 C-2.03162353 2.10141339 -2.03162353 2.10141339 0 0 Z " fill="#49626F" transform="translate(141,493)"/>
<path d="M0 0 C2.5 1.1875 2.5 1.1875 5 3 C5.3125 5.6875 5.3125 5.6875 5 8 C4.67 6.68 4.34 5.36 4 4 C3.34 4.66 2.68 5.32 2 6 C1.01 5.67 0.02 5.34 -1 5 C-0.67 3.35 -0.34 1.7 0 0 Z " fill="#264352" transform="translate(121,476)"/>
<path d="M0 0 C0.99 0.33 1.98 0.66 3 1 C2.67 2.32 2.34 3.64 2 5 C0.68 5 -0.64 5 -2 5 C-1.125 1.125 -1.125 1.125 0 0 Z " fill="#143646" transform="translate(443,475)"/>
<path d="M0 0 C1.54542837 3.09085673 0.59315658 5.67832315 0 9 C-0.33 9.66 -0.66 10.32 -1 11 C-2.32 10.67 -3.64 10.34 -5 10 C-4.01 10 -3.02 10 -2 10 C-1.93941406 9.36191406 -1.87882813 8.72382813 -1.81640625 8.06640625 C-1.73261719 7.24011719 -1.64882813 6.41382813 -1.5625 5.5625 C-1.48128906 4.73878906 -1.40007813 3.91507812 -1.31640625 3.06640625 C-1 1 -1 1 0 0 Z " fill="#B8C9CF" transform="translate(739,460)"/>
<path d="M0 0 C0.33 0.66 0.66 1.32 1 2 C1.66 2.33 2.32 2.66 3 3 C2.01 3.495 2.01 3.495 1 4 C-0.13350534 6.01669827 -0.13350534 6.01669827 -1 8 C-1.33 8 -1.66 8 -2 8 C-1.125 1.125 -1.125 1.125 0 0 Z M-4 8 C-3.01 8.495 -3.01 8.495 -2 9 C-2.66 9.66 -3.32 10.32 -4 11 C-4 10.01 -4 9.02 -4 8 Z " fill="#062739" transform="translate(813,445)"/>
<path d="M0 0 C2.75 -0.25 2.75 -0.25 6 0 C8.375 2 8.375 2 10 4 C7.25 4.25 7.25 4.25 4 4 C1.625 2 1.625 2 0 0 Z " fill="#3A5461" transform="translate(101,482)"/>
<path d="M0 0 C1.32 0 2.64 0 4 0 C4.66 1.32 5.32 2.64 6 4 C3.125 4.125 3.125 4.125 0 4 C-0.66 3.34 -1.32 2.68 -2 2 C-1.34 1.34 -0.68 0.68 0 0 Z " fill="#B3C5CA" transform="translate(204,480)"/>
<path d="M0 0 C0.66 0.66 1.32 1.32 2 2 C0.90931332 5.77545388 0.0916909 8.47043472 -3 11 C-2.32829194 7.1936543 -1.27253436 3.64793184 0 0 Z " fill="#043C2E" transform="translate(681,474)"/>
<path d="M0 0 C1.231394 2.46278801 1.07159196 4.2795055 1 7 C0.01 7.33 -0.98 7.66 -2 8 C-2.33 8.66 -2.66 9.32 -3 10 C-2.25 3.375 -2.25 3.375 0 0 Z " fill="#4FAE55" transform="translate(626,450)"/>
<path d="M0 0 C2.76262553 0.3810518 3.84143894 0.83597132 5.8125 2.875 C6.204375 3.57625 6.59625 4.2775 7 5 C6.67 5.99 6.34 6.98 6 8 C4.9970458 6.85675161 3.99770973 5.71032809 3 4.5625 C2.443125 3.92441406 1.88625 3.28632813 1.3125 2.62890625 C0 1 0 1 0 0 Z " fill="#61C35F" transform="translate(676,452)"/>
<path d="M0 0 C0.66 0.33 1.32 0.66 2 1 C2 2.32 2 3.64 2 5 C0.02 5.99 0.02 5.99 -2 7 C-2 6.34 -2 5.68 -2 5 C-2.66 5 -3.32 5 -4 5 C-3.67 4.01 -3.34 3.02 -3 2 C-2.34 2.33 -1.68 2.66 -1 3 C-0.67 2.01 -0.34 1.02 0 0 Z " fill="#0E3246" transform="translate(820,431)"/>
<path d="M0 0 C9.59453303 0.59453303 9.59453303 0.59453303 13 4 C11.02 4 9.04 4 7 4 C7 3.34 7 2.68 7 2 C4.69 2 2.38 2 0 2 C0 1.34 0 0.68 0 0 Z " fill="#4CA654" transform="translate(670,429)"/>
<path d="M0 0 C1.0625 1.875 1.0625 1.875 2 4 C1.67 4.66 1.34 5.32 1 6 C-0.65 6 -2.3 6 -4 6 C-2.68 4.02 -1.36 2.04 0 0 Z " fill="#54B653" transform="translate(681,481)"/>
<path d="M0 0 C2.18975773 3.28463659 2.99806563 6.20696275 4 10 C3.34 9.67 2.68 9.34 2 9 C2 8.34 2 7.68 2 7 C1.01 7.33 0.02 7.66 -1 8 C-0.67 5.36 -0.34 2.72 0 0 Z " fill="#3D5864" transform="translate(717,472)"/>
<path d="M0 0 C0.66 0 1.32 0 2 0 C2.33 2.31 2.66 4.62 3 7 C1.35 6.67 -0.3 6.34 -2 6 C-1.34 4.02 -0.68 2.04 0 0 Z " fill="#07283A" transform="translate(282,445)"/>
<path d="M0 0 C0.33 0.66 0.66 1.32 1 2 C0.0625 4.125 0.0625 4.125 -1 6 C-1.66 6 -2.32 6 -3 6 C-3 6.66 -3 7.32 -3 8 C-3.66 8 -4.32 8 -5 8 C-3.8141763 4.62496331 -2.72426311 2.35277269 0 0 Z " fill="#B9C7CE" transform="translate(97,436)"/>
<path d="M0 0 C0.66 0.33 1.32 0.66 2 1 C1.43628586 4.26954202 0.50037734 5.82575883 -2 8 C-2 6.02 -2 4.04 -2 2 C-1.34 2 -0.68 2 0 2 C0 1.34 0 0.68 0 0 Z " fill="#E6F0F3" transform="translate(140,434)"/>
<path d="M0 0 C2.15377564 2.62198774 3.40072174 4.64404172 4 8 C3.34 8 2.68 8 2 8 C2 7.01 2 6.02 2 5 C1.34 5 0.68 5 0 5 C-0.33 5.66 -0.66 6.32 -1 7 C-0.67 4.69 -0.34 2.38 0 0 Z " fill="#2A4757" transform="translate(305,492)"/>
<path d="M0 0 C0.33 0 0.66 0 1 0 C1.33 2.64 1.66 5.28 2 8 C1.01 8.495 1.01 8.495 0 9 C-0.99 8.67 -1.98 8.34 -3 8 C-3.33 7.01 -3.66 6.02 -4 5 C-3.34 5 -2.68 5 -2 5 C-2 5.66 -2 6.32 -2 7 C-1.34 7 -0.68 7 0 7 C-0.185625 6.401875 -0.37125 5.80375 -0.5625 5.1875 C-1 3 -1 3 0 0 Z " fill="#3A5361" transform="translate(821,490)"/>
<path d="M0 0 C0 0.99 0 1.98 0 3 C-3.3 2.67 -6.6 2.34 -10 2 C-10 1.67 -10 1.34 -10 1 C-6.59437148 0.22157062 -3.49234244 -0.09978121 0 0 Z " fill="#69D75B" transform="translate(672,492)"/>
<path d="M0 0 C1.70884005 1.62339805 3.37446717 3.29319053 5 5 C5 5.66 5 6.32 5 7 C3.0625 6.3125 3.0625 6.3125 1 5 C0.25 2.375 0.25 2.375 0 0 Z " fill="#4DA855" transform="translate(643,479)"/>
<path d="M0 0 C0.66 0.33 1.32 0.66 2 1 C1.01 2.98 0.02 4.96 -1 7 C-2.32 6.34 -3.64 5.68 -5 5 C-3.68 4.67 -2.36 4.34 -1 4 C-0.67 2.68 -0.34 1.36 0 0 Z " fill="#022738" transform="translate(137,447)"/>
<path d="M0 0 C0.99 1.32 1.98 2.64 3 4 C2.01 4 1.02 4 0 4 C-0.33 4.66 -0.66 5.32 -1 6 C-1 5.34 -1 4.68 -1 4 C-1.99 4.33 -2.98 4.66 -4 5 C-4 4.34 -4 3.68 -4 3 C-3.34 3 -2.68 3 -2 3 C-2 2.34 -2 1.68 -2 1 C-1.34 0.67 -0.68 0.34 0 0 Z " fill="#133548" transform="translate(492,447)"/>
<path d="M0 0 C0.66 0.33 1.32 0.66 2 1 C0.02 3.97 0.02 3.97 -2 7 C-2.99 6.67 -3.98 6.34 -5 6 C-4.34 5.01 -3.68 4.02 -3 3 C-2.34 3 -1.68 3 -1 3 C-0.67 2.01 -0.34 1.02 0 0 Z " fill="#4EAA53" transform="translate(636,437)"/>
<path d="M0 0 C0.33 0.99 0.66 1.98 1 3 C-1.97 5.475 -1.97 5.475 -5 8 C-5 5 -5 5 -2.5 2.3125 C-1.675 1.549375 -0.85 0.78625 0 0 Z " fill="#B1BEC6" transform="translate(403,438)"/>
<path d="M0 0 C2 1.3125 2 1.3125 4 3 C4 3.99 4 4.98 4 6 C3.01 6.33 2.02 6.66 1 7 C0.67 4.69 0.34 2.38 0 0 Z " fill="#D3E0E5" transform="translate(456,438)"/>
<path d="M0 0 C-0.99 0 -1.98 0 -3 0 C-3.33 0.99 -3.66 1.98 -4 3 C-6.31 2.67 -8.62 2.34 -11 2 C-11 1.67 -11 1.34 -11 1 C-3.57142857 -1.42857143 -3.57142857 -1.42857143 0 0 Z " fill="#455E6A" transform="translate(523,501)"/>
<path d="M0 0 C1.65 0 3.3 0 5 0 C5 1.32 5 2.64 5 4 C3.35 4 1.7 4 0 4 C0 2.68 0 1.36 0 0 Z " fill="#022A3E" transform="translate(210,479)"/>
<path d="M0 0 C-1.12451727 2.9719385 -2.22293791 5.33440687 -4 8 C-4 5.69 -4 3.38 -4 1 C-2 0 -2 0 0 0 Z " fill="#25424F" transform="translate(741,456)"/>
</svg>
