<?xml version="1.0" encoding="UTF-8"?>
<svg version="1.1" xmlns="http://www.w3.org/2000/svg" width="626" height="626">
<path d="M0 0 C206.58 0 413.16 0 626 0 C626 206.58 626 413.16 626 626 C419.42 626 212.84 626 0 626 C0 419.42 0 212.84 0 0 Z " fill="#250733" transform="translate(0,0)"/>
<path d="M0 0 C5.48133757 3.78473308 8.56479362 7.41501702 10.625 13.8125 C11.33409326 21.02161478 9.31453699 26.85692615 7.00830078 33.62133789 C4.3608076 41.4697209 1.95579573 49.39364719 -0.46826172 57.31323242 C-4.20917112 69.52456324 -4.20917112 69.52456324 -5.98046875 74.12890625 C-7.60805016 78.42809188 -8.90355857 82.77628753 -10.1875 87.1875 C-12.10155909 93.66369807 -14.08830632 100.1021195 -16.25 106.5 C-21.31966795 121.52229744 -26.13820365 136.62461907 -30.6875 151.8125 C-34.06715124 163.07934091 -37.79650091 174.22463339 -41.5559082 185.36914062 C-43.95298791 192.48314673 -46.25541781 199.61010946 -48.375 206.8125 C-50.71919531 214.46633909 -52.57656838 220.38238464 -59.5078125 224.859375 C-64.32960041 227.32070607 -69.08009784 227.51064265 -74.375 226.8125 C-79.51210708 224.70339811 -83.31789539 221.459299 -86.375 216.8125 C-90.22186068 205.27191796 -85.64962013 193.89002318 -81.875 183 C-81.32098752 181.35446209 -80.76884019 179.70829512 -80.21850586 178.06152344 C-78.86771121 174.03185004 -77.49677705 170.00941126 -76.11883545 165.98895264 C-74.36455714 160.85595762 -72.65426786 155.70812807 -70.9375 150.5625 C-70.616604 149.60778809 -70.29570801 148.65307617 -69.96508789 147.66943359 C-67.90742099 141.52084496 -66.01692853 135.34228684 -64.23657227 129.10839844 C-62.60661546 123.45497535 -60.75934437 117.88572204 -58.875 112.3125 C-56.77382009 106.09347764 -54.7495637 99.87204892 -52.9375 93.5625 C-50.67369362 85.69030797 -48.18610922 77.89795975 -45.67260742 70.10229492 C-43.03325093 61.90356018 -40.45654237 53.68679633 -37.89956665 45.46212769 C-36.06762999 39.57591767 -34.22189256 33.69403088 -32.375 27.8125 C-32.05724609 26.79752441 -31.73949219 25.78254883 -31.41210938 24.73681641 C-30.61880269 22.21676938 -29.81278148 19.70132083 -29 17.1875 C-28.78585449 16.50244385 -28.57170898 15.8173877 -28.35107422 15.11157227 C-26.11591197 8.3090945 -22.92170908 3.31853703 -16.72265625 -0.2734375 C-11.18039734 -2.431322 -5.51874728 -1.94178145 0 0 Z " fill="#FCFBFC" transform="translate(350.375,156.1875)"/>
<path d="M0 0 C5.55489682 3.30291162 10.25292468 7.07512254 12.3125 13.375 C13.24926852 20.33050628 12.13398832 25.42515505 8.3125 31.375 C5.1017978 35.1182288 1.60100986 38.55411123 -1.921875 42 C-2.92594485 42.99659574 -3.92912504 43.99408854 -4.93145752 44.99243164 C-7.55300623 47.59881609 -10.18634581 50.19295464 -12.82244873 52.78460693 C-15.51785959 55.43886493 -18.20177368 58.1046943 -20.88671875 60.76953125 C-26.1425507 65.98265518 -31.41091102 71.18287781 -36.6875 76.375 C-35.34177113 79.37443905 -33.85212899 81.45576179 -31.52294922 83.76660156 C-30.88243622 84.4069635 -30.24192322 85.04732544 -29.58200073 85.70709229 C-28.89236237 86.38640808 -28.202724 87.06572388 -27.4921875 87.765625 C-26.78474396 88.47023865 -26.07730042 89.17485229 -25.34841919 89.90081787 C-23.09110138 92.1469539 -20.82692367 94.38603009 -18.5625 96.625 C-17.02949047 98.14797717 -15.49693285 99.67140939 -13.96484375 101.1953125 C-10.21095427 104.92716815 -6.45141086 108.65325351 -2.6875 112.375 C-3.6298114 115.52095237 -4.57267381 118.66673935 -5.515625 121.8125 C-5.77875488 122.69099609 -6.04188477 123.56949219 -6.31298828 124.47460938 C-13.46814505 148.33980918 -13.46814505 148.33980918 -15.6875 152.375 C-20.22372532 151.50794071 -22.60951919 148.88247758 -25.76953125 145.69702148 C-26.36841156 145.10500443 -26.96729187 144.51298737 -27.58432007 143.9030304 C-29.56397397 141.94169107 -31.53232589 139.96944635 -33.5 137.99609375 C-34.87438979 136.6262653 -36.24915105 135.25680947 -37.62426758 133.88771057 C-40.50750799 131.01341179 -43.38498644 128.13348966 -46.25878906 125.24975586 C-49.93217974 121.56490675 -53.62112244 117.89609176 -57.31483459 114.23162746 C-60.15986683 111.40499911 -62.99546825 108.56905438 -65.82846069 105.73036385 C-67.18408341 104.37458826 -68.54279459 103.02189322 -69.9046936 101.67242241 C-71.81474198 99.77735081 -73.71146557 97.86983075 -75.60546875 95.95874023 C-76.16454926 95.4093277 -76.72362976 94.85991516 -77.2996521 94.29385376 C-81.97091891 89.53448133 -85.68315963 84.18610443 -86.1875 77.375 C-85.75403713 69.79305658 -81.03898287 64.13212295 -75.78515625 59.08203125 C-75.22557724 58.52811203 -74.66599823 57.97419281 -74.08946228 57.40348816 C-72.31891526 55.65509014 -70.53494834 53.92118034 -68.75 52.1875 C-67.5570139 51.01461585 -66.3649484 49.84079456 -65.17382812 48.66601562 C-62.98097656 46.50562048 -60.78292667 44.35083879 -58.57836914 42.20239258 C-55.92611209 39.61498692 -53.3025371 37.00006173 -50.6875 34.375 C-39.6875 23.375 -39.6875 23.375 -36.99609375 20.71875 C-34.58116588 18.34157061 -34.58116588 18.34157061 -32.25 15.375 C-29.61998768 12.29596119 -26.8249966 9.92421599 -23.6875 7.375 C-22.8625 6.50875 -22.0375 5.6425 -21.1875 4.75 C-14.95238999 -1.17335451 -8.17290606 -1.90067583 0 0 Z " fill="#1AB3B8" transform="translate(294.6875,155.625)"/>
<path d="M0 0 C3.24316333 3.20049013 6.15588638 6.44485797 9 10 C10.6563012 11.67696806 12.32520056 13.34150598 14 15 C15.11427734 16.12401342 16.22750061 17.24907244 17.33984375 18.375 C18.53902257 19.58337296 19.73824201 20.79170562 20.9375 22 C21.53240234 22.60328125 22.12730469 23.2065625 22.74023438 23.828125 C26.34114357 27.4487113 30.0415203 30.77520404 34 34 C37.63171661 37.4545597 40.79396183 41.15275419 44 45 C46.55612636 47.68720976 49.1199811 50.09748464 52 52.4375 C55.07903881 55.06751232 57.45078401 57.8625034 60 61 C62.20779495 63.2603615 64.4348341 65.47520309 66.75 67.625 C69.31607691 70.4476846 69.18992017 73.69269017 69.25 77.3125 C69.27578125 78.23675781 69.3015625 79.16101563 69.328125 80.11328125 C67.92123459 92.49056709 53.12522943 103.02503962 44.66796875 111.46484375 C43.50199581 112.63149217 42.3361712 113.79828885 41.17048645 114.96522522 C38.74751807 117.38965554 36.32278153 119.81229908 33.89672852 122.23364258 C30.79209597 125.33254022 27.69202721 128.43595872 24.59324169 131.54070187 C22.19555722 133.94200013 19.795496 136.34091146 17.39470863 138.73910713 C16.25013222 139.88301853 15.10629248 141.02766753 13.96321678 142.17307854 C12.37005877 143.76878071 10.77372292 145.36123513 9.17651367 146.95288086 C7.81824715 148.30995399 7.81824715 148.30995399 6.43254089 149.69444275 C0.4806065 155.33567391 -3.96607524 156.50032463 -12.109375 156.40234375 C-17.78756682 155.61200084 -21.85172314 152.61276915 -25.4453125 148.2421875 C-28.72636372 142.75847253 -29.12443159 136.20090951 -28 130 C-24.53126096 123.75710156 -19.32262973 119.08809052 -14.2734375 114.11328125 C-13.31936346 113.16548767 -12.36580943 112.21717038 -11.41275024 111.26835632 C-8.91566176 108.78450174 -6.4130497 106.30629593 -3.90875244 103.82971191 C0.10718466 99.85708409 4.11626441 95.87756406 8.12217331 91.89482689 C9.51905136 90.5081463 10.91948983 89.12505529 12.31997681 87.74201965 C13.16780731 86.90072006 14.01563782 86.05942047 14.88916016 85.19262695 C16.01023666 84.08392998 16.01023666 84.08392998 17.15396118 82.95283508 C19.16437137 80.93596608 19.16437137 80.93596608 21 78 C17.23895487 73.39271971 13.35524483 69.43163639 8.8359375 65.5703125 C6.77330028 63.80609938 4.80464455 62.03022512 3 60 C3 59.34 3 58.68 3 58 C1.515 57.505 1.515 57.505 0 57 C-1.71108689 55.37897032 -3.37253306 53.70496537 -5 52 C-5.928125 51.113125 -6.85625 50.22625 -7.8125 49.3125 C-10 47 -10 47 -10 45 C-11.485 44.505 -11.485 44.505 -13 44 C-11.2089807 36.18067182 -8.93007144 28.63647834 -6.33984375 21.046875 C-4.00231465 14.1016666 -2.02528858 7.04110967 0 0 Z " fill="#DD6231" transform="translate(344,227)"/>
<path d="M0 0 C12 12 24 24 36 36 C35.0576886 39.14595237 34.11482619 42.29173935 33.171875 45.4375 C32.90874512 46.31599609 32.64561523 47.19449219 32.37451172 48.09960938 C25.21935495 71.96480918 25.21935495 71.96480918 23 76 C19.09886783 75.44318347 17.33007455 73.69475168 14.59863281 70.93920898 C13.3077475 69.64798378 13.3077475 69.64798378 11.99078369 68.33067322 C11.07085632 67.39526199 10.15092896 66.45985077 9.203125 65.49609375 C8.2454278 64.53279924 7.28706453 63.57016651 6.32806396 62.60816956 C3.80940769 60.07807517 1.29989162 57.53910072 -1.20782471 54.99816895 C-3.76980732 52.40546323 -6.34033501 49.82126044 -8.91015625 47.23632812 C-13.94849841 42.1658401 -18.97723334 37.0859212 -24 32 C-20.22089522 32 -19.53893899 32.99703962 -16.8125 35.5 C-16.09707031 36.1496875 -15.38164062 36.799375 -14.64453125 37.46875 C-14.10183594 37.9740625 -13.55914062 38.479375 -13 39 C-13.06960937 38.2471875 -13.13921875 37.494375 -13.2109375 36.71875 C-13.92290662 22.75059401 -8.73968896 10.75654026 0 0 Z " fill="#1D98B8" transform="translate(256,232)"/>
<path d="M0 0 C3.24316333 3.20049013 6.15588638 6.44485797 9 10 C10.6563012 11.67696806 12.32520056 13.34150598 14 15 C15.11427734 16.12401342 16.22750061 17.24907244 17.33984375 18.375 C18.53902257 19.58337296 19.73824201 20.79170562 20.9375 22 C21.53240234 22.60328125 22.12730469 23.2065625 22.74023438 23.828125 C25.51233546 26.61537418 28.22795245 29.20798245 31.37890625 31.5625 C34.51262368 34.4767171 34.8021903 35.79788052 35 40 C35.07863281 40.99257813 35.15726562 41.98515625 35.23828125 43.0078125 C35.56988309 56.93508966 30.50053558 66.71278627 23 78 C19.61210314 76.87070105 18.68182417 75.47087532 16.5234375 72.75 C14.21021263 70.09275707 11.54248363 67.89306727 8.87109375 65.60546875 C6.7988232 63.82738274 4.8155483 62.04249184 3 60 C3 59.34 3 58.68 3 58 C2.01 57.67 1.02 57.34 0 57 C-1.71108689 55.37897032 -3.37253306 53.70496537 -5 52 C-5.928125 51.113125 -6.85625 50.22625 -7.8125 49.3125 C-10 47 -10 47 -10 45 C-10.99 44.67 -11.98 44.34 -13 44 C-11.2089807 36.18067182 -8.93007144 28.63647834 -6.33984375 21.046875 C-4.00231465 14.1016666 -2.02528858 7.04110967 0 0 Z " fill="#C83941" transform="translate(344,227)"/>
<path d="M0 0 C1.65 0.33 3.3 0.66 5 1 C5 1.66 5 2.32 5 3 C6.45880109 2.85892253 7.91703551 2.71197585 9.375 2.5625 C10.18710937 2.48128906 10.99921875 2.40007812 11.8359375 2.31640625 C14.04272805 2.10909886 14.04272805 2.10909886 16 1 C16 1.66 16 2.32 16 3 C18.31 3.33 20.62 3.66 23 4 C23 4.33 23 4.66 23 5 C18.545 5.495 18.545 5.495 14 6 C13.67 6.99 13.34 7.98 13 9 C12.34 9 11.68 9 11 9 C10.67 8.67 10.34 8.34 10 8 C10.99 10.31 11.98 12.62 13 15 C13.99 12.03 14.98 9.06 16 6 C17.65 6 19.3 6 21 6 C19.43551329 11.6143991 17.83604813 16.86810338 15 22 C13.35 22 11.7 22 10 22 C9.67 21.34 9.34 20.68 9 20 C8.071875 20.495 7.14375 20.99 6.1875 21.5 C3 23 3 23 0 23 C-0.33 20.69 -0.66 18.38 -1 16 C-3.97 16 -6.94 16 -10 16 C-10 16.99 -10 17.98 -10 19 C-7.03 19 -4.06 19 -1 19 C-1 19.99 -1 20.98 -1 22 C-5.29 22 -9.58 22 -14 22 C-14.05382106 19.37472811 -14.09358313 16.75055287 -14.125 14.125 C-14.14175781 13.37863281 -14.15851563 12.63226563 -14.17578125 11.86328125 C-14.1933959 9.90805539 -14.10320189 7.95257979 -14 6 C-12 4 -12 4 -9.1796875 3.8046875 C-8.08914062 3.82789063 -6.99859375 3.85109375 -5.875 3.875 C-4.77929688 3.89304687 -3.68359375 3.91109375 -2.5546875 3.9296875 C-1.71164063 3.95289063 -0.86859375 3.97609375 0 4 C0 2.68 0 1.36 0 0 Z " fill="#301436" transform="translate(250,408)"/>
<path d="M0 0 C0.57492187 0.30550781 1.14984375 0.61101562 1.7421875 0.92578125 C4.65748686 2.31281814 6.91062948 2.23093744 10.125 2.1875 C11.70667969 2.17783203 11.70667969 2.17783203 13.3203125 2.16796875 C15.97169979 2.17680958 15.97169979 2.17680958 18 1 C18 1.99 18 2.98 18 4 C12.72 4 7.44 4 2 4 C2.33 11.59 2.66 19.18 3 27 C4.32 26.67 5.64 26.34 7 26 C8.10868317 29.32604951 8.54177532 32.53058454 9 36 C6 38 6 38 3.8125 37.625 C3.214375 37.41875 2.61625 37.2125 2 37 C2.185625 36.38125 2.37125 35.7625 2.5625 35.125 C3.23686176 32.95839822 3.23686176 32.95839822 2 31 C2.33 30.34 2.66 29.68 3 29 C2.01 28.67 1.02 28.34 0 28 C0 24.66666667 0 21.33333333 0 18 C-1.94074861 18.27617533 -1.94074861 18.27617533 -4 19 C-4.66 19.99 -5.32 20.98 -6 22 C-6.66 22 -7.32 22 -8 22 C-7.979375 22.78375 -7.95875 23.5675 -7.9375 24.375 C-8 27 -8 27 -9 29 C-9.04022391 31.3329866 -9.04320247 33.66706666 -9 36 C-10.32 35.34 -11.64 34.68 -13 34 C-13.33 34.66 -13.66 35.32 -14 36 C-14.66 36 -15.32 36 -16 36 C-17.4606285 33.35261084 -18 32.10551666 -18 29 C-17.195625 28.731875 -16.39125 28.46375 -15.5625 28.1875 C-14.716875 27.795625 -13.87125 27.40375 -13 27 C-12.67 26.01 -12.34 25.02 -12 24 C-13.65 24 -15.3 24 -17 24 C-17 23.67 -17 23.34 -17 23 C-15.02 22.67 -13.04 22.34 -11 22 C-11.33 20.35 -11.66 18.7 -12 17 C-12 18.65 -12 20.3 -12 22 C-13.65 22 -15.3 22 -17 22 C-17 15.73 -17 9.46 -17 3 C-14.89625 3.04125 -12.7925 3.0825 -10.625 3.125 C-7.12814514 3.24360073 -7.12814514 3.24360073 -4 3 C-3.34 2.34 -2.68 1.68 -2 1 C-1.34 0.67 -0.68 0.34 0 0 Z M4 23 C8.29 23 12.58 23 17 23 C17 23.33 17 23.66 17 24 C14.36 24 11.72 24 9 24 C8.67 24.99 8.34 25.98 8 27 C8 26.01 8 25.02 8 24 C6.68 23.67 5.36 23.34 4 23 Z " fill="#34103B" transform="translate(354,409)"/>
<path d="M0 0 C3.22237524 1.07412508 3.74191327 1.63226604 5.75 4.1875 C7.82736652 6.71111562 9.90799157 8.86841895 12.4375 10.9375 C15.79141205 13.70041433 18.49703889 16.80831372 21.3046875 20.11328125 C23.65766362 22.73191596 26.25216459 24.80173168 29 27 C31.375 29.1875 31.375 29.1875 33 31 C33 31.66 33 32.32 33 33 C33.99 33.495 33.99 33.495 35 34 C29.1646735 40.60644386 23.15689218 46.96267159 16.87890625 53.1484375 C15.18541908 54.82929834 13.49206339 56.51029166 11.79882812 58.19140625 C9.16504095 60.80024618 6.52965496 63.40743369 3.8918457 66.01220703 C1.32067748 68.55326567 -1.24431 71.10043436 -3.80859375 73.6484375 C-4.6012413 74.42762543 -5.39388885 75.20681335 -6.21055603 76.00961304 C-6.94214432 76.73782257 -7.6737326 77.4660321 -8.42749023 78.21630859 C-9.07096909 78.85233002 -9.71444794 79.48835144 -10.37742615 80.14364624 C-14.42018468 84.76888409 -14.41872692 88.99520425 -14.32421875 94.94921875 C-13.70040179 100.8191109 -11.24419008 104.99902998 -7 109 C-8.65 108.34 -10.3 107.68 -12 107 C-12 106.34 -12 105.68 -12 105 C-12.99 105 -13.98 105 -15 105 C-17.25620126 97.24430818 -18.54558575 89.57466047 -15 82 C-11.84882968 77.01651979 -8.24876563 73.13893958 -3.671875 69.453125 C-1.95719545 67.96279604 -0.59876015 66.40152748 0.8125 64.625 C1.534375 63.75875 2.25625 62.8925 3 62 C3.66 62 4.32 62 5 62 C5.66 60.68 6.32 59.36 7 58 C7.66 58 8.32 58 9 58 C9 57.34 9 56.68 9 56 C13.30232558 51.23255814 13.30232558 51.23255814 17 50 C17.2475 49.01 17.2475 49.01 17.5 48 C17.7475 47.01 17.7475 47.01 18 46 C18.99 45.67 19.98 45.34 21 45 C21.33 44.01 21.66 43.02 22 42 C22.66 41.67 23.32 41.34 24 41 C25.13350534 38.98330173 25.13350534 38.98330173 26 37 C26.99 37 27.98 37 29 37 C29 36.34 29 35.68 29 35 C29.66 34.34 30.32 33.68 31 33 C27.8826159 29.54908244 27.8826159 29.54908244 24 27.125 C21.23222586 25.56812704 20.0411971 23.33353026 18.28515625 20.734375 C16.52046123 18.35284129 14.36195881 16.77146911 12 15 C10.33333333 13.33333333 8.66666667 11.66666667 7 10 C6.34 9.67 5.68 9.34 5 9 C5 8.01 5 7.02 5 6 C4.34 6 3.68 6 3 6 C1.87982628 8.16033504 0.88555195 10.29327313 0 12.5625 C-1 15 -1 15 -3 18 C-4.06580547 21.58615591 -4.06580547 21.58615591 -3 25 C-3.66 25.33 -4.32 25.66 -5 26 C-4.67 26.66 -4.34 27.32 -4 28 C-4.16520123 32.37783257 -4.58991855 34.492794 -7.375 37.9375 C-10 40 -10 40 -13 40 C-3.48424069 3.48424069 -3.48424069 3.48424069 0 0 Z " fill="#590F3F" transform="translate(331,271)"/>
<path d="M0 0 C5.55489682 3.30291162 10.25292468 7.07512254 12.3125 13.375 C13.2524363 20.35402706 12.06222422 25.3666594 8.3125 31.375 C5.68321193 34.52804195 2.79715425 37.38151642 -0.13671875 40.25 C-0.94994095 41.05993408 -1.76316315 41.86986816 -2.60102844 42.7043457 C-4.31018257 44.40312565 -6.02407592 46.09714937 -7.74243164 47.78662109 C-10.38580028 50.38561899 -13.01531169 52.99801594 -15.64257812 55.61328125 C-17.30651418 57.263805 -18.9712011 58.91357222 -20.63671875 60.5625 C-21.42833908 61.3467334 -22.21995941 62.1309668 -23.03556824 62.93896484 C-23.76334976 63.65391113 -24.49113129 64.36885742 -25.2409668 65.10546875 C-25.88398239 65.73864014 -26.52699799 66.37181152 -27.1894989 67.02416992 C-28.6875 68.375 -28.6875 68.375 -29.6875 68.375 C-29.6875 66.395 -29.6875 64.415 -29.6875 62.375 C-26.6875 61.375 -26.6875 61.375 -23.6875 61.375 C-23.460625 60.26125 -23.23375 59.1475 -23 58 C-21.6875 54.375 -21.6875 54.375 -19.1875 53.1875 C-18.3625 52.919375 -17.5375 52.65125 -16.6875 52.375 C-15.34339738 50.35764795 -15.34339738 50.35764795 -14.6875 48.375 C-13.3675 48.375 -12.0475 48.375 -10.6875 48.375 C-11.0175 47.385 -11.3475 46.395 -11.6875 45.375 C-10.90375 44.941875 -10.12 44.50875 -9.3125 44.0625 C-6.47051625 42.48279753 -6.47051625 42.48279753 -4.6875 39.375 C-5.6775 38.88 -5.6775 38.88 -6.6875 38.375 C-4.3775 38.045 -2.0675 37.715 0.3125 37.375 C0.539375 36.09625 0.76625 34.8175 1 33.5 C1.54296875 31.2734375 1.54296875 31.2734375 2.3125 29.375 C4.8125 28.125 4.8125 28.125 7.3125 27.375 C9.38712692 24.24129781 9.67341929 21.32212997 9.9375 17.625 C10.01226562 16.64015625 10.08703125 15.6553125 10.1640625 14.640625 C10.21304688 13.89296875 10.26203125 13.1453125 10.3125 12.375 C9.6525 12.375 8.9925 12.375 8.3125 12.375 C7.8175 10.89 7.8175 10.89 7.3125 9.375 C5.64979713 8.03672696 3.98333819 6.70310215 2.3125 5.375 C2.3125 4.715 2.3125 4.055 2.3125 3.375 C-2.9675 2.715 -8.2475 2.055 -13.6875 1.375 C-13.6875 2.035 -13.6875 2.695 -13.6875 3.375 C-15.10255697 4.31837132 -16.52208965 5.25580773 -17.96484375 6.15625 C-19.84031826 7.48311632 -21.30229586 8.9537555 -22.875 10.625 C-25.6875 13.375 -25.6875 13.375 -28.6875 13.375 C-28.935 13.9525 -29.1825 14.53 -29.4375 15.125 C-30.87049988 17.70439979 -32.47174676 19.43621592 -34.6875 21.375 C-35.3475 21.375 -36.0075 21.375 -36.6875 21.375 C-36.914375 21.931875 -37.14125 22.48875 -37.375 23.0625 C-39.04646766 26.00746684 -41.24026352 28.05656544 -43.6875 30.375 C-44.3475 30.045 -45.0075 29.715 -45.6875 29.375 C-41.29108476 24.25328783 -36.95640339 19.59012271 -31.6875 15.375 C-29.1465396 12.95503771 -26.84658881 10.57883254 -24.6875 7.8125 C-18.06064899 -0.26397467 -10.03456102 -2.33361884 0 0 Z " fill="#3372A2" transform="translate(294.6875,155.625)"/>
<path d="M0 0 C0.495 1.485 0.495 1.485 1 3 C0.3709375 3.60585938 -0.258125 4.21171875 -0.90625 4.8359375 C-7.29202708 11.0870747 -12.93671121 17.63022603 -18.32421875 24.75 C-21.14020623 28.34248901 -24.2833681 30.79248421 -27.94921875 33.4296875 C-31.27966498 35.97985776 -34.09785531 38.98404571 -37 42 C-38.3303125 43.2684375 -38.3303125 43.2684375 -39.6875 44.5625 C-44.14001503 49.25569152 -46.68271741 53.20802199 -47.17578125 59.68359375 C-46.80567737 64.56074039 -44.40612555 68.59387445 -41 72 C-40.01 71.505 -40.01 71.505 -39 71 C-38.46439453 71.98226562 -38.46439453 71.98226562 -37.91796875 72.984375 C-36.09700569 75.32434604 -36.09700569 75.32434604 -32.86328125 75.390625 C-31.69152344 75.34421875 -30.51976562 75.2978125 -29.3125 75.25 C-28.13300781 75.21390625 -26.95351563 75.1778125 -25.73828125 75.140625 C-24.83464844 75.09421875 -23.93101562 75.0478125 -23 75 C-22.70867187 74.35933594 -22.41734375 73.71867187 -22.1171875 73.05859375 C-20.73220163 70.50653937 -19.55374569 70.27687284 -17 69 C-16.34 68.13375 -15.68 67.2675 -15 66.375 C-14.34 65.59125 -13.68 64.8075 -13 64 C-11.68 64 -10.36 64 -9 64 C-9 63.01 -9 62.02 -9 61 C-8.34 61 -7.68 61 -7 61 C-7 60.34 -7 59.68 -7 59 C-6.01 59 -5.02 59 -4 59 C-4 58.01 -4 57.02 -4 56 C-2.68 56.33 -1.36 56.66 0 57 C-2.74585788 59.77496433 -5.4973949 62.54422967 -8.25 65.3125 C-9.02730469 66.09818359 -9.80460937 66.88386719 -10.60546875 67.69335938 C-11.35957031 68.45068359 -12.11367188 69.20800781 -12.890625 69.98828125 C-13.58188477 70.68477783 -14.27314453 71.38127441 -14.98535156 72.09887695 C-20.71837207 77.5088419 -25.30977978 78.49618915 -33.109375 78.40234375 C-38.78756682 77.61200084 -42.85172314 74.61276915 -46.4453125 70.2421875 C-49.72636372 64.75847253 -50.12443159 58.20090951 -49 52 C-45.53126096 45.75710156 -40.32262973 41.08809052 -35.2734375 36.11328125 C-34.31936346 35.16548767 -33.36580943 34.21717038 -32.41275024 33.26835632 C-29.91566176 30.78450174 -27.4130497 28.30629593 -24.90875244 25.82971191 C-20.89281534 21.85708409 -16.88373559 17.87756406 -12.87782669 13.89482689 C-11.48094864 12.5081463 -10.08051017 11.12505529 -8.68002319 9.74201965 C-7.83219269 8.90072006 -6.98436218 8.05942047 -6.11083984 7.19262695 C-4.98976334 6.08392998 -4.98976334 6.08392998 -3.84603882 4.95283508 C-1.83562863 2.93596608 -1.83562863 2.93596608 0 0 Z " fill="#AD3A51" transform="translate(365,305)"/>
<path d="M0 0 C2.81370695 2.81370695 2.45441164 5.65967866 2.625 9.4375 C2.66367187 10.11876953 2.70234375 10.80003906 2.7421875 11.50195312 C3.19618456 19.77929237 3.19618456 19.77929237 1.5 21.6875 C1.005 22.120625 0.51 22.55375 0 23 C0.66 23.33 1.32 23.66 2 24 C0.35 23.67 -1.3 23.34 -3 23 C-3.226875 23.556875 -3.45375 24.11375 -3.6875 24.6875 C-5.73140674 28.28866902 -8.71157635 30.92631363 -11.875 33.5625 C-12.431875 34.2740625 -12.431875 34.2740625 -13 35 C-12.77242269 37.16299211 -12.77242269 37.16299211 -12 39 C-14.07553648 39.5534764 -15.84365964 40 -18 40 C-19.92789006 41.72835197 -21.74891566 43.47105009 -23.5625 45.3125 C-24.06974609 45.81201172 -24.57699219 46.31152344 -25.09960938 46.82617188 C-27.45712155 49.1962407 -28.92879433 50.786383 -30 54 C-30.66 54 -31.32 54 -32 54 C-32.495 54.99 -32.495 54.99 -33 56 C-33.886875 56.721875 -34.77375 57.44375 -35.6875 58.1875 C-40.29052215 61.94552292 -44.87907103 65.97335837 -46 72 C-46.78375 72.103125 -47.5675 72.20625 -48.375 72.3125 C-51.33045181 72.77595022 -51.33045181 72.77595022 -53 76 C-53 76.99 -53 77.98 -53 79 C-53.721875 79.020625 -54.44375 79.04125 -55.1875 79.0625 C-59.32037516 80.44012505 -60.78717508 83.39356619 -63 87 C-64.485 86.505 -64.485 86.505 -66 86 C-66.86625 86.474375 -67.7325 86.94875 -68.625 87.4375 C-73.85795657 89.86016508 -78.25760391 89.82504289 -83.765625 88.16796875 C-90.74757282 85.50485437 -90.74757282 85.50485437 -92 83 C-91.47792969 83.2165625 -90.95585937 83.433125 -90.41796875 83.65625 C-83.72962622 86.18634105 -76.58494612 87.49843902 -69.62319946 85.22322083 C-60.03491302 80.75211909 -52.26013234 70.42307031 -44.7890625 62.95703125 C-43.64715399 61.81834569 -42.50517465 60.67973115 -41.36312866 59.54118347 C-38.98983479 57.1738261 -36.61856387 54.80446387 -34.24853516 52.43383789 C-31.22093878 49.40613926 -28.18647848 46.38542014 -25.15027809 43.36635303 C-22.79791316 41.02512527 -20.45012611 38.67934766 -18.1035881 36.33228111 C-16.98651023 35.21637732 -15.86782427 34.10208076 -14.7474556 32.98948097 C-13.18310176 31.43497834 -11.62527367 29.87420253 -10.06884766 28.31176758 C-8.74175278 26.98681023 -8.74175278 26.98681023 -7.3878479 25.63508606 C-1.7987479 19.46728973 0.13823839 15.06798414 0.0625 6.8125 C0.05347656 5.54019531 0.04445313 4.26789063 0.03515625 2.95703125 C0.02355469 1.98121094 0.01195312 1.00539063 0 0 Z " fill="#4A0A38" transform="translate(412,296)"/>
<path d="M0 0 C0.66 0 1.32 0 2 0 C4.55447613 5.63426791 4.92328027 10.90003722 4 17 C1.80443885 21.41190049 -0.92245317 24.28163545 -5 27 C-5.226875 27.721875 -5.45375 28.44375 -5.6875 29.1875 C-7.71751842 33.53753946 -11.36338272 35.97069058 -15 39 C-16.9293868 40.87724121 -18.79392082 42.77806858 -20.625 44.75 C-22 46 -22 46 -24 46 C-24 46.66 -24 47.32 -24 48 C-24.66 48 -25.32 48 -26 48 C-26 49.98 -26 51.96 -26 54 C-26.9590625 54.185625 -26.9590625 54.185625 -27.9375 54.375 C-28.618125 54.58125 -29.29875 54.7875 -30 55 C-30.33 55.66 -30.66 56.32 -31 57 C-32.485 57.495 -32.485 57.495 -34 58 C-34.33 58.99 -34.66 59.98 -35 61 C-35.33 61.99 -35.66 62.98 -36 64 C-37.485 64.495 -37.485 64.495 -39 65 C-39.33 64.67 -39.66 64.34 -40 64 C-40.66 64.99 -41.32 65.98 -42 67 C-41.67 67.66 -41.34 68.32 -41 69 C-41.27942455 70.67654729 -41.60828247 72.34608154 -42 74 C-43.98 72.35 -45.96 70.7 -48 69 C-46.50344097 65.49179918 -44.49669298 63.27477562 -41.78149414 60.61791992 C-40.91041519 59.7599028 -40.03933624 58.90188568 -39.14186096 58.01786804 C-38.19914841 57.09802628 -37.25643585 56.17818451 -36.28515625 55.23046875 C-35.30798523 54.26719965 -34.33155062 53.303183 -33.3558197 52.3384552 C-29.21936114 48.25076092 -25.07192432 44.17434536 -20.9152832 40.10717773 C-18.36917257 37.61487419 -15.8330882 35.11271818 -13.30276299 32.60439491 C-11.8750127 31.194974 -10.43614174 29.79684691 -8.99708557 28.39897156 C-3.66608163 23.10917445 0.40391367 18.96028984 1.328125 11.26953125 C1.30234375 10.45871094 1.2765625 9.64789063 1.25 8.8125 C1.23453125 7.99394531 1.2190625 7.17539063 1.203125 6.33203125 C1.01043928 4.11985094 0.60769242 2.13182423 0 0 Z M-28 51 C-27 53 -27 53 -27 53 Z " fill="#241144" transform="translate(305,165)"/>
<path d="M0 0 C4.63235294 2.26470588 4.63235294 2.26470588 6 5 C6.43023798 8.87214182 6.31669086 10.52496371 4.125 13.8125 C1.62980912 16.38107884 0.71830363 16.90422618 -2.8125 17.375 C-6 17 -6 17 -8.875 15 C-11.82360163 10.83726829 -11.7975483 9.02455429 -11 4 C-7.70392125 0.12226029 -4.99170402 -0.72795684 0 0 Z " fill="#EBE7EB" transform="translate(325,414)"/>
<path d="M0 0 C9 -0.48 9 -0.48 13.125 1.5 C15.40468273 4.53957697 15.69079802 6.36267284 15.3984375 10.09375 C15 12 15 12 13.6875 14.5 C9.26196125 16.97006814 5.00172975 16.23817761 0 16 C0 10.72 0 5.44 0 0 Z " fill="#EEEAEE" transform="translate(214,414)"/>
<path d="M0 0 C1.15185547 1.49829102 1.15185547 1.49829102 2 4 C1.32606884 6.80842278 0.5543313 9.32965598 -0.4296875 12.02734375 C-0.98326254 13.64121101 -1.53664138 15.25514558 -2.08984375 16.86914062 C-2.97475261 19.39198409 -3.86605374 21.91238507 -4.76318359 24.4309082 C-11.05014432 41.02331085 -11.05014432 41.02331085 -8.5 58 C-5.80361168 61.23566599 -3.28763283 62.9903715 0.390625 64.95703125 C1.18726563 65.47330078 1.18726563 65.47330078 2 66 C2 66.66 2 67.32 2 68 C0.01432292 67.70703125 -1.97135417 67.4140625 -3.95703125 67.12109375 C-6.2025342 66.86095201 -6.2025342 66.86095201 -9 68 C-9.0825 66.96875 -9.165 65.9375 -9.25 64.875 C-10.06177973 60.68080471 -11.39232263 58.34108663 -14 55 C-14.33 55 -14.66 55 -15 55 C-14.67 51.7 -14.34 48.4 -14 45 C-14.66 44.67 -15.32 44.34 -16 44 C-15.34 44 -14.68 44 -14 44 C-13.89042969 43.43152344 -13.78085937 42.86304688 -13.66796875 42.27734375 C-12.62203205 37.18371706 -11.08635728 32.78123543 -9 28 C-7.20041391 22.55736536 -7.20041391 22.55736536 -8 17 C-6.68 16.67 -5.36 16.34 -4 16 C-4.21527344 15.46890625 -4.43054688 14.9378125 -4.65234375 14.390625 C-5.14963651 10.97103884 -3.95598286 8.87683958 -2.5625 5.75 C-2.08941406 4.67234375 -1.61632812 3.5946875 -1.12890625 2.484375 C-0.75636719 1.66453125 -0.38382812 0.8446875 0 0 Z " fill="#391437" transform="translate(274,316)"/>
<path d="M0 0 C10.17966102 -0.48474576 10.17966102 -0.48474576 13.75 1.625 C15.42932909 4.81572526 14.87666567 6.5663928 14 10 C14 12.62113708 14.31292445 14.50935112 15 17 C13.35 17 11.7 17 10 17 C9.731875 16.360625 9.46375 15.72125 9.1875 15.0625 C8.11332248 12.66868314 8.11332248 12.66868314 5 12 C5 13.65 5 15.3 5 17 C3.35 17 1.7 17 0 17 C0 11.39 0 5.78 0 0 Z " fill="#CDC8CE" transform="translate(377,414)"/>
<path d="M0 0 C4.859375 4.75 4.859375 4.75 6.125 7 C5.9214032 10.25754878 3.25112817 11.74887183 1 14 C0.05691333 16.04795808 -0.65377924 18.07930393 -1.32421875 20.23046875 C-2 22 -2 22 -4 24 C-5.9049413 28.06387477 -7.05608861 32.39847827 -8.31640625 36.6953125 C-8.84394557 38.47387365 -9.4133504 40.24005121 -10 42 C-8.95158486 44.2322188 -8.95158486 44.2322188 -7 46 C-4.40144267 46.8042208 -4.40144267 46.8042208 -2 47 C-1.89816406 47.58265625 -1.79632813 48.1653125 -1.69140625 48.765625 C-0.88482847 51.37219275 0.24157009 52.73535414 2.0625 54.75 C2.61035156 55.36359375 3.15820312 55.9771875 3.72265625 56.609375 C4.14417969 57.06828125 4.56570313 57.5271875 5 58 C4.01 58.495 4.01 58.495 3 59 C-6.5344885 50.7904032 -6.5344885 50.7904032 -10 47 C-10 46.34 -10 45.68 -10 45 C-10.99 44.67 -11.98 44.34 -13 44 C-11.2089807 36.18067182 -8.93007144 28.63647834 -6.33984375 21.046875 C-4.00231465 14.1016666 -2.02528858 7.04110967 0 0 Z " fill="#CE593C" transform="translate(344,227)"/>
<path d="M0 0 C1.5675 -0.061875 3.135 -0.12375 4.75 -0.1875 C6.07257813 -0.23970703 6.07257813 -0.23970703 7.421875 -0.29296875 C10.50039296 0.05686284 11.80816743 0.83839961 14 3 C14.46376624 6.18011138 14.54663625 8.08893958 12.875 10.875 C10.21965017 12.4682099 8.03210482 12.20214032 5 12 C5 13.65 5 15.3 5 17 C3.35 17 1.7 17 0 17 C0 11.39 0 5.78 0 0 Z " fill="#EEEAEE" transform="translate(337,414)"/>
<path d="M0 0 C4.62 0 9.24 0 14 0 C14 1.32 14 2.64 14 4 C11.03 4 8.06 4 5 4 C5 4.99 5 5.98 5 7 C7.31 7 9.62 7 12 7 C12 7.99 12 8.98 12 10 C9.69 10 7.38 10 5 10 C5 10.99 5 11.98 5 13 C7.97 13 10.94 13 14 13 C14 14.32 14 15.64 14 17 C9.38 17 4.76 17 0 17 C0 11.39 0 5.78 0 0 Z " fill="#DFDBE0" transform="translate(357,414)"/>
<path d="M0 0 C4.29 0 8.58 0 13 0 C13 1.32 13 2.64 13 4 C10.03 4 7.06 4 4 4 C4 4.99 4 5.98 4 7 C6.64 7 9.28 7 12 7 C12 7.99 12 8.98 12 10 C9.69 10 7.38 10 5 10 C5 10.99 5 11.98 5 13 C7.64 13 10.28 13 13 13 C13 14.32 13 15.64 13 17 C8.71 17 4.42 17 0 17 C0 11.39 0 5.78 0 0 Z " fill="#E8E3E8" transform="translate(277,414)"/>
<path d="M0 0 C0.99 0.33 1.98 0.66 3 1 C2.59101471 1.40454407 2.18202942 1.80908813 1.76065063 2.22589111 C-2.49536723 6.43765934 -6.74432659 10.65645321 -10.98925781 14.87939453 C-12.57437122 16.45445094 -14.16127512 18.02770757 -15.75 19.59912109 C-18.03338238 21.85824254 -20.31024598 24.12375971 -22.5859375 26.390625 C-23.29744965 27.09181458 -24.00896179 27.79300415 -24.74203491 28.51544189 C-25.40256866 29.17582458 -26.06310242 29.83620728 -26.74365234 30.51660156 C-27.32545258 31.09396057 -27.90725281 31.67131958 -28.50668335 32.26617432 C-32.44485408 36.83861483 -32.4169283 41.10851727 -32.32421875 46.94921875 C-31.70040179 52.8191109 -29.24419008 56.99902998 -25 61 C-26.65 60.34 -28.3 59.68 -30 59 C-30 58.34 -30 57.68 -30 57 C-30.99 57 -31.98 57 -33 57 C-35.25620126 49.24430818 -36.54558575 41.57466047 -33 34 C-29.84882968 29.01651979 -26.24876563 25.13893958 -21.671875 21.453125 C-19.95719545 19.96279604 -18.59876015 18.40152748 -17.1875 16.625 C-16.465625 15.75875 -15.74375 14.8925 -15 14 C-14.34 14 -13.68 14 -13 14 C-12.34 12.68 -11.68 11.36 -11 10 C-10.34 10 -9.68 10 -9 10 C-9 9.34 -9 8.68 -9 8 C-6.26102806 5.0327804 -3.47805513 2.08683308 0 0 Z " fill="#600E41" transform="translate(349,319)"/>
<path d="M0 0 C0.66 0 1.32 0 2 0 C2.10251672 5.12583611 2.03590199 9.94997778 1 15 C0.34 15 -0.32 15 -1 15 C-1 15.99 -1 16.98 -1 18 C-1.66 18 -2.32 18 -3 18 C-3.1546875 18.9590625 -3.1546875 18.9590625 -3.3125 19.9375 C-4.23903073 24.06477326 -5.61660629 28.00642949 -7 32 C-6.34 32.66 -5.68 33.32 -5 34 C-5.1875 36 -5.1875 36 -6 38 C-6.99 38.66 -7.98 39.32 -9 40 C-9.72382467 42.05925139 -9.72382467 42.05925139 -10 44 C-10.66 44 -11.32 44 -12 44 C-13.93026164 38.71086499 -11.7377096 34.33423319 -9.9375 29.3125 C-9.28883952 27.4401814 -8.64040648 25.56778399 -7.9921875 23.6953125 C-7.66057617 22.75075195 -7.32896484 21.80619141 -6.98730469 20.83300781 C-5.46562339 16.4666404 -4.01506751 12.07723463 -2.5625 7.6875 C-2.06417479 6.19128206 -1.56551451 4.69517565 -1.06640625 3.19921875 C-0.53853516 1.61560547 -0.53853516 1.61560547 0 0 Z " fill="#511E4C" transform="translate(317,314)"/>
<path d="M0 0 C0.33 0 0.66 0 1 0 C1.08203325 1.70750683 1.13965342 3.41619348 1.1875 5.125 C1.23970703 6.55199219 1.23970703 6.55199219 1.29296875 8.0078125 C0.10076966 20.18413917 -14.24612882 30.38113543 -22.5625 38.625 C-23.58161754 39.63908446 -24.60049899 40.65340625 -25.61914062 41.66796875 C-28.07672412 44.11470835 -30.53744246 46.55826544 -33 49 C-33.66 48.01 -34.32 47.02 -35 46 C-33.1875 44 -33.1875 44 -31 42 C-30.01 42 -29.02 42 -28 42 C-28.495 40.515 -28.495 40.515 -29 39 C-28.34 39 -27.68 39 -27 39 C-27 38.34 -27 37.68 -27 37 C-25.515 36.505 -25.515 36.505 -24 36 C-23.3503125 34.88625 -23.3503125 34.88625 -22.6875 33.75 C-20.54234292 30.25418846 -18.28625887 28.44721405 -15 26 C-14.34 26 -13.68 26 -13 26 C-13 25.34 -13 24.68 -13 24 C-12.34 24 -11.68 24 -11 24 C-11 23.34 -11 22.68 -11 22 C-10.01 22 -9.02 22 -8 22 C-7.82984375 21.39671875 -7.6596875 20.7934375 -7.484375 20.171875 C-5.43335104 13.4078598 -5.43335104 13.4078598 -2.875 11 C0.06871969 7.86003233 -0.178075 4.166955 0 0 Z " fill="#D8833D" transform="translate(412,299)"/>
<path d="M0 0 C4.29 0 8.58 0 13 0 C13 1.32 13 2.64 13 4 C10.03 4 7.06 4 4 4 C4 4.99 4 5.98 4 7 C6.64 7 9.28 7 12 7 C12 7.99 12 8.98 12 10 C9.36 10 6.72 10 4 10 C4 10.99 4 11.98 4 13 C6.97 13 9.94 13 13 13 C13 13.99 13 14.98 13 16 C8.71 16 4.42 16 0 16 C0 10.72 0 5.44 0 0 Z " fill="#F0ECF2" transform="translate(236,414)"/>
<path d="M0 0 C0.66 0.33 1.32 0.66 2 1 C1.67 2.32 1.34 3.64 1 5 C-1.31 4.67 -3.62 4.34 -6 4 C-6 4.66 -6 5.32 -6 6 C-5.05125 6.12375 -4.1025 6.2475 -3.125 6.375 C0 7 0 7 2 9 C2.36096554 11.8155312 2.47402746 13.35085412 0.7734375 15.6796875 C-1 17 -1 17 -3.26171875 17.07421875 C-4.06222656 16.94660156 -4.86273438 16.81898438 -5.6875 16.6875 C-6.49574219 16.56761719 -7.30398438 16.44773437 -8.13671875 16.32421875 C-8.75160156 16.21722656 -9.36648438 16.11023438 -10 16 C-10.33 14.35 -10.66 12.7 -11 11 C-6.545 11.99 -6.545 11.99 -2 13 C-2 12.34 -2 11.68 -2 11 C-3.134375 10.690625 -4.26875 10.38125 -5.4375 10.0625 C-9 9 -9 9 -10 8 C-10.25 5.0625 -10.25 5.0625 -10 2 C-6.33134759 -0.44576827 -4.32799657 -0.23607254 0 0 Z " fill="#EBE7EB" transform="translate(409,414)"/>
<path d="M0 0 C0.495 1.485 0.495 1.485 1 3 C0.3709375 3.60585938 -0.258125 4.21171875 -0.90625 4.8359375 C-7.29202708 11.0870747 -12.93671121 17.63022603 -18.32421875 24.75 C-21.14020623 28.34248901 -24.2833681 30.79248421 -27.94921875 33.4296875 C-31.27737501 35.9781043 -34.10983141 38.97524023 -37 42 C-39.86994364 44.93668652 -42.63907231 47.63490274 -46 50 C-45.44196377 46.11488077 -43.72206928 44.36212647 -40.97094727 41.64624023 C-40.11658585 40.7953331 -39.26222443 39.94442596 -38.38197327 39.06773376 C-37.45283615 38.15721756 -36.52369904 37.24670135 -35.56640625 36.30859375 C-34.60783076 35.35815797 -33.64999072 34.40697991 -32.69285583 33.45509338 C-30.17320941 30.95255381 -27.64513037 28.45871731 -25.11474609 25.96704102 C-21.0661092 21.97762451 -17.03007334 17.97547022 -12.99464226 13.97270393 C-11.58481185 12.57681731 -10.17091735 11.18503927 -8.75697327 9.7933197 C-7.89945969 8.94556473 -7.04194611 8.09780975 -6.15844727 7.22436523 C-5.40201431 6.47920151 -4.64558136 5.73403778 -3.8662262 4.96629333 C-1.83694234 2.94007317 -1.83694234 2.94007317 0 0 Z " fill="#B93750" transform="translate(365,305)"/>
<path d="M0 0 C2.81370695 2.81370695 2.45441164 5.65967866 2.625 9.4375 C2.68300781 10.4594043 2.68300781 10.4594043 2.7421875 11.50195312 C3.19618456 19.77929237 3.19618456 19.77929237 1.5 21.6875 C1.005 22.120625 0.51 22.55375 0 23 C0.66 23.33 1.32 23.66 2 24 C0.35 23.67 -1.3 23.34 -3 23 C-3.226875 23.556875 -3.45375 24.11375 -3.6875 24.6875 C-5.73140674 28.28866902 -8.71157635 30.92631363 -11.875 33.5625 C-12.24625 34.036875 -12.6175 34.51125 -13 35 C-12.77242269 37.16299211 -12.77242269 37.16299211 -12 39 C-14.07553648 39.5534764 -15.84365964 40 -18 40 C-19.8539961 41.73333921 -21.62118702 43.48253461 -23.375 45.3125 C-26.4154767 48.46272653 -29.38831988 51.49236428 -33 54 C-33.66 53.67 -34.32 53.34 -35 53 C-34.1121582 52.12263184 -33.22431641 51.24526367 -32.30957031 50.34130859 C-29.00202779 47.07009588 -25.70121475 43.79216248 -22.40234375 40.51220703 C-20.9764237 39.09631501 -19.54870992 37.68222696 -18.11914062 36.27001953 C-16.05900036 34.23426812 -14.00549918 32.19201463 -11.953125 30.1484375 C-11.31755676 29.52319183 -10.68198853 28.89794617 -10.02716064 28.25375366 C-4.91046622 23.13834678 -0.12388768 18.25678078 0.09765625 10.64453125 C0.08605469 9.37996094 0.07445312 8.11539062 0.0625 6.8125 C0.05347656 5.54019531 0.04445313 4.26789063 0.03515625 2.95703125 C0.02355469 1.98121094 0.01195312 1.00539063 0 0 Z " fill="#450E27" transform="translate(412,296)"/>
<path d="M0 0 C0.99 0 1.98 0 3 0 C3.24479492 2.86253578 3.35738207 4.47339539 1.71595764 6.89204407 C1.1149675 7.48494736 0.51397736 8.07785065 -0.10522461 8.6887207 C-0.78270248 9.36904861 -1.46018036 10.04937653 -2.15818787 10.75032043 C-2.89875931 11.4682225 -3.63933075 12.18612457 -4.40234375 12.92578125 C-5.1546376 13.67337204 -5.90693146 14.42096283 -6.68202209 15.19120789 C-9.08906595 17.57688602 -11.51320571 19.94436696 -13.9375 22.3125 C-15.56814175 23.92663957 -17.19771293 25.54186142 -18.82617188 27.15820312 C-21.79979006 30.09781157 -24.77362201 33.03709887 -27.76538086 35.95825195 C-28.3671666 36.54717728 -28.96895233 37.1361026 -29.588974 37.74287415 C-31 39 -31 39 -32 39 C-32 37.02 -32 35.04 -32 33 C-29 32 -29 32 -26 32 C-25.773125 30.88625 -25.54625 29.7725 -25.3125 28.625 C-24 25 -24 25 -21.5 23.8125 C-20.675 23.544375 -19.85 23.27625 -19 23 C-17.65589738 20.98264795 -17.65589738 20.98264795 -17 19 C-15.68 19 -14.36 19 -13 19 C-13.33 18.01 -13.66 17.02 -14 16 C-13.21625 15.566875 -12.4325 15.13375 -11.625 14.6875 C-8.78301625 13.10779753 -8.78301625 13.10779753 -7 10 C-7.66 9.67 -8.32 9.34 -9 9 C-5.535 8.505 -5.535 8.505 -2 8 C-1.34 5.36 -0.68 2.72 0 0 Z " fill="#3180A9" transform="translate(297,185)"/>
<path d="M0 0 C1.0625 1.8125 1.0625 1.8125 2 4 C1.67 4.99 1.34 5.98 1 7 C1.38932856 9.14255793 1.38932856 9.14255793 2 11 C3.32 10.67 4.64 10.34 6 10 C6.33 11.65 6.66 13.3 7 15 C7.66 15 8.32 15 9 15 C9 15.66 9 16.32 9 17 C5.5980513 19.09350689 2.94727588 19.17942163 -1 19 C-2.31223496 15.06329512 -1.24296256 12.87511856 0 9 C-0.66 9 -1.32 9 -2 9 C-2 8.01 -2 7.02 -2 6 C-3.98 6.33 -5.96 6.66 -8 7 C-8 8.32 -8 9.64 -8 11 C-10.97 10.67 -13.94 10.34 -17 10 C-15.94921875 7.51953125 -15.94921875 7.51953125 -14 5 C-10.64453125 4.51171875 -10.64453125 4.51171875 -6.8125 4.6875 C-5.54019531 4.73261719 -4.26789063 4.77773438 -2.95703125 4.82421875 C-1.98121094 4.88222656 -1.00539063 4.94023437 0 5 C0 3.35 0 1.7 0 0 Z " fill="#3B1841" transform="translate(290,427)"/>
<path d="M0 0 C1.32 0 2.64 0 4 0 C5.32 2.97 6.64 5.94 8 9 C8.99 6.03 9.98 3.06 11 0 C12.65 0 14.3 0 16 0 C14.43551329 5.6143991 12.83604813 10.86810338 10 16 C8.35 16 6.7 16 5 16 C4.1605118 13.89828133 3.32860344 11.79353375 2.5 9.6875 C2.0359375 8.51574219 1.571875 7.34398437 1.09375 6.13671875 C0 3 0 3 0 0 Z " fill="#E9E4E9" transform="translate(255,414)"/>
<path d="M0 0 C0.99 0.33 1.98 0.66 3 1 C2.06253955 4.10083071 1.12912083 6.78824183 -0.5625 9.5625 C-2.0711542 12.12065278 -2.6821135 14.05954987 -3 17 C-2.67 17.66 -2.34 18.32 -2 19 C-2.66 19.33 -3.32 19.66 -4 20 C-3.67 20.66 -3.34 21.32 -3 22 C-3.16520123 26.37783257 -3.58991855 28.492794 -6.375 31.9375 C-9 34 -9 34 -12 34 C-9.62988026 24.90490635 -6.86339125 15.94927893 -4 7 C-3.66097656 5.87207031 -3.32195312 4.74414062 -2.97265625 3.58203125 C-2 1 -2 1 0 0 Z " fill="#511D4B" transform="translate(330,277)"/>
<path d="M0 0 C1.65 0 3.3 0 5 0 C5 3.96 5 7.92 5 12 C6.98 12 8.96 12 11 12 C11.33 13.65 11.66 15.3 12 17 C8.04 17 4.08 17 0 17 C0 11.39 0 5.78 0 0 Z " fill="#D6D1D6" transform="translate(297,414)"/>
<path d="M0 0 C0.66 0 1.32 0 2 0 C1.79375 1.175625 1.5875 2.35125 1.375 3.5625 C0.87246525 7.87211619 1.17712583 10.97448621 3 15 C4.76202095 16.53466341 6.53470774 17.75850891 8.5390625 18.95703125 C9.02117187 19.30121094 9.50328125 19.64539063 10 20 C10 20.66 10 21.32 10 22 C10.66 22 11.32 22 12 22 C12.33 23.32 12.66 24.64 13 26 C14.32 26.33 15.64 26.66 17 27 C16.67 27.33 16.34 27.66 16 28 C16.99 28.99 17.98 29.98 19 31 C18.67 31.99 18.34 32.98 18 34 C12.29761876 28.39042424 6.64414466 22.8236222 1.53515625 16.65625 C-0.1556235 14.83210086 -1.97399666 13.43526802 -4 12 C-3.12727273 3.12727273 -3.12727273 3.12727273 0 0 Z " fill="#540C3A" transform="translate(349,218)"/>
<path d="M0 0 C0.99 0.99 1.98 1.98 3 3 C3.33 2.34 3.66 1.68 4 1 C4.72496458 2.5967195 5.42950397 4.20272608 6.125 5.8125 C6.51945312 6.70582031 6.91390625 7.59914063 7.3203125 8.51953125 C7.65675781 9.74736328 7.65675781 9.74736328 8 11 C5.97958823 14.03061766 5.24314437 14.72239767 2 16 C1.01 16 0.02 16 -1 16 C-1.33 12.7 -1.66 9.4 -2 6 C-4.97 6 -7.94 6 -11 6 C-11 5.67 -11 5.34 -11 5 C-5.555 4.505 -5.555 4.505 0 4 C0 2.68 0 1.36 0 0 Z " fill="#34133D" transform="translate(251,415)"/>
<path d="M0 0 C1.25231911 5.51020408 1.25231911 5.51020408 -0.0625 8.0625 C-1.31826295 10.09110821 -1.31826295 10.09110821 -0.125 12.75 C0.24625 13.4925 0.6175 14.235 1 15 C-0.65 15 -2.3 15 -4 15 C-4.268125 14.38125 -4.53625 13.7625 -4.8125 13.125 C-5.95556848 10.7004767 -5.95556848 10.7004767 -9 9 C-8.01 8.67 -7.02 8.34 -6 8 C-6.99 7.67 -7.98 7.34 -9 7 C-9 5.02 -9 3.04 -9 1 C-3.375 -1.125 -3.375 -1.125 0 0 Z " fill="#DDD8DD" transform="translate(391,416)"/>
<path d="M0 0 C0.99 0.33 1.98 0.66 3 1 C3 1.66 3 2.32 3 3 C3.66 2.34 4.32 1.68 5 1 C5.66 1 6.32 1 7 1 C7.020625 1.763125 7.04125 2.52625 7.0625 3.3125 C7.79660949 6.41389118 7.79660949 6.41389118 11.5625 7.8125 C12.696875 8.204375 13.83125 8.59625 15 9 C15 9.66 15 10.32 15 11 C8.25 10.125 8.25 10.125 6 9 C6.26676204 10.98491642 6.26676204 10.98491642 7 13 C7.99 13.33 8.98 13.66 10 14 C10 14.66 10 15.32 10 16 C11.98 16 13.96 16 16 16 C16 16.33 16 16.66 16 17 C10.43883326 17.22244667 5.49873128 17.16556711 1.125 13.375 C0.75375 12.92125 0.3825 12.4675 0 12 C0.99 11.67 1.98 11.34 3 11 C1.68 9.68 0.36 8.36 -1 7 C-0.34 6.67 0.32 6.34 1 6 C0.67 4.02 0.34 2.04 0 0 Z " fill="#331A39" transform="translate(392,416)"/>
<path d="M0 0 C0.66 0 1.32 0 2 0 C1.95359375 0.9178125 1.9071875 1.835625 1.859375 2.78125 C1.52038839 13.06213686 1.52038839 13.06213686 6 22 C8.76969262 24.63120799 11.51574622 26.45144277 15 28 C15 28.66 15 29.32 15 30 C13.01432292 29.70703125 11.02864583 29.4140625 9.04296875 29.12109375 C6.7974658 28.86095201 6.7974658 28.86095201 4 30 C3.9175 28.96875 3.835 27.9375 3.75 26.875 C2.93822027 22.68080471 1.60767737 20.34108663 -1 17 C-1.33 17 -1.66 17 -2 17 C-1.67 13.7 -1.34 10.4 -1 7 C-1.66 6.67 -2.32 6.34 -3 6 C-2.34 6 -1.68 6 -1 6 C-0.67 4.02 -0.34 2.04 0 0 Z " fill="#3B143C" transform="translate(261,354)"/>
<path d="M0 0 C0.57492187 0.30550781 1.14984375 0.61101562 1.7421875 0.92578125 C4.65748686 2.31281814 6.91062948 2.23093744 10.125 2.1875 C11.70667969 2.17783203 11.70667969 2.17783203 13.3203125 2.16796875 C15.97169979 2.17680958 15.97169979 2.17680958 18 1 C18 1.99 18 2.98 18 4 C12.72 4 7.44 4 2 4 C2 8.95 2 13.9 2 19 C1.67 19 1.34 19 1 19 C0.67 15.37 0.34 11.74 0 8 C-1.65 7.67 -3.3 7.34 -5 7 C-5.66 6.34 -6.32 5.68 -7 5 C-9.43252661 4.53837573 -9.43252661 4.53837573 -12.125 4.375 C-13.03507812 4.30023438 -13.94515625 4.22546875 -14.8828125 4.1484375 C-15.58148438 4.09945313 -16.28015625 4.05046875 -17 4 C-17 3.67 -17 3.34 -17 3 C-16.08476562 3.02320313 -15.16953125 3.04640625 -14.2265625 3.0703125 C-12.44378906 3.09738281 -12.44378906 3.09738281 -10.625 3.125 C-8.84996094 3.15980469 -8.84996094 3.15980469 -7.0390625 3.1953125 C-3.88846183 3.32866229 -3.88846183 3.32866229 -2 1 C-1.34 0.67 -0.68 0.34 0 0 Z " fill="#3A153F" transform="translate(354,409)"/>
<path d="M0 0 C0.66 0.33 1.32 0.66 2 1 C5.09367203 10.28101609 2.98600589 20.3387653 -1 29 C-3.16513456 32.79246267 -5.4942975 36.424447 -8 40 C-9.33332095 37.3333581 -8.67102033 35.83319697 -8 33 C-7.34 33 -6.68 33 -6 33 C-6 31.35 -6 29.7 -6 28 C-5.34 28 -4.68 28 -4 28 C-4 27.34 -4 26.68 -4 26 C-3.34 26 -2.68 26 -2 26 C0.61695347 16.96633577 1.2666247 9.32418909 0 0 Z " fill="#B41F38" transform="translate(376,263)"/>
<path d="M0 0 C1.588125 -0.061875 3.17625 -0.12375 4.8125 -0.1875 C6.15248047 -0.23970703 6.15248047 -0.23970703 7.51953125 -0.29296875 C10.41647515 0.04918998 11.22555028 0.75393573 13 3 C11.875 5.5 11.875 5.5 10 8 C6.8125 8.3125 6.8125 8.3125 4 8 C3.67 5.69 3.34 3.38 3 1 C2.34 1 1.68 1 1 1 C1 5.95 1 10.9 1 16 C2.32 16.33 3.64 16.66 5 17 C3.35 17 1.7 17 0 17 C0 11.39 0 5.78 0 0 Z " fill="#CDC8CE" transform="translate(337,414)"/>
<path d="M0 0 C5.04098202 4.14480744 9.66660699 8.59424477 14.17895508 13.30395508 C16.45489633 15.6383892 17.85450866 16.95150289 21 18 C20.67 19.65 20.34 21.3 20 23 C19.34 23 18.68 23 18 23 C17.34 22.01 16.68 21.02 16 20 C15.34 19.67 14.68 19.34 14 19 C13.375 16.4375 13.375 16.4375 13 14 C11.02 14 9.04 14 7 14 C6.443125 12.4221875 6.443125 12.4221875 5.875 10.8125 C4.11188953 6.62191859 1.62659715 4.65950458 -2 2 C-1.34 1.34 -0.68 0.68 0 0 Z " fill="#37204E" transform="translate(258,290)"/>
<path d="M0 0 C0 3 0 3 -1.28404236 4.63134766 C-1.8850325 5.21964355 -2.48602264 5.80793945 -3.10522461 6.4140625 C-3.78270248 7.0848584 -4.46018036 7.7556543 -5.15818787 8.44677734 C-5.89875931 9.16559082 -6.63933075 9.8844043 -7.40234375 10.625 C-8.1546376 11.36830566 -8.90693146 12.11161133 -9.68202209 12.87744141 C-12.09353159 15.25884277 -14.51464087 17.63015066 -16.9375 20 C-19.35592687 22.3706774 -21.7720906 24.74349177 -24.18226624 27.12255859 C-25.68409994 28.60456409 -27.19084954 30.08160716 -28.7028656 31.55322266 C-29.38349564 32.22401855 -30.06412567 32.89481445 -30.76538086 33.5859375 C-31.3671666 34.1742334 -31.96895233 34.7625293 -32.588974 35.36865234 C-34.23110712 37.05758412 -34.23110712 37.05758412 -35 40 C-35.66 40 -36.32 40 -37 40 C-35.56390551 35.25625561 -32.76309784 32.37112421 -29.29296875 29 C-28.73055984 28.44183594 -28.16815094 27.88367188 -27.58869934 27.30859375 C-25.7952482 25.53186466 -23.99166096 23.76584634 -22.1875 22 C-20.98563737 20.81319912 -19.78445817 19.6257057 -18.58398438 18.4375 C-16.36773433 16.24567128 -14.14754971 14.05800339 -11.92260742 11.875 C-9.26551089 9.26609353 -6.62929224 6.6369512 -4 4 C-2.66666667 2.66666667 -1.33333333 1.33333333 0 0 Z " fill="#40C2B5" transform="translate(248,186)"/>
<path d="M0 0 C0.33 0 0.66 0 1 0 C1.33 3.96 1.66 7.92 2 12 C5.465 11.505 5.465 11.505 9 11 C9.66 9.02 10.32 7.04 11 5 C12.32 5 13.64 5 15 5 C15.30375856 8.34134421 15.32796316 10.40654286 13.6875 13.375 C9.29090442 16.03340663 5.0628521 15.2410882 0 15 C0 10.05 0 5.1 0 0 Z " fill="#EEEBEF" transform="translate(214,415)"/>
<path d="M0 0 C3.76791415 1.93778442 6.13202098 4.13937662 8.75 7.4609375 C10.13782602 9.22373375 10.13782602 9.22373375 12.5 11.5 C20 19 20 19 20 22 C18.68 22 17.36 22 16 22 C15 19 15 19 15 17 C12.66057656 15.2463436 12.66057656 15.2463436 10 14 C9.01 14.495 9.01 14.495 8 15 C7.855625 14.21625 7.71125 13.4325 7.5625 12.625 C7.12201075 10.03578982 7.12201075 10.03578982 6 8 C3.0262656 6.90963072 2.11592499 6.96135834 -1 8 C-0.67 5.36 -0.34 2.72 0 0 Z " fill="#E18536" transform="translate(386,271)"/>
<path d="M0 0 C4.29 0 8.58 0 13 0 C13 0.33 13 0.66 13 1 C10.36 1 7.72 1 5 1 C4.67 1.99 4.34 2.98 4 4 C4 3.01 4 2.02 4 1 C2.68 0.67 1.36 0.34 0 0 Z M4 4 C3.979375 4.928125 3.95875 5.85625 3.9375 6.8125 C3.84230396 10.02286011 3.84230396 10.02286011 5 13 C2 15 2 15 -0.1875 14.625 C-0.785625 14.41875 -1.38375 14.2125 -2 14 C-1.814375 13.38125 -1.62875 12.7625 -1.4375 12.125 C-0.76313824 9.95839822 -0.76313824 9.95839822 -2 8 C-1.67 7.34 -1.34 6.68 -1 6 C-1.99 5.67 -2.98 5.34 -4 5 C0.625 2.875 0.625 2.875 4 4 Z " fill="#312145" transform="translate(358,432)"/>
<path d="M0 0 C0 3 0 3 -2 6 C-2.38499891 7.65549531 -2.72793135 9.3222433 -3 11 C-4.65 11 -6.3 11 -8 11 C-8.33 12.65 -8.66 14.3 -9 16 C-9.66 16 -10.32 16 -11 16 C-11.33 16.66 -11.66 17.32 -12 18 C-14.65756064 19.74839516 -16.97382445 20.99127482 -20 22 C-18.51346494 18.53370165 -16.54277649 16.30977964 -13.8671875 13.671875 C-12.65869141 12.47304687 -12.65869141 12.47304687 -11.42578125 11.25 C-10.58402344 10.425 -9.74226562 9.6 -8.875 8.75 C-8.02550781 7.90953125 -7.17601562 7.0690625 -6.30078125 6.203125 C-4.20495077 4.13084317 -2.10459287 2.06337607 0 0 Z " fill="#17DBB8" transform="translate(233,203)"/>
<path d="M0 0 C4.20412023 3.28126457 7.61825939 6.76713875 11.078125 10.81640625 C16.25518064 16.69846743 21.86754321 22.12548307 28 27 C27.67 27.66 27.34 28.32 27 29 C25.35 29 23.7 29 22 29 C21.773125 28.113125 21.54625 27.22625 21.3125 26.3125 C19.79544616 22.48374508 18.03220182 20.75013653 15 18 C14.21625 17.195625 13.4325 16.39125 12.625 15.5625 C10.59226411 13.57816258 8.56320177 11.79745146 6.375 10 C3.55232754 7.61395007 1.60038057 5.38904121 0 2 C0 1.34 0 0.68 0 0 Z " fill="#AE2B4F" transform="translate(350,234)"/>
<path d="M0 0 C1.32 0.33 2.64 0.66 4 1 C1.31248506 3.83304016 -1.40322773 6.63738724 -4.125 9.4375 C-4.88554687 10.23994141 -5.64609375 11.04238281 -6.4296875 11.86914062 C-7.55117188 13.01479492 -7.55117188 13.01479492 -8.6953125 14.18359375 C-9.37609863 14.89056396 -10.05688477 15.59753418 -10.75830078 16.32592773 C-13.49002456 18.36594406 -15.64387058 18.67866846 -19 19 C-17.57559353 15.43898382 -16.3386476 14.6693238 -13 13 C-12.34 12.13375 -11.68 11.2675 -11 10.375 C-10.34 9.59125 -9.68 8.8075 -9 8 C-7.68 8 -6.36 8 -5 8 C-5 7.01 -5 6.02 -5 5 C-4.34 5 -3.68 5 -3 5 C-3 4.34 -3 3.68 -3 3 C-2.01 3 -1.02 3 0 3 C0 2.01 0 1.02 0 0 Z " fill="#C04D47" transform="translate(361,361)"/>
<path d="M0 0 C0.33 0.99 0.66 1.98 1 3 C0.3709375 3.60585938 -0.258125 4.21171875 -0.90625 4.8359375 C-7.33478607 11.12893214 -13.00862631 17.72178999 -18.4296875 24.890625 C-20.97180468 28.14327182 -22.99949626 29.85699893 -27 31 C-26.06409496 29.8944811 -25.12620142 28.79064547 -24.1875 27.6875 C-23.40439453 26.76517578 -23.40439453 26.76517578 -22.60546875 25.82421875 C-21 24 -21 24 -19.48828125 22.58203125 C-17.87952587 20.99904727 -17.87952587 20.99904727 -16.72265625 18.7265625 C-14.42466248 15.08937508 -11.52328611 12.34876087 -8.4375 9.375 C-7.26727158 8.23930291 -6.09921468 7.10136298 -4.93359375 5.9609375 C-4.41853271 5.46384277 -3.90347168 4.96674805 -3.37280273 4.45458984 C-1.77245546 2.84033765 -1.77245546 2.84033765 0 0 Z " fill="#C5584E" transform="translate(365,305)"/>
<path d="M0 0 C2.31 0.33 4.62 0.66 7 1 C6.34 1.66 5.68 2.32 5 3 C5 3.99 5 4.98 5 6 C4.17647059 12.82352941 4.17647059 12.82352941 3 14 C1.33382885 14.04063832 -0.33388095 14.042721 -2 14 C-2.05422947 12.5629191 -2.09289723 11.12524538 -2.125 9.6875 C-2.14820313 8.88699219 -2.17140625 8.08648437 -2.1953125 7.26171875 C-2 5 -2 5 0 2 C0 1.34 0 0.68 0 0 Z " fill="#311A42" transform="translate(259,431)"/>
<path d="M0 0 C-1.299375 0.804375 -1.299375 0.804375 -2.625 1.625 C-5.13154939 3.27233033 -7.12839331 5.07219794 -9.1875 7.25 C-12 10 -12 10 -15 10 C-15.2475 10.5775 -15.495 11.155 -15.75 11.75 C-17.18299988 14.32939979 -18.78424676 16.06121592 -21 18 C-21.66 18 -22.32 18 -23 18 C-23.226875 18.556875 -23.45375 19.11375 -23.6875 19.6875 C-25.35896766 22.63246684 -27.55276352 24.68156544 -30 27 C-30.66 26.67 -31.32 26.34 -32 26 C-27.60358476 20.87828783 -23.26890339 16.21512271 -18 12 C-15.43758927 9.55960883 -13.1644901 7.22285755 -11.0625 4.375 C-7.86196608 0.6895367 -4.81449237 -1.60483079 0 0 Z " fill="#3492A9" transform="translate(281,159)"/>
<path d="M0 0 C1 2 1 2 1 3 C1.49113281 3.71542969 1.98226562 4.43085938 2.48828125 5.16796875 C4.26891237 8.50377641 4.31109918 10.56332474 4.1875 14.3125 C4.16042969 15.38113281 4.13335937 16.44976562 4.10546875 17.55078125 C4.07066406 18.35902344 4.03585938 19.16726563 4 20 C3.67 19.01 3.34 18.02 3 17 C0.98491642 16.26676204 0.98491642 16.26676204 -1 16 C-0.9175 14.741875 -0.835 13.48375 -0.75 12.1875 C-0.68311857 10.01202652 -0.68311857 10.01202652 -1 8 C-2.84188612 5.94729537 -2.84188612 5.94729537 -5 5 C-4.1875 3.0625 -4.1875 3.0625 -3 1 C-2.01 0.67 -1.02 0.34 0 0 Z " fill="#3A1C44" transform="translate(230,409)"/>
<path d="M0 0 C2.31 0.33 4.62 0.66 7 1 C8.125 6.75 8.125 6.75 7 9 C3.5 9.6875 3.5 9.6875 0 10 C-1 9 -1 9 -1.0625 5.9375 C-1.041875 4.968125 -1.02125 3.99875 -1 3 C-0.34 3 0.32 3 1 3 C0.67 2.01 0.34 1.02 0 0 Z " fill="#36455C" transform="translate(321,437)"/>
<path d="M0 0 C0 1.32 0 2.64 0 4 C0.66 4 1.32 4 2 4 C2 4.66 2 5.32 2 6 C-1.4019487 8.09350689 -4.05272412 8.17942163 -8 8 C-9.09658936 4.71023192 -8.79953138 3.28696233 -8 0 C-4.71303767 -0.79953138 -3.28976808 -1.09658936 0 0 Z " fill="#24213F" transform="translate(297,438)"/>
<path d="M0 0 C0.99 0.66 1.98 1.32 3 2 C3.40843923 4.71203652 3.13336867 7.2437142 3 10 C2.34 10 1.68 10 1 10 C0.71125 10.721875 0.4225 11.44375 0.125 12.1875 C-0.91666667 14.79166667 -1.95833333 17.39583333 -3 20 C-4.1484375 18.515625 -4.1484375 18.515625 -5 16 C-4.33545663 13.12223827 -3.59384863 10.519537 -2.625 7.75 C-2.3775 7.00492188 -2.13 6.25984375 -1.875 5.4921875 C-1.26326523 3.65698319 -0.63337124 1.82784987 0 0 Z " fill="#34183A" transform="translate(354,197)"/>
<path d="M0 0 C2.31 0 4.62 0 7 0 C6.34 1.65 5.68 3.3 5 5 C4.34 5 3.68 5 3 5 C3.3403125 6.3921875 3.3403125 6.3921875 3.6875 7.8125 C4 11 4 11 2.5625 12.875 C2.046875 13.24625 1.53125 13.6175 1 14 C-1.86274764 11.13725236 -1.9615008 7.89611889 -2 4 C-1.0625 1.5 -1.0625 1.5 0 0 Z " fill="#2F0C39" transform="translate(363,433)"/>
<path d="M0 0 C1.65 0.33 3.3 0.66 5 1 C5 6.61 5 12.22 5 18 C4.67 18 4.34 18 4 18 C3.67 15.03 3.34 12.06 3 9 C2.01 8.67 1.02 8.34 0 8 C-0.99 9.485 -0.99 9.485 -2 11 C-2 10.01 -2 9.02 -2 8 C-4.64 8 -7.28 8 -10 8 C-9.67 7.01 -9.34 6.02 -9 5 C-9 5.66 -9 6.32 -9 7 C-4.545 6.505 -4.545 6.505 0 6 C0 4.02 0 2.04 0 0 Z " fill="#48274D" transform="translate(291,413)"/>
<path d="M0 0 C0.99 0 1.98 0 3 0 C1.85210257 7.09883934 -0.11450374 13.41658619 -3 20 C-4.875 19.6875 -4.875 19.6875 -7 19 C-7.66 18.01 -8.32 17.02 -9 16 C-7.68 16.33 -6.36 16.66 -5 17 C-3.05799728 11.79820701 -1.86322006 7.60797767 -2 2 C-1.34 1.34 -0.68 0.68 0 0 Z " fill="#33BAB1" transform="translate(282,288)"/>
<path d="M0 0 C2.00720923 0.28674418 4.0085944 0.61866701 6 1 C6 3.31 6 5.62 6 8 C4.02 8.33 2.04 8.66 0 9 C-2 6 -2 6 -1.6875 3.375 C-1 1 -1 1 0 0 Z " fill="#321937" transform="translate(320,418)"/>
<path d="M0 0 C0.66 0.33 1.32 0.66 2 1 C1.73445312 1.51949219 1.46890625 2.03898438 1.1953125 2.57421875 C0.1143229 4.70858143 -0.94457708 6.85289918 -2 9 C-2.4125 9.825 -2.825 10.65 -3.25 11.5 C-4.10889804 14.36299347 -4.08867631 16.95708402 -4.00390625 19.9296875 C-3.9980693 23.02327256 -4.49200769 25.95204615 -5 29 C-7.57876724 26.42123276 -7.3565453 25.28284113 -7.4375 21.6875 C-7.33917092 14.29494111 -5.38401958 5.38401958 0 0 Z " fill="#1388B1" transform="translate(250,243)"/>
<path d="M0 0 C2.375 -0.125 2.375 -0.125 5 0 C5.66 0.66 6.32 1.32 7 2 C6.43181818 7.56818182 6.43181818 7.56818182 5 9 C3.33382885 9.04063832 1.66611905 9.042721 0 9 C0 6.03 0 3.06 0 0 Z " fill="#2C1733" transform="translate(218,418)"/>
<path d="M0 0 C3.1875 0.875 3.1875 0.875 6 2 C6 4.31 6 6.62 6 9 C4.68 8.34 3.36 7.68 2 7 C1.67 7.66 1.34 8.32 1 9 C0.34 9 -0.32 9 -1 9 C-2.4606285 6.35261084 -3 5.10551666 -3 2 C-2.01 1.34 -1.02 0.68 0 0 Z " fill="#262543" transform="translate(339,436)"/>
<path d="M0 0 C1.98 0.495 1.98 0.495 4 1 C4 6.61 4 12.22 4 18 C3.67 18 3.34 18 3 18 C3 14.7 3 11.4 3 8 C2.01 8.495 2.01 8.495 1 9 C1.309375 10.1446875 1.309375 10.1446875 1.625 11.3125 C2 14 2 14 0 17 C-1.23104155 13.31599416 -0.90767252 10.08525024 -0.5625 6.25 C-0.46066406 5.07953125 -0.35882813 3.9090625 -0.25390625 2.703125 C-0.17011719 1.81109375 -0.08632813 0.9190625 0 0 Z " fill="#39163F" transform="translate(372,413)"/>
<path d="M0 0 C1.051875 0.433125 1.051875 0.433125 2.125 0.875 C5.02553186 2.07064337 5.02553186 2.07064337 8.25 2.875 C9.1575 3.24625 10.065 3.6175 11 4 C11.34795705 5.32959196 11.67916832 6.66360338 12 8 C13.3867198 9.95826419 13.3867198 9.95826419 15.0625 11.75 C15.61035156 12.36359375 16.15820312 12.9771875 16.72265625 13.609375 C17.35494141 14.29773438 17.35494141 14.29773438 18 15 C17.01 15.495 17.01 15.495 16 16 C6.4655115 7.7904032 6.4655115 7.7904032 3 4 C3 3.34 3 2.68 3 2 C2.01 1.67 1.02 1.34 0 1 C0 0.67 0 0.34 0 0 Z " fill="#C55742" transform="translate(331,270)"/>
<path d="M0 0 C0.66 0 1.32 0 2 0 C4.55016623 5.62476181 4.94292629 10.91026771 4 17 C2.38181175 20.08114333 0.44072187 22.53022192 -2 25 C-3 22 -3 22 -2.22265625 20.30859375 C-1.83980469 19.69113281 -1.45695312 19.07367188 -1.0625 18.4375 C2.09536386 12.54645053 1.78496113 6.32717929 0 0 Z " fill="#231242" transform="translate(305,165)"/>
<path d="M0 0 C4.28806873 0.47645208 6.26647487 1.65902484 9 5 C9 5.66 9 6.32 9 7 C10.98 6.67 12.96 6.34 15 6 C15 7.98 15 9.96 15 12 C14.01 12.33 13.02 12.66 12 13 C11.63648438 12.55269531 11.27296875 12.10539062 10.8984375 11.64453125 C7.54077359 7.60672516 4.07637965 4.29992639 0 1 C0 0.67 0 0.34 0 0 Z " fill="#4A0D3A" transform="translate(368,252)"/>
<path d="M0 0 C0 1.98 0 3.96 0 6 C-0.639375 6.12375 -1.27875 6.2475 -1.9375 6.375 C-2.618125 6.58125 -3.29875 6.7875 -4 7 C-4.33 7.66 -4.66 8.32 -5 9 C-5.99 9.33 -6.98 9.66 -8 10 C-8.33 10.99 -8.66 11.98 -9 13 C-9.33 13.99 -9.66 14.98 -10 16 C-10.99 16.33 -11.98 16.66 -13 17 C-13.66943359 15.20214844 -13.66943359 15.20214844 -14 13 C-12.93603516 11.35253906 -12.93603516 11.35253906 -11.2890625 9.765625 C-10.70382812 9.19199219 -10.11859375 8.61835938 -9.515625 8.02734375 C-8.89171875 7.44082031 -8.2678125 6.85429687 -7.625 6.25 C-7.00882812 5.64800781 -6.39265625 5.04601562 -5.7578125 4.42578125 C-1.18149447 0 -1.18149447 0 0 0 Z M-2 3 C-1 5 -1 5 -1 5 Z " fill="#3C0D42" transform="translate(279,213)"/>
<path d="M0 0 C0.66 0.66 1.32 1.32 2 2 C-3.41935484 16.70967742 -3.41935484 16.70967742 -6 18 C-7.31600093 14.05199722 -6.07613159 11.60059694 -4.6875 7.875 C-4.46126953 7.22917969 -4.23503906 6.58335937 -4.00195312 5.91796875 C-2.26051009 1.13025504 -2.26051009 1.13025504 0 0 Z " fill="#461D45" transform="translate(304,359)"/>
<path d="M0 0 C2.88080957 1.17366316 4.34257199 2.35092741 6.5625 4.625 C8.7909084 7.34893236 8.7909084 7.34893236 12 7 C12.3403125 8.0828125 12.3403125 8.0828125 12.6875 9.1875 C14.26766076 12.57355877 16.27191325 14.46677659 19 17 C20.33333333 18.33333333 21.66666667 19.66666667 23 21 C22.67 21.66 22.34 22.32 22 23 C18.8636964 19.88834095 15.73063335 16.77346679 12.60058594 13.65551758 C11.53442344 12.59439642 10.46736689 11.5341728 9.39941406 10.47485352 C7.86810398 8.95561777 6.3399957 7.43322584 4.8125 5.91015625 C3.89082031 4.99371338 2.96914062 4.07727051 2.01953125 3.13305664 C0 1 0 1 0 0 Z " fill="#409DB1" transform="translate(232,263)"/>
<path d="M0 0 C0.66 0.33 1.32 0.66 2 1 C1.34 7.6 0.68 14.2 0 21 C-3.76687864 19.11656068 -4.79421646 18.30867531 -7 15 C-5.35 14.67 -3.7 14.34 -2 14 C-1.855625 12.989375 -1.71125 11.97875 -1.5625 10.9375 C-0.78125 5.46875 -0.78125 5.46875 0 0 Z " fill="#21C0C0" transform="translate(243,250)"/>
<path d="M0 0 C2.32590854 3.63423209 2.16265833 6.77088331 2 11 C-2.29 11 -6.58 11 -11 11 C-11 10.67 -11 10.34 -11 10 C-7.04 10 -3.08 10 1 10 C1 8.68 1 7.36 1 6 C-1.97 6 -4.94 6 -8 6 C-8 5.01 -8 4.02 -8 3 C-5.36 3 -2.72 3 0 3 C0 2.01 0 1.02 0 0 Z " fill="#1F0F25" transform="translate(248,421)"/>
<path d="M0 0 C0 1.65 0 3.3 0 5 C1.32 5.33 2.64 5.66 4 6 C2.68 6.33 1.36 6.66 0 7 C0 8.65 0 10.3 0 12 C-1.32 12 -2.64 12 -4 12 C-4.08131463 10.56344146 -4.13933559 9.1255517 -4.1875 7.6875 C-4.22230469 6.88699219 -4.25710938 6.08648437 -4.29296875 5.26171875 C-3.98428663 2.87869278 -2.85980321 0 0 0 Z " fill="#F6F5F6" transform="translate(382,418)"/>
<path d="M0 0 C1.65 0 3.3 0 5 0 C5 4.95 5 9.9 5 15 C2.50611426 10.01222852 3.11163875 8.33016752 4 3 C1.49962266 5.17424117 0.56371414 6.73045798 0 10 C-0.66 10 -1.32 10 -2 10 C-2.6875 8.375 -2.6875 8.375 -3 6 C-1.5625 2.75 -1.5625 2.75 0 0 Z " fill="#3A1E40" transform="translate(271,415)"/>
<path d="M0 0 C0.66 0.99 1.32 1.98 2 3 C1.5359375 4.60875 1.5359375 4.60875 1.0625 6.25 C-0.2803305 10.98940176 -0.20584473 14.50531718 1.96484375 18.99609375 C2.92498354 20.69427694 3.95701081 22.35140419 5 24 C4.01 24 3.02 24 2 24 C-2.07294188 17.38146944 -2.9509113 11.73997571 -2 4 C-0.9765625 1.640625 -0.9765625 1.640625 0 0 Z " fill="#AA2552" transform="translate(318,353)"/>
<path d="M0 0 C2.8125 0.1875 2.8125 0.1875 6 1 C7.85233285 3.40803271 9 4.92741925 9 8 C10.65 8.33 12.3 8.66 14 9 C14.66 11.31 15.32 13.62 16 16 C10.35573231 11.31645873 4.9941954 6.3792354 0 1 C0 0.67 0 0.34 0 0 Z " fill="#39C4B6" transform="translate(216,247)"/>
<path d="M0 0 C0.66 0.33 1.32 0.66 2 1 C1.53709433 5.65385527 -0.16237643 7.62802688 -3.5 10.8125 C-4.3146875 11.60269531 -5.129375 12.39289063 -5.96875 13.20703125 C-8 15 -8 15 -9 15 C-9 13.02 -9 11.04 -9 9 C-6 8 -6 8 -3 8 C-2.690625 6.865625 -2.38125 5.73125 -2.0625 4.5625 C-1 1 -1 1 0 0 Z " fill="#3090AB" transform="translate(274,209)"/>
<path d="M0 0 C1.65 0 3.3 0 5 0 C5 0.66 5 1.32 5 2 C5.66 2.33 6.32 2.66 7 3 C6.67 4.65 6.34 6.3 6 8 C4.02 8 2.04 8 0 8 C0 5.36 0 2.72 0 0 Z " fill="#3D5E6C" transform="translate(275,438)"/>
<path d="M0 0 C2 2 2 2 2 5 C1.01 5 0.02 5 -1 5 C-1 7.31 -1 9.62 -1 12 C-1.99 12 -2.98 12 -4 12 C-3.67 11.67 -3.34 11.34 -3 11 C-2.95936168 9.33382885 -2.957279 7.66611905 -3 6 C-5.31 5.01 -7.62 4.02 -10 3 C-10 2.34 -10 1.68 -10 1 C-9.36191406 1.01160156 -8.72382813 1.02320313 -8.06640625 1.03515625 C-7.24011719 1.04417969 -6.41382813 1.05320312 -5.5625 1.0625 C-4.32693359 1.07990234 -4.32693359 1.07990234 -3.06640625 1.09765625 C-1.00836062 1.23267348 -1.00836062 1.23267348 0 0 Z " fill="#35213B" transform="translate(413,417)"/>
<path d="M0 0 C3.45281166 1.15093722 4.38082163 2.3205993 6.6875 5.0625 C7.31011719 5.79597656 7.93273437 6.52945312 8.57421875 7.28515625 C9.04472656 7.85105469 9.51523437 8.41695313 10 9 C9.67 9.66 9.34 10.32 9 11 C7.68 10.34 6.36 9.68 5 9 C5 8.01 5 7.02 5 6 C4.34 6 3.68 6 3 6 C2.67 6.66 2.34 7.32 2 8 C2 7.34 2 6.68 2 6 C1.01 6 0.02 6 -1 6 C-1.33 6.99 -1.66 7.98 -2 9 C-1.125 1.125 -1.125 1.125 0 0 Z " fill="#4C103C" transform="translate(331,271)"/>
<path d="M0 0 C-1.53643852 3.68069887 -3.78150945 5.98775204 -6.625 8.75 C-7.85089844 9.94882812 -7.85089844 9.94882812 -9.1015625 11.171875 C-9.72804688 11.77515625 -10.35453125 12.3784375 -11 13 C-11.66 12.01 -12.32 11.02 -13 10 C-11.1875 8 -11.1875 8 -9 6 C-8.01 6 -7.02 6 -6 6 C-6.33 5.01 -6.66 4.02 -7 3 C-6.34 3 -5.68 3 -5 3 C-5 2.34 -5 1.68 -5 1 C-2 0 -2 0 0 0 Z " fill="#D5763C" transform="translate(390,335)"/>
<path d="M0 0 C0 0.99 0 1.98 0 3 C3.3 3.33 6.6 3.66 10 4 C10 4.33 10 4.66 10 5 C5.38 5 0.76 5 -4 5 C-4 10.28 -4 15.56 -4 21 C-4.33 21 -4.66 21 -5 21 C-5.33027082 18.24974483 -5.61498834 15.50702017 -5.875 12.75 C-5.97296875 11.97269531 -6.0709375 11.19539063 -6.171875 10.39453125 C-6.36640355 8.11854724 -6.46710352 6.23891468 -6 4 C-3.0078125 1.453125 -3.0078125 1.453125 0 0 Z " fill="#210727" transform="translate(239,409)"/>
<path d="M0 0 C0.66 0 1.32 0 2 0 C1.814375 1.2375 1.62875 2.475 1.4375 3.75 C1.05288777 6.76279577 0.9125406 9.10010827 2 12 C0.02 12 -1.96 12 -4 12 C-3.12727273 3.12727273 -3.12727273 3.12727273 0 0 Z " fill="#331535" transform="translate(349,218)"/>
<path d="M0 0 C0.99 0 1.98 0 3 0 C3.4375 2.0625 3.4375 2.0625 3 5 C0.95308474 7.66319082 -1.30190215 9.99520352 -4 12 C-4.99 12 -5.98 12 -7 12 C-7 11.34 -7 10.68 -7 10 C-7.66 9.67 -8.32 9.34 -9 9 C-5.535 8.505 -5.535 8.505 -2 8 C-1.34 5.36 -0.68 2.72 0 0 Z " fill="#287DB0" transform="translate(297,185)"/>
<path d="M0 0 C3.63 0.66 7.26 1.32 11 2 C10.67 3.32 10.34 4.64 10 6 C7.03 5.67 4.06 5.34 1 5 C0.67 3.35 0.34 1.7 0 0 Z " fill="#DFDADF" transform="translate(398,425)"/>
<path d="M0 0 C1.54571278 2.31856917 2.79618552 4.50638429 4 7 C1.12835434 9.70272533 -0.30991841 10.94791837 -4.3125 11.25 C-5.199375 11.1675 -6.08625 11.085 -7 11 C-6.3125 9.0625 -6.3125 9.0625 -5 7 C-2.375 6.25 -2.375 6.25 0 6 C0 4.02 0 2.04 0 0 Z " fill="#DDD8DE" transform="translate(326,420)"/>
<path d="M0 0 C0.33 0 0.66 0 1 0 C1 5.61 1 11.22 1 17 C-2 17 -2 17 -4 16 C-4.625 13.4375 -4.625 13.4375 -5 11 C-4.03320312 10.64808594 -4.03320312 10.64808594 -3.046875 10.2890625 C-0.7922092 9.18838927 -0.7922092 9.18838927 -0.390625 6.8359375 C-0.34421875 6.02382813 -0.2978125 5.21171875 -0.25 4.375 C-0.19328125 3.55773437 -0.1365625 2.74046875 -0.078125 1.8984375 C-0.05234375 1.27195312 -0.0265625 0.64546875 0 0 Z " fill="#3A1940" transform="translate(335,414)"/>
<path d="M0 0 C2.07385837 7.31391271 -0.66280012 14.4263459 -4 21 C-4.66 21.33 -5.32 21.66 -6 22 C-4.7205886 14.39086902 -2.57243067 7.26774103 0 0 Z " fill="#C8F5F4" transform="translate(289,276)"/>
<path d="M0 0 C0.99 0 1.98 0 3 0 C3.95718359 4.21160779 4.2400282 6.30395347 2 10 C1.44420919 11.24378429 0.90343096 12.49434738 0.375 13.75 C-0.07875 14.8225 -0.5325 15.895 -1 17 C-2.60763303 12.98091743 -1.16485435 10.00418684 0 6 C-0.33 5.01 -0.66 4.02 -1 3 C-0.67 2.01 -0.34 1.02 0 0 Z " fill="#421B44" transform="translate(300,226)"/>
<path d="M0 0 C1.98 0 3.96 0 6 0 C6.8971875 1.60875 6.8971875 1.60875 7.8125 3.25 C9.37401069 5.98958993 11.02605503 8.53256878 13 11 C12.01 11 11.02 11 10 11 C8.7481671 9.58345224 7.5038764 8.15750598 6.33984375 6.66796875 C4.40017884 4.25328386 2.22013029 2.15669799 0 0 Z " fill="#4B152D" transform="translate(385,269)"/>
<path d="M0 0 C0.33 0 0.66 0 1 0 C1.16682272 4.92127034 1.24828052 8.50343896 -1 13 C-1.66 13 -2.32 13 -3 13 C-3 13.66 -3 14.32 -3 15 C-3.66 15 -4.32 15 -5 15 C-4.43174347 9.45949887 -2.37113483 4.96284034 0 0 Z " fill="#441942" transform="translate(295,250)"/>
<path d="M0 0 C4.66666667 4.66666667 9.33333333 9.33333333 14 14 C12.68 14.33 11.36 14.66 10 15 C9.67 13.68 9.34 12.36 9 11 C8.34 11 7.68 11 7 11 C7 10.34 7 9.68 7 9 C6.34 9 5.68 9 5 9 C4.34 8.34 3.68 7.68 3 7 C2.46375 6.54625 1.9275 6.0925 1.375 5.625 C0 4 0 4 0 0 Z " fill="#3274A8" transform="translate(256,232)"/>
<path d="M0 0 C0 3 0 3 -1.46875 4.80932617 C-2.1390625 5.46392822 -2.809375 6.11853027 -3.5 6.79296875 C-4.221875 7.50517578 -4.94375 8.21738281 -5.6875 8.95117188 C-6.450625 9.68916016 -7.21375 10.42714844 -8 11.1875 C-9.1446875 12.31188477 -9.1446875 12.31188477 -10.3125 13.45898438 C-12.20180839 15.31286823 -14.09775206 17.15941069 -16 19 C-16.66 18.67 -17.32 18.34 -18 18 C-12 12 -6 6 0 0 Z " fill="#3EB1AF" transform="translate(248,186)"/>
<path d="M0 0 C0 3.71662678 -1.45596633 5.00831285 -3.62109375 7.8828125 C-6.06158664 11.62997155 -7.49083094 15.80973731 -9 20 C-9.66 19.67 -10.32 19.34 -11 19 C-9.16648596 12.03264666 -5.35000149 4.90283719 0 0 Z " fill="#22B1C0" transform="translate(255,232)"/>
<path d="M0 0 C0.33 0 0.66 0 1 0 C1.33 3.96 1.66 7.92 2 12 C4.97 12.33 7.94 12.66 11 13 C11 13.66 11 14.32 11 15 C7.37 15 3.74 15 0 15 C0 10.05 0 5.1 0 0 Z " fill="#F9F4F9" transform="translate(214,415)"/>
<path d="M0 0 C0.33 0.66 0.66 1.32 1 2 C1.99 2.33 2.98 2.66 4 3 C2.68 3.99 1.36 4.98 0 6 C-0.66 5.34 -1.32 4.68 -2 4 C-5.693507 3.79853598 -8.47940432 3.82646811 -12 5 C-12 4.34 -12 3.68 -12 3 C-8.17482487 0.60926555 -4.40334476 0.44033448 0 0 Z " fill="#3B1940" transform="translate(327,410)"/>
<path d="M0 0 C5.57142857 5.14285714 5.57142857 5.14285714 6 9 C2.63458162 10.08174162 1.70152678 9.92538169 -2 9 C-1.34 6.03 -0.68 3.06 0 0 Z " fill="#BE524A" transform="translate(344,227)"/>
<path d="M0 0 C1.65 0 3.3 0 5 0 C5.33 1.32 5.66 2.64 6 4 C7.32 3.34 8.64 2.68 10 2 C11 5 11 5 9.5625 8.1875 C8.7890625 9.5796875 8.7890625 9.5796875 8 11 C5.81024227 7.71536341 5.00193437 4.79303725 4 1 C2.68 0.67 1.36 0.34 0 0 Z " fill="#29152E" transform="translate(255,413)"/>
<path d="M0 0 C0.99 0.33 1.98 0.66 3 1 C2.835 1.495 2.67 1.99 2.5 2.5 C1.86647256 5.20851102 1.86647256 5.20851102 2.0625 8.875 C2.11232055 13.33393954 1.59681122 17.30809332 -1.57421875 20.66796875 C-2.04472656 21.10753906 -2.51523437 21.54710937 -3 22 C-2.690625 20.783125 -2.38125 19.56625 -2.0625 18.3125 C-0.70131794 12.26923779 -0.36241197 6.17054072 0 0 Z " fill="#EB7733" transform="translate(380,268)"/>
<path d="M0 0 C1.98 0.495 1.98 0.495 4 1 C3.67 1.33 3.34 1.66 3 2 C3.99 2.99 4.98 3.98 6 5 C4.75 6.5625 4.75 6.5625 3 8 C0.8125 7.6875 0.8125 7.6875 -1 7 C-0.7525 6.1028125 -0.7525 6.1028125 -0.5 5.1875 C0.1114124 2.88655664 0.1114124 2.88655664 0 0 Z " fill="#426775" transform="translate(357,439)"/>
<path d="M0 0 C0.99 0 1.98 0 3 0 C1.125 7.625 1.125 7.625 0 11 C-0.66 11 -1.32 11 -2 11 C-2 11.99 -2 12.98 -2 14 C-2.66 14 -3.32 14 -4 14 C-3.52188823 12.22888156 -3.0424722 10.45811517 -2.5625 8.6875 C-2.29566406 7.70136719 -2.02882813 6.71523438 -1.75390625 5.69921875 C-1.21920575 3.78482474 -0.62855462 1.88566385 0 0 Z " fill="#53294F" transform="translate(309,338)"/>
<path d="M0 0 C0 4.35637821 -2.27897057 6.05610053 -5.109375 9.19140625 C-7.24427494 11.23367623 -9.12212703 12.30233382 -12 13 C-8.19524578 8.43969176 -4.25030379 4.14910608 0 0 Z " fill="#CB433E" transform="translate(350,323)"/>
<path d="M0 0 C1.65 0 3.3 0 5 0 C5.38218767 1.65614657 5.71395102 3.32457024 6 5 C5 6 5 6 2.4375 6.0625 C1.2309375 6.0315625 1.2309375 6.0315625 0 6 C0 4.02 0 2.04 0 0 Z " fill="#4F7B83" transform="translate(257,439)"/>
<path d="M0 0 C0.66 0 1.32 0 2 0 C2.10251672 5.12583611 2.03590199 9.94997778 1 15 C0.34 15 -0.32 15 -1 15 C-1.91457003 9.43842552 -2.32086397 5.324335 0 0 Z " fill="#4C1345" transform="translate(317,314)"/>
<path d="M0 0 C2.22808159 -0.10853983 4.45769932 -0.18583307 6.6875 -0.25 C7.92886719 -0.29640625 9.17023438 -0.3428125 10.44921875 -0.390625 C14.53455169 0.05880657 16.09488246 1.17820323 19 4 C18.67 4.99 18.34 5.98 18 7 C17.31550781 6.36578125 16.63101562 5.7315625 15.92578125 5.078125 C12.5476175 2.67868159 10.26973559 2.24481644 6.1875 1.75 C4.44533203 1.52570313 4.44533203 1.52570313 2.66796875 1.296875 C1.78753906 1.19890625 0.90710938 1.1009375 0 1 C0 0.67 0 0.34 0 0 Z " fill="#1B1846" transform="translate(283,154)"/>
<path d="M0 0 C2.97 0.495 2.97 0.495 6 1 C6 2.65 6 4.3 6 6 C3.03 5.67 0.06 5.34 -3 5 C-2.01 3.35 -1.02 1.7 0 0 Z " fill="#360B3B" transform="translate(276,432)"/>
<path d="M0 0 C2.26171875 -0.2421875 2.26171875 -0.2421875 5 0 C7.01953125 1.6796875 7.01953125 1.6796875 8.8125 3.875 C9.41707031 4.59429687 10.02164062 5.31359375 10.64453125 6.0546875 C12 8 12 8 12 10 C10.68 10 9.36 10 8 10 C7 7 7 7 7 5 C4.66057656 3.2463436 4.66057656 3.2463436 2 2 C1.01 2.495 1.01 2.495 0 3 C0 2.01 0 1.02 0 0 Z " fill="#EC8F2F" transform="translate(394,283)"/>
<path d="M0 0 C0 3.66666667 0 7.33333333 0 11 C-0.99 11 -1.98 11 -3 11 C-3.66 10.34 -4.32 9.68 -5 9 C-4.82194873 5.61702587 -4.21162756 4.23727939 -1.9375 1.6875 C-1.298125 1.130625 -0.65875 0.57375 0 0 Z " fill="#380F46" transform="translate(264,227)"/>
<path d="M0 0 C0.33 0.66 0.66 1.32 1 2 C3.32156597 2.40729228 5.6568787 2.74438677 8 3 C8 3.33 8 3.66 8 4 C3.545 4.495 3.545 4.495 -1 5 C-1.33 5.99 -1.66 6.98 -2 8 C-2.268125 7.38125 -2.53625 6.7625 -2.8125 6.125 C-3.95556848 3.7004767 -3.95556848 3.7004767 -7 2 C-4.69 1.34 -2.38 0.68 0 0 Z " fill="#370F3D" transform="translate(265,409)"/>
<path d="M0 0 C2.5 1.0625 2.5 1.0625 5 3 C5.3125 6.6875 5.3125 6.6875 5 10 C4.67 9.34 4.34 8.68 4 8 C3.34 8 2.68 8 2 8 C1.67 8.99 1.34 9.98 1 11 C0.67 7.37 0.34 3.74 0 0 Z " fill="#2F0E34" transform="translate(330,415)"/>
<path d="M0 0 C0.33 1.32 0.66 2.64 1 4 C1.99 4 2.98 4 4 4 C3.67 4.66 3.34 5.32 3 6 C2.01 6 1.02 6 0 6 C0 5.34 0 4.68 0 4 C-3.96 4 -7.92 4 -12 4 C-8.08522124 2.04261062 -5.27370825 1.56445203 -1 1 C-0.67 0.67 -0.34 0.34 0 0 Z " fill="#38183D" transform="translate(388,409)"/>
<path d="M0 0 C1.65 1.65 3.3 3.3 5 5 C4.01 5.495 4.01 5.495 3 6 C3.02320313 6.90363281 3.04640625 7.80726563 3.0703125 8.73828125 C3.08835937 9.91777344 3.10640625 11.09726562 3.125 12.3125 C3.14820313 13.48425781 3.17140625 14.65601563 3.1953125 15.86328125 C3 19 3 19 1 22 C1.01160156 20.83082031 1.02320313 19.66164063 1.03515625 18.45703125 C1.04453913 16.90885577 1.0536388 15.36067855 1.0625 13.8125 C1.07087891 13.04357422 1.07925781 12.27464844 1.08789062 11.48242188 C1.10491934 7.51473211 0.98604115 3.87428766 0 0 Z " fill="#E2664B" transform="translate(377,262)"/>
<path d="M0 0 C0 0.66 0 1.32 0 2 C-0.66 2 -1.32 2 -2 2 C-2 2.66 -2 3.32 -2 4 C-1.34 4.33 -0.68 4.66 0 5 C-0.33 6.32 -0.66 7.64 -1 9 C-2.32 8.67 -3.64 8.34 -5 8 C-5.75 6.25 -5.75 6.25 -6 4 C-2.77777778 0 -2.77777778 0 0 0 Z " fill="#19CEB8" transform="translate(240,198)"/>
<path d="M0 0 C1.485 0.99 1.485 0.99 3 2 C3.36328125 3.875 3.36328125 3.875 3.3125 6 C3.30863281 6.70125 3.30476563 7.4025 3.30078125 8.125 C3 10 3 10 1 12 C0 11 0 11 -0.09765625 8.49609375 C-0.08605469 7.48675781 -0.07445312 6.47742188 -0.0625 5.4375 C-0.05347656 4.42558594 -0.04445313 3.41367187 -0.03515625 2.37109375 C-0.02355469 1.58863281 -0.01195312 0.80617188 0 0 Z " fill="#3E4B66" transform="translate(307,436)"/>
<path d="M0 0 C1.32 0.66 2.64 1.32 4 2 C3.67 2.99 3.34 3.98 3 5 C-3.0546875 5.9765625 -3.0546875 5.9765625 -5 6 C-5.66 5.34 -6.32 4.68 -7 4 C-6.030625 3.525625 -5.06125 3.05125 -4.0625 2.5625 C-1.19522563 1.29806053 -1.19522563 1.29806053 0 0 Z " fill="#441D44" transform="translate(293,378)"/>
<path d="M0 0 C1.32 0.33 2.64 0.66 4 1 C4 1.66 4 2.32 4 3 C4.8353125 3.3403125 4.8353125 3.3403125 5.6875 3.6875 C8.66159588 5.37550036 10.72008865 7.46676517 13 10 C13 10.66 13 11.32 13 12 C12.34 12 11.68 12 11 12 C9.79973402 10.56634896 8.60392477 9.12848881 7.44140625 7.6640625 C5.97036737 5.96578997 4.43269645 4.59850989 2.6875 3.1875 C1.800625 2.465625 0.91375 1.74375 0 1 C0 0.67 0 0.34 0 0 Z " fill="#AC3251" transform="translate(353,292)"/>
<path d="M0 0 C0.99 0.33 1.98 0.66 3 1 C1.68 5.62 0.36 10.24 -1 15 C-1.33 15 -1.66 15 -2 15 C-2.19392201 9.47322267 -1.7479503 5.24385089 0 0 Z " fill="#2EAAAE" transform="translate(289,267)"/>
<path d="M0 0 C0.33 0.66 0.66 1.32 1 2 C1.886875 1.9175 2.77375 1.835 3.6875 1.75 C7.69008159 2.05208163 9.12835434 3.29727467 12 6 C11.34 6 10.68 6 10 6 C9.67 6.66 9.34 7.32 9 8 C9 7.34 9 6.68 9 6 C8.34 6 7.68 6 7 6 C7 5.34 7 4.68 7 4 C4.69 4 2.38 4 0 4 C0 3.34 0 2.68 0 2 C-0.66 1.67 -1.32 1.34 -2 1 C-1.34 0.67 -0.68 0.34 0 0 Z " fill="#33163B" transform="translate(402,409)"/>
<path d="M0 0 C0.99 0 1.98 0 3 0 C2.67 2.64 2.34 5.28 2 8 C0.68 8 -0.64 8 -2 8 C-2.125 5.125 -2.125 5.125 -2 2 C-1.34 1.34 -0.68 0.68 0 0 Z " fill="#26BDB6" transform="translate(282,288)"/>
<path d="M0 0 C-0.33 1.32 -0.66 2.64 -1 4 C-2.875 4.625 -2.875 4.625 -5 5 C-5.66 4.34 -6.32 3.68 -7 3 C-7 2.01 -7 1.02 -7 0 C-4.3333581 -1.33332095 -2.83319697 -0.67102033 0 0 Z " fill="#421237" transform="translate(414,289)"/>
<path d="M0 0 C0.66 0.33 1.32 0.66 2 1 C1.09276387 5.68738665 0.0452733 10.34193744 -1 15 C-1.99 14.34 -2.98 13.68 -4 13 C-2.68 8.71 -1.36 4.42 0 0 Z " fill="#CF7147" transform="translate(335,256)"/>
<path d="M0 0 C4.95532767 3.86757281 8.96476648 8.18876004 13 13 C8.91161216 13 7.60456814 11.30030618 4.65234375 8.66015625 C2.14167048 6.13761219 0 3.65942519 0 0 Z " fill="#B13C4F" transform="translate(350,234)"/>
<path d="M0 0 C3.3 0 6.6 0 10 0 C10 0.66 10 1.32 10 2 C6.78548731 3.60725635 3.56387464 3.05748185 0 3 C0 2.01 0 1.02 0 0 Z " fill="#2B1332" transform="translate(282,424)"/>
<path d="M0 0 C6.75 -0.125 6.75 -0.125 9 1 C8.67 2.32 8.34 3.64 8 5 C5.69 4.67 3.38 4.34 1 4 C1.66 3.34 2.32 2.68 3 2 C2.01 1.34 1.02 0.68 0 0 Z " fill="#DED8E0" transform="translate(402,414)"/>
<path d="M0 0 C4.84824868 0.41556417 6.88036862 2.37448245 10 6 C11.3125 8.3125 11.3125 8.3125 12 10 C7.53665723 8.63620082 5.72517562 6.72440668 3 3 C2.01769502 1.9826127 1.02530403 0.97403883 0 0 Z " fill="#4B0A32" transform="translate(346,230)"/>
<path d="M0 0 C3.87051275 3.07881696 7.02911382 6.00073014 10 10 C7.35337395 9.84876423 5.55721506 9.49998757 3.5546875 7.703125 C0 3.6 0 3.6 0 0 Z " fill="#60113D" transform="translate(341,280)"/>
<path d="M0 0 C1.65 0.33 3.3 0.66 5 1 C1.38671875 5.6875 1.38671875 5.6875 0 7 C-0.99 7 -1.98 7 -3 7 C-2.690625 6.401875 -2.38125 5.80375 -2.0625 5.1875 C-0.89790296 2.91043228 -0.89790296 2.91043228 0 0 Z " fill="#231F42" transform="translate(243,185)"/>
<path d="M0 0 C0.33 0 0.66 0 1 0 C1.05418326 2.08304538 1.09287551 4.16649768 1.125 6.25 C1.14820313 7.41015625 1.17140625 8.5703125 1.1953125 9.765625 C1.0103949 12.82786046 0.60823023 14.44202751 -1 17 C-1.66 15.68 -2.32 14.36 -3 13 C-2.34 12.01 -1.68 11.02 -1 10 C-0.54398739 7.49103314 -0.54398739 7.49103314 -0.375 4.8125 C-0.30023438 3.91144531 -0.22546875 3.01039063 -0.1484375 2.08203125 C-0.09945313 1.39496094 -0.05046875 0.70789063 0 0 Z " fill="#341D3B" transform="translate(362,168)"/>
<path d="M0 0 C2 0 4 0 6 0 C6 1.98 6 3.96 6 6 C4.68 5.34 3.36 4.68 2 4 C1.34 4.66 0.68 5.32 0 6 C0 4.02 0 2.04 0 0 Z " fill="#619CA0" transform="translate(339,439)"/>
<path d="M0 0 C1.60577252 4.01443129 0.36580696 7.04634827 -1 11 C-1.99 12.485 -1.99 12.485 -3 14 C-3.99 13.67 -4.98 13.34 -6 13 C-5.47599609 11.96939453 -5.47599609 11.96939453 -4.94140625 10.91796875 C-4.48636719 10.01691406 -4.03132813 9.11585938 -3.5625 8.1875 C-3.11003906 7.29417969 -2.65757812 6.40085937 -2.19140625 5.48046875 C-0.9168395 2.96000522 -0.9168395 2.96000522 0 0 Z " fill="#E46442" transform="translate(377,284)"/>
<path d="M0 0 C1.91595968 -0.08133791 3.83291932 -0.13934367 5.75 -0.1875 C7.35101563 -0.23970703 7.35101563 -0.23970703 8.984375 -0.29296875 C12.30027855 0.02917214 13.59016673 0.77148914 16 3 C15.01 3.66 14.02 4.32 13 5 C12.61199219 4.51917969 12.22398437 4.03835938 11.82421875 3.54296875 C9.45911353 1.54250502 7.87308547 1.51123932 4.8125 1.3125 C3.91144531 1.24675781 3.01039063 1.18101562 2.08203125 1.11328125 C1.39496094 1.07589844 0.70789063 1.03851563 0 1 C0 0.67 0 0.34 0 0 Z " fill="#3F2043" transform="translate(337,412)"/>
<path d="M0 0 C1.43718835 2.87437669 1 3.34925805 1 7 C-2 7 -2 7 -5 5 C-4.1875 3.0625 -4.1875 3.0625 -3 1 C-2.01 0.67 -1.02 0.34 0 0 Z " fill="#350E3E" transform="translate(230,409)"/>
<path d="M0 0 C1.12894876 0.93274109 2.25300876 1.87140122 3.375 2.8125 C4.00148437 3.33457031 4.62796875 3.85664063 5.2734375 4.39453125 C7 6 7 6 9 9 C7.68 8.67 6.36 8.34 5 8 C5 7.34 5 6.68 5 6 C3.68 6 2.36 6 1 6 C1 5.01 1 4.02 1 3 C0.34 2.67 -0.32 2.34 -1 2 C-0.67 1.34 -0.34 0.68 0 0 Z " fill="#31194D" transform="translate(249,281)"/>
<path d="M0 0 C0.99 0.33 1.98 0.66 3 1 C3.8125 2.875 3.8125 2.875 4 5 C3.01 6.485 3.01 6.485 2 8 C1.34 7.34 0.68 6.68 0 6 C0 5.01 0 4.02 0 3 C-0.66 3 -1.32 3 -2 3 C-2 2.34 -2 1.68 -2 1 C-1.34 0.67 -0.68 0.34 0 0 Z " fill="#38153E" transform="translate(306,208)"/>
<path d="M0 0 C2.95012857 1.36970255 5.5652222 2.82609125 8 5 C8 5.99 8 6.98 8 8 C6 8 6 8 4.375 6.625 C3 5 3 5 3 3 C1.35 2.67 -0.3 2.34 -2 2 C-1.34 1.34 -0.68 0.68 0 0 Z " fill="#2C7BAA" transform="translate(294,156)"/>
<path d="M0 0 C2 2 2 2 2 6 C-2.29 6 -6.58 6 -11 6 C-11 5.67 -11 5.34 -11 5 C-5.555 4.505 -5.555 4.505 0 4 C0 2.68 0 1.36 0 0 Z " fill="#4E3354" transform="translate(251,415)"/>
<path d="M0 0 C0.33 0 0.66 0 1 0 C2.05699482 5.28497409 2.05699482 5.28497409 2 8 C0.0625 10.5 0.0625 10.5 -2 12 C-3.15957207 8.52128379 -2.77456651 7.65780355 -1.5625 4.3125 C-1.13130859 3.10013672 -1.13130859 3.10013672 -0.69140625 1.86328125 C-0.46324219 1.24839844 -0.23507812 0.63351562 0 0 Z " fill="#4D2D4E" transform="translate(300,365)"/>
<path d="M0 0 C1.125 1.625 1.125 1.625 2 4 C1.125 7.25 1.125 7.25 0 10 C-0.66 10 -1.32 10 -2 10 C-2.33 10.66 -2.66 11.32 -3 12 C-2.40075776 7.80530429 -1.42500059 3.99000166 0 0 Z " fill="#4E214B" transform="translate(274,316)"/>
<path d="M0 0 C0.99 0.33 1.98 0.66 3 1 C3 2.65 3 4.3 3 6 C1.68 6.33 0.36 6.66 -1 7 C-1.04254356 5.00045254 -1.04080783 2.99958364 -1 1 C-0.67 0.67 -0.34 0.34 0 0 Z " fill="#F6F2F7" transform="translate(408,422)"/>
<path d="M0 0 C1.0625 1.8125 1.0625 1.8125 2 4 C1.67 4.99 1.34 5.98 1 7 C0.77820215 8.89212737 0.59385985 10.78884472 0.4375 12.6875 C0.35371094 13.68136719 0.26992188 14.67523438 0.18359375 15.69921875 C0.12300781 16.45847656 0.06242187 17.21773438 0 18 C-0.33 18 -0.66 18 -1 18 C-1.02684312 15.18743719 -1.04676188 12.37512759 -1.0625 9.5625 C-1.07087891 8.76005859 -1.07925781 7.95761719 -1.08789062 7.13085938 C-1.0965143 5.08704779 -1.0522815 3.04316098 -1 1 C-0.67 0.67 -0.34 0.34 0 0 Z " fill="#523453" transform="translate(263,350)"/>
<path d="M0 0 C1.98 1.65 3.96 3.3 6 5 C5.34 5.66 4.68 6.32 4 7 C3.01 6.67 2.02 6.34 1 6 C-0.1875 3.4375 -0.1875 3.4375 -1 1 C-0.67 0.67 -0.34 0.34 0 0 Z " fill="#321D49" transform="translate(241,273)"/>
<path d="M0 0 C0.86625 0.495 0.86625 0.495 1.75 1 C4.19883862 2.27075898 4.19883862 2.27075898 8 2 C8.33 3.65 8.66 5.3 9 7 C6 7 6 7 4.39453125 5.46875 C3.87246094 4.8190625 3.35039062 4.169375 2.8125 3.5 C2.28269531 2.8503125 1.75289063 2.200625 1.20703125 1.53125 C0.80871094 1.0259375 0.41039062 0.520625 0 0 Z " fill="#32164C" transform="translate(278,254)"/>
<path d="M0 0 C1.32 0.33 2.64 0.66 4 1 C3.67 2.65 3.34 4.3 3 6 C2.67 6 2.34 6 2 6 C1.67 8.31 1.34 10.62 1 13 C0.67 13 0.34 13 0 13 C0 8.71 0 4.42 0 0 Z " fill="#1E0724" transform="translate(361,166)"/>
<path d="M0 0 C1.98 0.495 1.98 0.495 4 1 C4 2.66666667 4 4.33333333 4 6 C2.35 6 0.7 6 -1 6 C-1 2 -1 2 0 0 Z " fill="#5B9399" transform="translate(292,439)"/>
<path d="M0 0 C1.875 0.25 1.875 0.25 4 1 C5.3125 2.875 5.3125 2.875 6 5 C5.67 5.99 5.34 6.98 5 8 C2.5 5.6875 2.5 5.6875 0 3 C0 2.01 0 1.02 0 0 Z " fill="#33ABB4" transform="translate(267,296)"/>
<path d="M0 0 C4 0 4 0 5.703125 1.53125 C6.21359375 2.1809375 6.7240625 2.830625 7.25 3.5 C8.03117187 4.47453125 8.03117187 4.47453125 8.828125 5.46875 C9.21484375 5.9740625 9.6015625 6.479375 10 7 C9.01 7.495 9.01 7.495 8 8 C6.66372225 6.85760183 5.33104612 5.71098945 4 4.5625 C3.2575 3.92441406 2.515 3.28632813 1.75 2.62890625 C1.1725 2.09136719 0.595 1.55382812 0 1 C0 0.67 0 0.34 0 0 Z " fill="#C04D4B" transform="translate(339,278)"/>
<path d="M0 0 C0.66 0 1.32 0 2 0 C1.54803755 1.60597325 1.08817673 3.20972508 0.625 4.8125 C0.36976563 5.70582031 0.11453125 6.59914062 -0.1484375 7.51953125 C-1 10 -1 10 -3 13 C-2.45144652 8.428721 -1.58255197 4.32564205 0 0 Z " fill="#FAE1D3" transform="translate(336,249)"/>
<path d="M0 0 C2.875 0.1875 2.875 0.1875 6 1 C7.375 3.5625 7.375 3.5625 8 6 C4.74456771 5.65120368 3.98126893 4.97866739 1.75 2.4375 C1.1725 1.633125 0.595 0.82875 0 0 Z " fill="#31CBB8" transform="translate(216,247)"/>
<path d="M0 0 C2.9375 0.75 2.9375 0.75 6 2 C6.875 4.125 6.875 4.125 7 6 C6.1646875 5.566875 6.1646875 5.566875 5.3125 5.125 C2.91505355 3.9586747 0.48403061 2.9660119 -2 2 C-1.34 1.34 -0.68 0.68 0 0 Z " fill="#321F39" transform="translate(349,154)"/>
<path d="M0 0 C0.66 0 1.32 0 2 0 C2.05399736 1.45792884 2.09279177 2.91642712 2.125 4.375 C2.14820313 5.18710937 2.17140625 5.99921875 2.1953125 6.8359375 C2 9 2 9 0 11 C-1 9 -1 9 -0.5 6.5625 C0.23853737 3.89551669 0.23853737 3.89551669 -1 1 C-0.67 0.67 -0.34 0.34 0 0 Z " fill="#310D38" transform="translate(373,421)"/>
<path d="M0 0 C1.32 0 2.64 0 4 0 C4 1.98 4 3.96 4 6 C3.01 6 2.02 6 1 6 C0.67 4.02 0.34 2.04 0 0 Z " fill="#F3EEF3" transform="translate(327,419)"/>
<path d="M0 0 C0.99 0.33 1.98 0.66 3 1 C3 4.3 3 7.6 3 11 C2.34 10.67 1.68 10.34 1 10 C0.5859375 7.71484375 0.5859375 7.71484375 0.375 4.9375 C0.30023438 4.01839844 0.22546875 3.09929687 0.1484375 2.15234375 C0.09945313 1.44207031 0.05046875 0.73179687 0 0 Z " fill="#ED8E2C" transform="translate(409,297)"/>
<path d="M0 0 C-0.33 0.99 -0.66 1.98 -1 3 C-4.0625 4.1875 -4.0625 4.1875 -7 5 C-6.625 2.5625 -6.625 2.5625 -6 0 C-3.50907189 -1.24546405 -2.58919267 -0.7767578 0 0 Z " fill="#3F1D46" transform="translate(316,427)"/>
<path d="M0 0 C0.28875 0.639375 0.5775 1.27875 0.875 1.9375 C1.82823451 4.15206079 1.82823451 4.15206079 4 5 C4 5.99 4 6.98 4 8 C2.68 7.67 1.36 7.34 0 7 C-0.93423645 3.98968256 -1.04449911 3.13349732 0 0 Z " fill="#37153D" transform="translate(267,424)"/>
<path d="M0 0 C1.65 0 3.3 0 5 0 C5 1.32 5 2.64 5 4 C3.35 4 1.7 4 0 4 C0 2.68 0 1.36 0 0 Z " fill="#251C29" transform="translate(342,418)"/>
<path d="M0 0 C1.65 0 3.3 0 5 0 C5 1.32 5 2.64 5 4 C3.35 4 1.7 4 0 4 C0 2.68 0 1.36 0 0 Z " fill="#1A121C" transform="translate(382,418)"/>
<path d="M0 0 C2.475 0.99 2.475 0.99 5 2 C5 2.99 5 3.98 5 5 C3.68 5.33 2.36 5.66 1 6 C0.4465236 3.92446352 0 2.15634036 0 0 Z " fill="#41174B" transform="translate(264,298)"/>
<path d="M0 0 C0.99 0.33 1.98 0.66 3 1 C1.6875 3.5 1.6875 3.5 0 6 C-0.99 6 -1.98 6 -3 6 C-2.625 3.5625 -2.625 3.5625 -2 1 C-1.34 0.67 -0.68 0.34 0 0 Z " fill="#562551" transform="translate(330,277)"/>
<path d="M0 0 C1.2065625 0.0309375 1.2065625 0.0309375 2.4375 0.0625 C0.79580472 2.08304804 -0.87161778 4.08293058 -2.5625 6.0625 C-2.8925 6.0625 -3.2225 6.0625 -3.5625 6.0625 C-3.605221 4.39638095 -3.60313832 2.72867115 -3.5625 1.0625 C-2.5625 0.0625 -2.5625 0.0625 0 0 Z " fill="#319AAD" transform="translate(261.5625,224.9375)"/>
<path d="M0 0 C-0.928125 0.45375 -1.85625 0.9075 -2.8125 1.375 C-6.03921389 2.9421633 -6.03921389 2.9421633 -9 5 C-9.33 4.34 -9.66 3.68 -10 3 C-6.81859267 -0.48439851 -4.56758339 -1.41752588 0 0 Z " fill="#1D1944" transform="translate(282,156)"/>
<path d="M0 0 C0.99 0.495 0.99 0.495 2 1 C2 1.66 2 2.32 2 3 C3.32 3 4.64 3 6 3 C5.67 3.99 5.34 4.98 5 6 C3.68 6 2.36 6 1 6 C0.67 4.02 0.34 2.04 0 0 Z " fill="#2E0C37" transform="translate(356,430)"/>
<path d="M0 0 C0.66 0 1.32 0 2 0 C2.33 1.98 2.66 3.96 3 6 C2.01 6.66 1.02 7.32 0 8 C0 5.36 0 2.72 0 0 Z " fill="#FDFBFC" transform="translate(338,415)"/>
<path d="M0 0 C1.13643966 3.40931897 0.86747764 4.00335456 -0.4375 7.1875 C-0.86869141 8.26064453 -0.86869141 8.26064453 -1.30859375 9.35546875 C-1.53675781 9.89816406 -1.76492188 10.44085938 -2 11 C-3.08719244 7.73842267 -3.29071481 5.41589896 -3 2 C-2.01 1.34 -1.02 0.68 0 0 Z " fill="#360F35" transform="translate(272,326)"/>
<path d="M0 0 C0.66 1.32 1.32 2.64 2 4 C0.02 5.32 -1.96 6.64 -4 8 C-2.25 2.25 -2.25 2.25 0 0 Z " fill="#1585B2" transform="translate(255,234)"/>
<path d="M0 0 C1.32 0.33 2.64 0.66 4 1 C1.03 3.475 1.03 3.475 -2 6 C-2 4.68 -2 3.36 -2 2 C-1.34 2 -0.68 2 0 2 C0 1.34 0 0.68 0 0 Z " fill="#1E2845" transform="translate(236,194)"/>
<path d="M0 0 C0.33 1.32 0.66 2.64 1 4 C-2.22791555 6.1519437 -3.28400809 6.20086443 -7 6 C-7 5.34 -7 4.68 -7 4 C-5.35 4 -3.7 4 -2 4 C-1.34 2.68 -0.68 1.36 0 0 Z " fill="#381D3E" transform="translate(350,423)"/>
<path d="M0 0 C1.37562854 1.28965176 2.70766393 2.62689293 4 4 C4 4.66 4 5.32 4 6 C0.34683329 4.75023244 -0.78065836 4.32901247 -3 1 C-2.01 0.67 -1.02 0.34 0 0 Z " fill="#B22F50" transform="translate(325,376)"/>
<path d="M0 0 C0.66 0.33 1.32 0.66 2 1 C1.690625 1.598125 1.38125 2.19625 1.0625 2.8125 C-0.10209704 5.08956772 -0.10209704 5.08956772 -1 8 C-1.66 8 -2.32 8 -3 8 C-1.125 1.125 -1.125 1.125 0 0 Z " fill="#F28E23" transform="translate(408,311)"/>
<path d="M0 0 C3.36720387 1.39332574 4.9859524 2.9789286 7 6 C4 6 4 6 1.8125 4.125 C0 2 0 2 0 0 Z " fill="#541F22" transform="translate(391,274)"/>
<path d="M0 0 C0 1.65 0 3.3 0 5 C-1.875 4.6875 -1.875 4.6875 -4 4 C-4.66 3.01 -5.32 2.02 -6 1 C-1.125 0 -1.125 0 0 0 Z " fill="#1CC8B8" transform="translate(242,264)"/>
<path d="M0 0 C1.875 0.3125 1.875 0.3125 4 1 C4.66 1.99 5.32 2.98 6 4 C4.02 4.33 2.04 4.66 0 5 C0 3.35 0 1.7 0 0 Z " fill="#2A1D43" transform="translate(217,251)"/>
<path d="M0 0 C0.66 0.33 1.32 0.66 2 1 C1.67 2.65 1.34 4.3 1 6 C0.01 6 -0.98 6 -2 6 C-1.125 1.125 -1.125 1.125 0 0 Z " fill="#2693B4" transform="translate(274,209)"/>
<path d="M0 0 C0.99 0.33 1.98 0.66 3 1 C1.35 2.98 -0.3 4.96 -2 7 C-2.6875 5.1875 -2.6875 5.1875 -3 3 C-1.5625 1.25 -1.5625 1.25 0 0 Z " fill="#1F2248" transform="translate(261,169)"/>
<path d="M0 0 C1.46726798 3.81489674 0.43336419 6.29011622 -1 10 C-1.33 10 -1.66 10 -2 10 C-2.1953125 3.9453125 -2.1953125 3.9453125 -2 2 C-1.34 1.34 -0.68 0.68 0 0 Z " fill="#32133C" transform="translate(348,436)"/>
<path d="M0 0 C1.32 0.66 2.64 1.32 4 2 C4 2.66 4 3.32 4 4 C2.35 4 0.7 4 -1 4 C-1 1 -1 1 0 0 Z " fill="#E8E2E9" transform="translate(225,416)"/>
<path d="M0 0 C0.66 1.32 1.32 2.64 2 4 C0.68 5.32 -0.64 6.64 -2 8 C-1.125 1.125 -1.125 1.125 0 0 Z " fill="#441540" transform="translate(312,331)"/>
<path d="M0 0 C0 1.98 0 3.96 0 6 C-0.66 6 -1.32 6 -2 6 C-2.33 6.66 -2.66 7.32 -3 8 C-3.33 5.69 -3.66 3.38 -4 1 C-2 0 -2 0 0 0 Z " fill="#4A1848" transform="translate(270,332)"/>
<path d="M0 0 C0.66 0.33 1.32 0.66 2 1 C2 4 2 4 0.5 5.6875 C0.005 6.120625 -0.49 6.55375 -1 7 C-0.34 7.33 0.32 7.66 1 8 C-0.32 7.67 -1.64 7.34 -3 7 C-2.01 4.69 -1.02 2.38 0 0 Z " fill="#3B0F40" transform="translate(413,312)"/>
<path d="M0 0 C3 2 3 2 3.6875 4.125 C3.790625 4.74375 3.89375 5.3625 4 6 C2.02 6 0.04 6 -2 6 C-1.34 4.02 -0.68 2.04 0 0 Z " fill="#401341" transform="translate(347,224)"/>
<path d="M0 0 C0.99 0.33 1.98 0.66 3 1 C1.35 2.98 -0.3 4.96 -2 7 C-2.33 5.68 -2.66 4.36 -3 3 C-2.01 3 -1.02 3 0 3 C0 2.01 0 1.02 0 0 Z " fill="#1B2D46" transform="translate(229,201)"/>
</svg>
